SplineFontDB: 3.2
FontName: LibertinusKeyboard-Regular
FullName: Libertinus Keyboard Regular
FamilyName: Libertinus Keyboard
Weight: Regular
UComments: "2003-08-29: Created.+AAoA-2004-07-25: v(1.0) release candidate+AAoA-2005-12-28: v(1.1.0) stable+AAoA-2006-01-01: v(2.0.0) stable+AAoA-2006-09-05: v(2.2.0) stable+AAoA-2006-12-04: v(2.3.0) stable+AAoA-2007-03-11: v(2.4.0) stable+AAoA-2007-12-00: v(2.7.0) stable+AAoA-2008-06-00: v(2.8.14) stable+AAoA"
Version: 0.6.1
ItalicAngle: 0
UnderlinePosition: -98
UnderlineWidth: 40
Ascent: 754
Descent: 246
InvalidEm: 0
LayerCount: 3
Layer: 0 0 "Back" 1
Layer: 1 0 "Fore" 0
Layer: 2 0 "Frame" 0
XUID: [1021 993 1524925707 2876416]
FSType: 0
OS2Version: 0
OS2_WeightWidthSlopeOnly: 0
OS2_UseTypoMetrics: 1
CreationTime: 1156455862
PfmFamily: 33
TTFWeight: 700
TTFWidth: 5
LineGap: 0
VLineGap: 0
OS2TypoAscent: 894
OS2TypoAOffset: 0
OS2TypoDescent: -246
OS2TypoDOffset: 0
OS2TypoLinegap: 0
OS2WinAscent: 894
OS2WinAOffset: 0
OS2WinDescent: 246
OS2WinDOffset: 0
HheadAscent: 894
HheadAOffset: 0
HheadDescent: -246
HheadDOffset: 0
OS2CapHeight: 754
OS2XHeight: 754
OS2FamilyClass: 2063
OS2Vendor: 'QUE '
Lookup: 4 0 1 "'liga' Standardligaturen" { "'liga' Standardligaturen 1"  } ['liga' ('DFLT' <'dflt' > 'cyrl' <'dflt' > 'grek' <'dflt' > 'latn' <'AZE ' 'CRT ' 'TRK ' 'dflt' > ) ]
MarkAttachClasses: 1
DEI: 91125
LangName: 1033 "" "" "" "" "" "" "" "" "Caleb Maclennan" "Philipp H. Poll, Khaled Hosny" "" "https://github.com/alerque/libertinus" "" "This Font Software is licensed under the SIL Open Font License, Version 1.1" "https://scripts.sil.org/OFL"
GaspTable: 3 8 2 17 1 65535 3 0
Encoding: UnicodeFull
UnicodeInterp: none
NameList: AGL For New Fonts
BeginPrivate: 9
BlueValues 39 [29 41 361 374 460 474 524 537 555 578]
OtherBlues 11 [-238 -227]
FamilyBlues 47 [-12 0 429 442 460 474 568 578 645 658 688 698]
FamilyOtherBlues 11 [-238 -227]
BlueScale 8 0.039625
StdHW 4 [44]
StdVW 5 [118]
StemSnapH 22 [21 34 39 44 49 54 59]

StartChar: exclam
Encoding: 33 33 0
Width: 1100
GlyphClass: 2
Flags: MW
LayerCount: 3
Fore
SplineSet
542 534 m 0
 564 534 588 517 588 480 c 0
 588 431 575 399 567 335 c 0
 556 254 555 209 554 198 c 0
 553 190 550 183 542 183 c 0
 533 183 531 189 531 193 c 0
 529 209 525 276 518 335 c 0
 510 401 497 427 497 480 c 0
 497 520 524 534 542 534 c 0
493 80 m 1
 493 83 l 1
 502 105 514 118 539 128 c 1
 541 128 l 1
 565 119 578 107 587 83 c 1
 587 80 l 1
 577 53 565 41 541 35 c 1
 539 35 l 1
 512 41 501 53 493 80 c 1
EndSplineSet
Refer: 415 -1 N 1 0 0 1 0 0 2
Colour: ff80cc
EndChar

StartChar: quotedbl
Encoding: 34 34 1
Width: 1100
GlyphClass: 2
Flags: MW
LayerCount: 3
Fore
SplineSet
582 400 m 1
 571 403 l 1
 571 403 547 523 547 527 c 0
 547 545 563 568 596 568 c 0
 627 568 629 554 629 540 c 0
 629 529 602 405 602 405 c 1
 582 400 l 1
468 399 m 1
 457 402 l 1
 457 402 433 522 433 526 c 0
 433 544 449 567 482 567 c 0
 513 567 515 553 515 539 c 0
 515 528 488 404 488 404 c 1
 468 399 l 1
EndSplineSet
Refer: 415 -1 N 1 0 0 1 0 0 2
Colour: ff00ff
EndChar

StartChar: numbersign
Encoding: 35 35 2
Width: 1100
GlyphClass: 2
Flags: MW
LayerCount: 3
Fore
SplineSet
560 230 m 1
 572 304 l 1
 519 304 l 1
 515 278 511 256 506 230 c 1
 560 230 l 1
623 304 m 1
 611 230 l 1
 684 230 l 1
 678 188 l 1
 605 188 l 1
 598 146 591 102 584 62 c 1
 534 62 l 1
 554 188 l 1
 500 188 l 1
 493 146 487 102 480 62 c 1
 427 62 l 1
 446 188 l 1
 380 188 l 1
 386 230 l 1
 453 230 l 1
 458 256 462 278 465 304 c 1
 398 304 l 1
 405 347 l 1
 472 347 l 1
 479 388 486 432 492 472 c 1
 546 472 l 1
 524 347 l 1
 578 347 l 1
 585 388 591 432 598 472 c 1
 649 472 l 1
 630 347 l 1
 702 347 l 1
 696 304 l 1
 623 304 l 1
EndSplineSet
Refer: 415 -1 N 1 0 0 1 0 0 2
EndChar

StartChar: dollar
Encoding: 36 36 3
Width: 1100
GlyphClass: 2
Flags: MW
LayerCount: 3
Fore
SplineSet
530 83.1 m 1
 530 245.9 l 1
 472 269 397 304 397 372 c 0
 397 440.3 466.5 476.3 530 482.9 c 1
 530 525 l 1
 562 525 l 1
 562 483.8 l 1
 634.8 481.3 672 455 672 455 c 2
 674 453 l 1
 668 433 663 399 661 375 c 1
 654 375 l 1
 638.2 410.1 602.3 442.2 562 449.5 c 1
 562 302.5 l 1
 617.2 282.3 699 249.9 699 177 c 0
 699 109.3 635.6 61.9 562 50.6 c 1
 562 -5 l 1
 530 -5 l 1
 530 48 l 2
 529.3 48 528.7 48 528 48 c 0
 454 48 394 78 394 78 c 1
 393 80 l 1
 398 99 404 135 406 159 c 1
 412 159 l 1
 430.4 120.2 486.5 85.2 530 83.1 c 1
530 315.1 m 1
 530 450 l 1
 495.8 445.3 475 424.1 475 389 c 0
 475 348.9 503.7 327.5 530 315.1 c 1
562 233 m 1
 562 85.9 l 1
 593.5 93 615 113.8 615 153 c 0
 615 202.4 593.2 219.2 562 233 c 1
EndSplineSet
Refer: 415 -1 N 1 0 0 1 0 0 2
EndChar

StartChar: percent
Encoding: 37 37 4
Width: 1100
GlyphClass: 2
Flags: MW
LayerCount: 3
Fore
SplineSet
636 106 m 0
 636 77 648 59 662 59 c 0
 701 59 726 125 726 166 c 0
 726 206 707 209 696 209 c 0
 664 209 636 149 636 106 c 0
585 117 m 0
 585 177 621 236 688 236 c 0
 724 236 757 222 757 168 c 0
 757 94 717 34 657 34 c 0
 611 34 585 68 585 117 c 0
577 438 m 0
 609 438 659 442 690 476 c 1
 725 460 l 1
 417 37 l 1
 376 46 l 1
 651 422 l 1
 621 410 592 404 570 404 c 0
 552 404 528 412 514 420 c 1
 516 414 516 410 516 404 c 0
 516 341 477 272 412 272 c 0
 366 272 344 303 344 353 c 0
 344 417 385 472 447 472 c 0
 468 472 489 466 497 457 c 1
 537 438 564 438 577 438 c 0
396 343 m 0
 396 314 407 296 420 296 c 0
 455 296 484 360 484 404 c 0
 484 440 468 446 455 446 c 0
 418 446 396 386 396 343 c 0
EndSplineSet
Refer: 415 -1 N 1 0 0 1 0 0 2
EndChar

StartChar: parenleft
Encoding: 40 40 5
Width: 1100
GlyphClass: 2
Flags: MW
LayerCount: 3
Fore
SplineSet
437 252 m 0
 437 379 521 517 610 593 c 1
 634 572 l 1
 610 545 528 449 528 252 c 0
 528 55 609 -41 634 -70 c 1
 610 -90 l 1
 467 33 437 186 437 252 c 0
EndSplineSet
Refer: 415 -1 N 1 0 0 1 0 0 2
EndChar

StartChar: parenright
Encoding: 41 41 6
Width: 1100
GlyphClass: 2
Flags: MW
LayerCount: 3
Fore
SplineSet
663 252 m 0
 663 186 633 33 490 -90 c 1
 466 -70 l 1
 491 -41 572 55 572 252 c 0
 572 449 490 545 466 572 c 1
 490 593 l 1
 579 517 663 379 663 252 c 0
EndSplineSet
Refer: 415 -1 N 1 0 0 1 0 0 2
Colour: ff00ff
EndChar

StartChar: asterisk
Encoding: 42 42 7
Width: 1100
GlyphClass: 2
Flags: MW
LayerCount: 3
Fore
SplineSet
521 441 m 1
 512 442 502 446 491 444 c 0
 457 438 430 438 430 472 c 0
 430 483 437 496 455 496 c 0
 480 496 493 471 526 457 c 1
 523 487 503 506 503 525 c 0
 503 541 518 555 532 555 c 0
 545 555 562 546 562 528 c 0
 562 508 545 480 543 457 c 1
 577 471 585 498 610 498 c 0
 633 498 639 480 639 472 c 0
 639 450 614 442 587 442 c 0
 573 442 560 442 547 440 c 1
 572 413 611 414 611 376 c 0
 611 363 597 354 587 354 c 0
 550 354 552 401 533 430 c 1
 515 396 525 354 481 354 c 0
 468 354 459 364 459 375 c 0
 459 416 497 412 521 441 c 1
EndSplineSet
Refer: 415 -1 N 1 0 0 1 0 0 2
EndChar

StartChar: plus
Encoding: 43 43 8
Width: 1100
GlyphClass: 2
Flags: MW
LayerCount: 3
Fore
SplineSet
569 260 m 1
 697 260 l 1
 697 204 l 1
 569 204 l 1
 569 82 l 1
 513 82 l 1
 513 204 l 1
 385 204 l 1
 385 260 l 1
 513 260 l 1
 513 383 l 1
 569 383 l 1
 569 260 l 1
EndSplineSet
Refer: 415 -1 N 1 0 0 1 0 0 2
EndChar

StartChar: slash
Encoding: 47 47 9
Width: 1100
GlyphClass: 2
Flags: MW
LayerCount: 3
Fore
SplineSet
645 558 m 1
 467 29 l 1
 422 29 l 1
 600 558 l 1
 645 558 l 1
EndSplineSet
Refer: 415 -1 N 1 0 0 1 0 0 2
EndChar

StartChar: one
Encoding: 49 49 10
Width: 1100
GlyphClass: 2
Flags: MW
LayerCount: 3
Fore
SplineSet
588 182 m 2
 588 123 590 86 597 41 c 1
 595 39 l 1
 595 39 570 41 543 41 c 0
 515 41 492 39 492 39 c 1
 492 41 l 1
 499 83 500 124 500 182 c 2
 500 364 l 2
 500 391 499 413 486 413 c 0
 471 413 438 412 405 408 c 1
 404 440 l 1
 473 456 542 480 591 496 c 0
 594 496 596 497 596 493 c 0
 595 483 588 452 588 371 c 2
 588 182 l 2
EndSplineSet
Refer: 415 -1 N 1 0 0 1 0 0 2
EndChar

StartChar: two
Encoding: 50 50 11
Width: 1100
GlyphClass: 2
Flags: MW
LayerCount: 3
Fore
SplineSet
499 456 m 0
 462 456 430 437 405 393 c 1
 387 393 l 1
 371 452 l 1
 373 455 l 1
 392 471 451 496 505 496 c 0
 594 496 664 460 664 379 c 0
 664 322 635 293 592 252 c 2
 517 180 l 2
 501 165 467 128 467 116 c 1
 529 116 l 2
 604 116 624 119 667 122 c 1
 665 112 663 83 663 73 c 0
 663 63 665 48 667 38 c 1
 611 40 594 41 538 41 c 0
 481 41 428 39 359 38 c 1
 358 41 l 1
 358 85 388 119 461 194 c 1
 517 249 l 1
 561 294 563 332 563 380 c 0
 563 426 526 456 499 456 c 0
EndSplineSet
Refer: 415 -1 N 1 0 0 1 0 0 2
EndChar

StartChar: three
Encoding: 51 51 12
Width: 1100
GlyphClass: 2
Flags: MW
LayerCount: 3
Fore
SplineSet
489 72 m 0
 515 72 570 86 570 173 c 0
 570 244 531 260 488 260 c 0
 481 260 468 260 459 259 c 1
 459 293 l 1
 531 297 562 327 562 389 c 0
 562 429 537 458 508 458 c 0
 455 458 439 436 414 392 c 1
 396 393 l 1
 381 452 l 1
 383 455 l 1
 402 471 458 496 515 496 c 0
 584 496 650 471 650 401 c 0
 650 338 615 301 561 287 c 1
 561 284 l 1
 616 279 671 247 671 175 c 0
 671 71 578 33 488 33 c 0
 431 33 386 59 367 75 c 1
 364 78 l 1
 381 137 l 1
 399 138 l 1
 424 94 433 72 489 72 c 0
EndSplineSet
Refer: 415 -1 N 1 0 0 1 0 0 2
EndChar

StartChar: four
Encoding: 52 52 13
Width: 1100
GlyphClass: 2
Flags: MW
LayerCount: 3
Fore
SplineSet
520 151 m 1
 367 151 l 2
 340 151 327 150 326 161 c 0
 326 162 321 178 334 196 c 0
 380 257 486 422 526 490 c 1
 526 492 l 1
 526 492 535 490 563 490 c 0
 590 490 613 492 613 492 c 1
 615 490 l 1
 609 445 607 437 607 378 c 2
 607 200 l 1
 661 200 l 2
 669 200 671 192 671 185 c 0
 671 176 660 151 650 151 c 2
 607 151 l 1
 607 93 609 86 615 41 c 1
 613 39 l 1
 613 39 590 41 563 41 c 0
 535 41 512 39 512 39 c 1
 511 41 l 1
 517 84 520 94 520 151 c 1
520 415 m 1
 384 200 l 1
 520 200 l 1
 520 415 l 1
EndSplineSet
Refer: 415 -1 N 1 0 0 1 0 0 2
EndChar

StartChar: five
Encoding: 53 53 14
Width: 1100
GlyphClass: 2
Flags: MW
LayerCount: 3
Fore
SplineSet
486 33 m 0
 429 33 384 59 365 75 c 1
 363 78 l 1
 378 137 l 1
 396 138 l 1
 421 94 443 70 487 70 c 0
 521 70 558 101 558 174 c 0
 558 240 532 281 486 281 c 0
 449 281 436 276 405 263 c 1
 389 268 l 1
 413 493 l 1
 439 491 469 488 497 488 c 0
 537 488 592 492 635 496 c 1
 640 494 l 1
 628 420 l 1
 597 417 557 416 535 416 c 0
 501 416 473 419 448 422 c 1
 437 313 l 1
 453 319 475 325 506 325 c 0
 590 325 649 259 649 187 c 0
 649 90 576 33 486 33 c 0
EndSplineSet
Refer: 415 -1 N 1 0 0 1 0 0 2
EndChar

StartChar: six
Encoding: 54 54 15
Width: 1100
GlyphClass: 2
Flags: MW
LayerCount: 3
Fore
SplineSet
456 290 m 1
 477 304 504 310 526 310 c 0
 642 310 675 236 675 175 c 0
 675 113 632 34 523 34 c 0
 498 34 460 37 429 57 c 0
 389 82 358 133 358 222 c 0
 358 335 453 496 652 496 c 1
 654 469 l 1
 607 465 486 454 456 290 c 1
451 254 m 1
 450 245 449 227 449 220 c 0
 449 88 486 67 526 67 c 0
 552 67 582 97 582 170 c 0
 582 207 581 275 511 275 c 0
 498 275 476 274 451 254 c 1
EndSplineSet
Refer: 415 -1 N 1 0 0 1 0 0 2
EndChar

StartChar: seven
Encoding: 55 55 16
Width: 1100
GlyphClass: 2
Flags: MW
LayerCount: 3
Fore
SplineSet
585 422 m 1
 541 422 475 420 379 415 c 1
 380 426 383 444 383 455 c 0
 383 466 380 482 379 493 c 1
 410 489 492 488 603 488 c 0
 626 488 640 491 651 494 c 1
 661 479 l 1
 577 276 535 161 492 34 c 1
 427 31 l 1
 425 37 l 1
 473 145 529 283 585 422 c 1
EndSplineSet
Refer: 415 -1 N 1 0 0 1 0 0 2
EndChar

StartChar: nine
Encoding: 57 57 17
Width: 1100
GlyphClass: 2
Flags: MW
LayerCount: 3
Fore
SplineSet
586.2 239.2 m 1
 565.2 225.2 538.2 219.2 516.2 219.2 c 0
 400.2 219.2 367.2 293.2 367.2 354.2 c 0
 367.2 416.2 410.2 495.2 519.2 495.2 c 0
 544.2 495.2 582.2 492.2 613.2 472.2 c 0
 653.2 447.2 684.2 396.2 684.2 307.2 c 0
 684.2 194.2 589.2 33.2 390.2 33.2 c 1
 388.2 60.2 l 1
 435.2 64.2 556.2 75.2 586.2 239.2 c 1
591.2 275.2 m 1
 592.2 284.2 593.2 302.2 593.2 309.2 c 0
 593.2 441.2 556.2 462.2 516.2 462.2 c 0
 490.2 462.2 460.2 432.2 460.2 359.2 c 0
 460.2 322.2 461.2 254.2 531.2 254.2 c 0
 544.2 254.2 566.2 255.2 591.2 275.2 c 1
EndSplineSet
Refer: 415 -1 N 1 0 0 1 0 0 2
Colour: ff00ff
EndChar

StartChar: colon
Encoding: 58 58 18
Width: 1100
GlyphClass: 2
Flags: MW
LayerCount: 3
Fore
SplineSet
487 293 m 1
 487 296 l 1
 496 319 509 333 535 343 c 1
 537 343 l 1
 562 334 576 321 585 296 c 1
 585 293 l 1
 575 265 562 252 537 246 c 1
 535 246 l 1
 507 252 495 265 487 293 c 1
487 81 m 1
 487 84 l 1
 496 107 509 121 535 131 c 1
 537 131 l 1
 562 122 576 109 585 84 c 1
 585 81 l 1
 575 53 562 40 537 34 c 1
 535 34 l 1
 507 40 495 53 487 81 c 1
EndSplineSet
Refer: 415 -1 N 1 0 0 1 0 0 2
Colour: ff00ff
EndChar

StartChar: less
Encoding: 60 60 19
Width: 1100
GlyphClass: 2
Flags: MW
LayerCount: 3
Fore
SplineSet
439 240 m 1
 677 153 l 1
 677 106 l 1
 356 224 l 1
 356 256 l 1
 677 374 l 1
 677 327 l 1
 439 240 l 1
EndSplineSet
Refer: 415 -1 N 1 0 0 1 0 0 2
EndChar

StartChar: equal
Encoding: 61 61 20
Width: 1100
GlyphClass: 2
Flags: MW
LayerCount: 3
Fore
SplineSet
701 207 m 1
 701 165 l 1
 375 165 l 1
 375 207 l 1
 701 207 l 1
701 300 m 1
 701 258 l 1
 375 258 l 1
 375 300 l 1
 701 300 l 1
EndSplineSet
Refer: 415 -1 N 1 0 0 1 0 0 2
EndChar

StartChar: greater
Encoding: 62 62 21
Width: 1100
GlyphClass: 2
Flags: MW
LayerCount: 3
Fore
SplineSet
633 238 m 1
 396 325 l 1
 396 372 l 1
 717 254 l 1
 717 221 l 1
 396 104 l 1
 396 151 l 1
 633 238 l 1
EndSplineSet
Refer: 415 -1 N 1 0 0 1 0 0 2
Colour: ff00ff
EndChar

StartChar: question
Encoding: 63 63 22
Width: 1100
GlyphClass: 2
Flags: MW
LayerCount: 3
Fore
SplineSet
530 500 m 0
 488 500 457 464 438 430 c 1
 428 431 l 1
 416 488 l 1
 418 491 l 1
 437 506 482 537 537 537 c 0
 613 537 675 492 675 424 c 0
 675 365 616 332 581 306 c 0
 559 290 536 269 536 214 c 2
 536 185 l 2
 536 179 525 173 519 173 c 0
 513 173 502 179 502 185 c 2
 502 215 l 2
 502 248 511 292 559 336 c 0
 589 364 590 386 590 421 c 0
 590 470 573 500 530 500 c 0
477 81 m 1
 477 84 l 1
 486 106 498 119 523 129 c 1
 525 129 l 1
 549 120 562 108 571 84 c 1
 571 81 l 1
 561 54 549 42 525 36 c 1
 523 36 l 1
 496 42 485 54 477 81 c 1
EndSplineSet
Refer: 415 -1 N 1 0 0 1 0 0 2
Colour: ff80cc
EndChar

StartChar: at
Encoding: 64 64 23
Width: 1100
GlyphClass: 2
Flags: MW
LayerCount: 3
Fore
SplineSet
622 308 m 0
 622 334 604 354 585 354 c 0
 575 354 551 353 525 325 c 0
 491 289 478 238 478 191 c 0
 478 155 485 122 520 122 c 0
 543 122 580 148 601 212 c 1
 608 237 622 290 622 308 c 0
648 124 m 0
 648 114 653 113 661 113 c 0
 689 113 771 164 771 272 c 0
 771 438 633 506 546 506 c 0
 429 506 307 412 307 239 c 0
 307 128 375 -23 559 -23 c 0
 616 -23 669 -5 716 33 c 1
 725 30 730 21 732 11 c 1
 684 -25 637 -52 544 -52 c 0
 367 -52 237 62 237 233 c 0
 237 389 363 533 553 533 c 0
 722 533 835 425 835 283 c 0
 835 178 747 82 646 82 c 0
 594 82 580 109 580 125 c 1
 549 96 519 90 501 90 c 0
 414 90 405 155 405 186 c 0
 405 295 497 379 583 379 c 0
 619 379 641 366 654 350 c 1
 681 375 l 1
 702 367 l 1
 657 173 l 2
 653 154 648 132 648 124 c 0
EndSplineSet
Refer: 415 -1 N 1 0 0 1 0 0 2
EndChar

StartChar: A
Encoding: 65 65 24
Width: 1100
GlyphClass: 2
Flags: MW
LayerCount: 3
Fore
SplineSet
512.5 414.7 m 1
 490.1 363 464.7 304.9 440.9 248 c 1
 464.7 247.7 497.2 246 519 246 c 0
 536.3 246 560 246.5 581.5 247.1 c 1
 562.9 295.1 540.1 351 512.5 414.7 c 1
423.2 205.1 m 1
 397.7 142.2 375.7 83.3 364 39 c 1
 355 41 338 41 330 41 c 0
 322 41 297 41 288 39 c 1
 364 204 437 368 509 534 c 1
 562 534 l 1
 631 370 730 114 767 39 c 1
 754 41 719 41 706 41 c 0
 694 41 666 41 653 39 c 1
 648.7 54.9 632.5 111.1 597.2 205.6 c 1
 572.6 206.3 546.6 207 523 207 c 0
 496 207 452.3 206.1 423.2 205.1 c 1
EndSplineSet
Refer: 415 -1 N 1 0 0 1 0 0 2
EndChar

StartChar: B
Encoding: 66 66 25
Width: 1100
GlyphClass: 2
Flags: MW
LayerCount: 3
Fore
SplineSet
450 453 m 2
 450 322 l 1
 504 322 l 2
 567 322 589 338 589 401 c 0
 589 478 556 487 514 487 c 0
 453 487 450 478 450 453 c 2
450 282 m 1
 450 113 l 2
 450 89 459 78 511 78 c 0
 612 78 624 110 624 164 c 0
 624 232 603 282 516 282 c 2
 450 282 l 1
402 524 m 0
 444 524 483 527 509 527 c 0
 648 527 686 461 686 410 c 0
 686 369 654 329 616 311 c 1
 681 292 730 251 730 179 c 0
 730 114 675 38 525 38 c 0
 459 38 450 41 402 41 c 0
 376 41 348 38 348 38 c 1
 347 41 l 1
 353 81 354 134 354 191 c 2
 354 374 l 2
 354 431 353 482 347 524 c 1
 348 527 l 1
 348 527 377 524 402 524 c 0
EndSplineSet
Refer: 415 -1 N 1 0 0 1 0 0 2
EndChar

StartChar: C
Encoding: 67 67 26
Width: 1100
GlyphClass: 2
Flags: MW
LayerCount: 3
Fore
SplineSet
551 534 m 0
 642 534 722 501 722 501 c 1
 724 498 l 1
 715 462 711 439 709 401 c 1
 691 400 l 1
 660 462 608 490 540 490 c 0
 479 490 401 444 401 292 c 0
 401 182 443.9 88 550 88 c 0
 620 88 671 104 724 163 c 1
 741 135 l 1
 690 68 608 34 536 34 c 0
 374 34 292 144 292 286 c 0
 292 439 409 534 551 534 c 0
EndSplineSet
Refer: 415 -1 N 1 0 0 1 0 0 2
EndChar

StartChar: D
Encoding: 68 68 27
Width: 1100
GlyphClass: 2
Flags: MW
LayerCount: 3
Fore
SplineSet
413 109 m 2
 413 85 421 79 495 79 c 0
 600 79 671 102 671 254 c 0
 671 369 638 487 476 487 c 0
 439 487 413 483 413 457 c 2
 413 109 l 2
365 524 m 0
 420 524 450 527 504 527 c 0
 648 527 780 411 780 272 c 0
 780 87 624 39 518 39 c 0
 441 39 425 41 365 41 c 0
 339 41 310 38 310 38 c 1
 309 41 l 1
 315 81 317 134 317 191 c 2
 317 374 l 2
 317 431 315 482 309 524 c 1
 311 527 l 1
 311 527 339 524 365 524 c 0
EndSplineSet
Refer: 415 -1 N 1 0 0 1 0 0 2
EndChar

StartChar: E
Encoding: 69 69 28
Width: 1100
GlyphClass: 2
Flags: MW
LayerCount: 3
Fore
SplineSet
453 191 m 2
 453 178 454 106 459 88 c 1
 560 88 671 97 671 97 c 1
 672 94 l 1
 672 88 671 75 671 68 c 0
 671 60 672 51 672 41 c 1
 671 38 l 1
 659 40 642 41 626 41 c 2
 405 41 l 2
 379 41 350 38 350 38 c 1
 350 41 l 1
 356 81 357 134 357 191 c 2
 357 374 l 2
 357 431 356 482 350 524 c 1
 351 527 l 1
 351 527 380 524 405 524 c 0
 618 524 l 2
 634 524 651 525 663 527 c 1
 665 524 l 1
 664 514 663 504 663 498 c 0
 663 491 664 481 665 475 c 1
 663 472 l 1
 663 472 560 481 459 481 c 1
 454 463 453 387 453 374 c 2
 453 316 l 1
 542 316 576 320 620 323 c 1
 623 321 l 1
 621 314 620 304 620 297 c 0
 620 290 621 279 623 272 c 1
 620 270 l 1
 569 275 489 278 453 278 c 1
 453 191 l 2
EndSplineSet
Refer: 415 -1 N 1 0 0 1 0 0 2
EndChar

StartChar: F
Encoding: 70 70 29
Width: 1100
GlyphClass: 2
Flags: MW
LayerCount: 3
Fore
SplineSet
627 524 m 2
 645 524 662 525 674 527 c 1
 676 524 l 1
 675 514 674 504 674 498 c 0
 674 491 675 481 676 475 c 1
 674 472 l 1
 674 472 570 481 470 481 c 1
 465 463 464 387 464 374 c 2
 464 316 l 1
 552 316 587 320 631 323 c 1
 634 321 l 1
 632 314 631 304 631 297 c 0
 631 290 632 279 634 272 c 1
 631 270 l 1
 580 275 500 278 464 278 c 1
 464 191 l 2
 464 134 466 83 472 41 c 1
 470 38 l 1
 470 38 442 41 416 41 c 0
 390 41 361 38 361 38 c 1
 360 41 l 1
 366 81 368 134 368 191 c 2
 368 374 l 2
 368 431 366 482 360 524 c 1
 362 527 l 1
 362 527 390 524 416 524 c 2
 627 524 l 2
EndSplineSet
Refer: 415 -1 N 1 0 0 1 0 0 2
EndChar

StartChar: G
Encoding: 71 71 30
Width: 1100
GlyphClass: 2
Flags: MW
LayerCount: 3
Fore
SplineSet
664 129 m 2
 664 185 663 228 657 271 c 1
 658 274 l 1
 658 274 687 271 712 271 c 0
 738 271 767 274 767 274 c 1
 767 271 l 1
 761 232 760 200 760 144 c 0
 760 119 763 109 767 103 c 1
 767 101 l 1
 717 59 635 34 547 34 c 0
 373.9 34 294 152 294 281 c 0
 294 446 402 534 561 534 c 0
 652 534 740 501 740 501 c 1
 742 498 l 1
 733 462 729 439 727 401 c 1
 708 400 l 1
 677 462 618 493 550 493 c 0
 458 493 402 418 402 286 c 0
 402 187 431 75 564 75 c 0
 605 75 639 79 664 103 c 1
 664 129 l 2
EndSplineSet
Refer: 415 -1 N 1 0 0 1 0 0 2
EndChar

StartChar: grave
Encoding: 96 96 31
Width: 1100
GlyphClass: 2
Flags: MW
LayerCount: 3
Fore
SplineSet
532 513 m 1
 584 421 l 2
 587 415 590 407 590 401 c 0
 590 394 584 389 578 389 c 0
 572 389 564 393 551 404 c 2
 461 483 l 1
 462 491 l 1
 468 498 490 515 517 515 c 0
 521 515 529 514 532 513 c 1
EndSplineSet
Refer: 415 -1 N 1 0 0 1 0 0 2
Colour: ff00ff
EndChar

StartChar: ograve
Encoding: 242 242 32
Width: 1100
GlyphClass: 2
Flags: MW
LayerCount: 3
Fore
SplineSet
544.7 588.1 m 1
 601.8 486.9 l 2
 605.1 480.3 608.5 471.5 608.5 464.9 c 0
 608.5 457.2 601.8 451.7 595.2 451.7 c 0
 588.6 451.7 579.8 456.1 565.5 468.2 c 2
 466.5 555.1 l 1
 467.7 563.9 l 1
 474.3 571.6 498.5 590.3 528.2 590.3 c 0
 532.6 590.3 541.4 589.2 544.7 588.1 c 1
363 197 m 0
 363 300 428 373 536 373 c 0
 662 373 705 282 705 204 c 0
 705 124 649 36 534 36 c 0
 422 36 363 115 363 197 c 0
530 335 m 0
 466 335 459 280 459 215 c 0
 459 157 466 74 544 74 c 0
 578 74 609 98 609 184 c 0
 609 288 594 335 530 335 c 0
EndSplineSet
Refer: 415 -1 N 1 0 0 1 0 0 2
Colour: ff00ff
EndChar

StartChar: oacute
Encoding: 243 243 33
Width: 1100
GlyphClass: 2
Flags: MW
LayerCount: 3
Fore
SplineSet
533.3 578.2 m 1
 535.5 579.3 542.1 580.5 546.5 580.5 c 0
 571.8 580.5 587.2 568.4 593.8 560.7 c 1
 601.5 540.8 l 1
 502.5 451.8 l 2
 491.5 441.9 479.4 438.5 471.7 438.5 c 0
 465.1 438.5 458.5 445.2 458.5 450.7 c 0
 458.5 455.1 459.6 462.8 465.1 470.5 c 2
 533.3 578.2 l 1
363 197 m 0
 363 300 428 373 536 373 c 0
 662 373 705 282 705 204 c 0
 705 124 649 36 534 36 c 0
 422 36 363 115 363 197 c 0
530 335 m 0
 466 335 459 280 459 215 c 0
 459 157 466 74 544 74 c 0
 578 74 609 98 609 184 c 0
 609 288 594 335 530 335 c 0
EndSplineSet
Refer: 415 -1 N 1 0 0 1 0 0 2
Colour: ff00ff
EndChar

StartChar: ocircumflex
Encoding: 244 244 34
Width: 1100
GlyphClass: 2
Flags: MW
LayerCount: 3
Fore
SplineSet
548 548.8 m 1
 573.3 508.1 604 471.8 634.8 437.7 c 1
 614 422.2 l 1
 578.8 444.2 554.6 460.8 526 490.5 c 1
 495.2 458.6 472 444.2 439 422.2 c 1
 418.2 437.7 l 1
 447.9 471.8 480.8 509.2 505 548.8 c 1
 548 548.8 l 1
363 197 m 0
 363 300 428 373 536 373 c 0
 662 373 705 282 705 204 c 0
 705 124 649 36 534 36 c 0
 422 36 363 115 363 197 c 0
530 335 m 0
 466 335 459 280 459 215 c 0
 459 157 466 74 544 74 c 0
 578 74 609 98 609 184 c 0
 609 288 594 335 530 335 c 0
EndSplineSet
Refer: 415 -1 N 1 0 0 1 0 0 2
Colour: ff00ff
EndChar

StartChar: otilde
Encoding: 245 245 35
Width: 1100
GlyphClass: 2
Flags: MW
LayerCount: 3
Fore
SplineSet
578 486.1 m 0
 596.7 486.1 606.7 492.7 618.8 533.4 c 1
 641.8 525.7 l 1
 630.8 469.6 606.6 436.6 567 436.6 c 0
 547.2 436.6 529.7 448.7 513.2 460.8 c 0
 496.7 471.8 480.2 482.8 464.8 482.8 c 0
 442.8 482.8 434 470.7 425.2 438.8 c 1
 403.2 445.4 l 1
 415.3 501.5 435 532.3 471.3 532.3 c 0
 497.7 532.3 516.5 519.1 533 505.9 c 0
 547.3 494.9 561.5 486.1 578 486.1 c 0
363 197 m 0
 363 300 428 373 536 373 c 0
 662 373 705 282 705 204 c 0
 705 124 649 36 534 36 c 0
 422 36 363 115 363 197 c 0
530 335 m 0
 466 335 459 280 459 215 c 0
 459 157 466 74 544 74 c 0
 578 74 609 98 609 184 c 0
 609 288 594 335 530 335 c 0
EndSplineSet
Refer: 415 -1 N 1 0 0 1 0 0 2
Colour: ff00ff
EndChar

StartChar: odieresis
Encoding: 246 246 36
Width: 1100
GlyphClass: 2
Flags: MW
LayerCount: 3
Fore
SplineSet
562.8 471 m 0
 562.8 496.3 582.6 516.1 606.8 516.1 c 0
 631 516.1 651.9 496.3 651.9 471 c 0
 651.9 446.8 631 427 606.8 427 c 0
 582.6 427 562.8 446.8 562.8 471 c 0
413.2 471 m 0
 413.2 496.3 434 516.1 458.2 516.1 c 0
 482.4 516.1 502.3 496.3 502.3 471 c 0
 502.3 446.8 482.4 427 458.2 427 c 0
 434 427 413.2 446.8 413.2 471 c 0
363 197 m 0
 363 300 428 373 536 373 c 0
 662 373 705 282 705 204 c 0
 705 124 649 36 534 36 c 0
 422 36 363 115 363 197 c 0
530 335 m 0
 466 335 459 280 459 215 c 0
 459 157 466 74 544 74 c 0
 578 74 609 98 609 184 c 0
 609 288 594 335 530 335 c 0
EndSplineSet
Refer: 415 -1 N 1 0 0 1 0 0 2
Colour: ff00ff
EndChar

StartChar: divide
Encoding: 247 247 37
Width: 527
GlyphClass: 2
Flags: MW
LayerCount: 3
Fore
SplineSet
227 326 m 1
 227 329 l 1
 235 349 247 362 270 371 c 1
 272 371 l 1
 294 363 306 351 314 329 c 1
 314 326 l 1
 305 301 294 291 272 285 c 1
 270 285 l 1
 245 291 234 301 227 326 c 1
227 102 m 1
 227 105 l 1
 235 125 247 137 270 146 c 1
 272 146 l 1
 294 138 306 127 314 105 c 1
 314 102 l 1
 305 77 294 66 272 60 c 1
 270 60 l 1
 245 66 234 77 227 102 c 1
427 248 m 1
 427 191 l 1
 100 191 l 1
 100 248 l 1
 427 248 l 1
EndSplineSet
Refer: 415 -1 N 1 0 0 1 -240 0 2
Colour: ff00ff
EndChar

StartChar: ugrave
Encoding: 249 249 38
Width: 1100
GlyphClass: 2
Flags: MW
LayerCount: 3
Fore
SplineSet
510.7 588.1 m 1
 567.8 486.9 l 2
 571.1 480.3 574.5 471.5 574.5 464.9 c 0
 574.5 457.2 567.8 451.7 561.2 451.7 c 0
 554.6 451.7 545.8 456.1 531.5 468.2 c 2
 432.5 555.1 l 1
 433.7 563.9 l 1
 440.3 571.6 464.5 590.3 494.2 590.3 c 0
 498.6 590.3 507.4 589.2 510.7 588.1 c 1
588 91 m 1
 546 46 523 35 492 35 c 0
 418 35 375 86 375 137 c 2
 375 230 l 2
 375 286 374 322 368 364 c 1
 369 367 l 1
 369 367 394 364 419 364 c 0
 446 364 470 367 470 367 c 1
 471 364 l 1
 464 325 464 286 464 230 c 2
 464 162 l 2
 464 95 489 83 512 83 c 0
 545 83 569 116 588 139 c 1
 588 230 l 2
 588 286 587 322 581 364 c 1
 582 367 l 1
 582 367 607 364 632 364 c 0
 659 364 683 367 683 367 c 1
 684 364 l 1
 677 325 677 286 677 230 c 2
 677 187 l 2
 677 130 683 75 689 43 c 1
 688 40 l 1
 678 42 650 43 640 43 c 0
 629 43 610 42 600 40 c 0
 596 40 593 41 593 43 c 2
 590 91 l 1
 588 91 l 1
EndSplineSet
Refer: 415 -1 N 1 0 0 1 0 0 2
Colour: ff00ff
EndChar

StartChar: uacute
Encoding: 250 250 39
Width: 1100
GlyphClass: 2
Flags: MW
LayerCount: 3
Fore
SplineSet
543.3 578.2 m 1
 545.5 579.3 552.1 580.5 556.5 580.5 c 0
 581.8 580.5 597.2 568.4 603.8 560.7 c 1
 611.5 540.8 l 1
 512.5 451.8 l 2
 501.5 441.9 489.4 438.5 481.7 438.5 c 0
 475.1 438.5 468.5 445.2 468.5 450.7 c 0
 468.5 455.1 469.6 462.8 475.1 470.5 c 2
 543.3 578.2 l 1
588 91 m 1
 546 46 523 35 492 35 c 0
 418 35 375 86 375 137 c 2
 375 230 l 2
 375 286 374 322 368 364 c 1
 369 367 l 1
 369 367 394 364 419 364 c 0
 446 364 470 367 470 367 c 1
 471 364 l 1
 464 325 464 286 464 230 c 2
 464 162 l 2
 464 95 489 83 512 83 c 0
 545 83 569 116 588 139 c 1
 588 230 l 2
 588 286 587 322 581 364 c 1
 582 367 l 1
 582 367 607 364 632 364 c 0
 659 364 683 367 683 367 c 1
 684 364 l 1
 677 325 677 286 677 230 c 2
 677 187 l 2
 677 130 683 75 689 43 c 1
 688 40 l 1
 678 42 650 43 640 43 c 0
 629 43 610 42 600 40 c 0
 596 40 593 41 593 43 c 2
 590 91 l 1
 588 91 l 1
EndSplineSet
Refer: 415 -1 N 1 0 0 1 0 0 2
Colour: ff00ff
EndChar

StartChar: ucircumflex
Encoding: 251 251 40
Width: 1100
GlyphClass: 2
Flags: MW
LayerCount: 3
Fore
SplineSet
543 548.8 m 1
 568.3 508.1 599 471.8 629.8 437.7 c 1
 609 422.2 l 1
 573.8 444.2 549.6 460.8 521 490.5 c 1
 490.2 458.6 467 444.2 434 422.2 c 1
 413.2 437.7 l 1
 442.9 471.8 475.8 509.2 500 548.8 c 1
 543 548.8 l 1
588 91 m 1
 546 46 523 35 492 35 c 0
 418 35 375 86 375 137 c 2
 375 230 l 2
 375 286 374 322 368 364 c 1
 369 367 l 1
 369 367 394 364 419 364 c 0
 446 364 470 367 470 367 c 1
 471 364 l 1
 464 325 464 286 464 230 c 2
 464 162 l 2
 464 95 489 83 512 83 c 0
 545 83 569 116 588 139 c 1
 588 230 l 2
 588 286 587 322 581 364 c 1
 582 367 l 1
 582 367 607 364 632 364 c 0
 659 364 683 367 683 367 c 1
 684 364 l 1
 677 325 677 286 677 230 c 2
 677 187 l 2
 677 130 683 75 689 43 c 1
 688 40 l 1
 678 42 650 43 640 43 c 0
 629 43 610 42 600 40 c 0
 596 40 593 41 593 43 c 2
 590 91 l 1
 588 91 l 1
EndSplineSet
Refer: 415 -1 N 1 0 0 1 0 0 2
Colour: ff00ff
EndChar

StartChar: ebreve
Encoding: 277 277 41
Width: 1100
GlyphClass: 2
Flags: MW
LayerCount: 3
Fore
SplineSet
453 550 m 1
 454 510 486 480 534 480 c 0
 569 480 612 502 614 550 c 1
 638 529 l 1
 630 450 572 422 534 422 c 0
 473 422 433 468 428 529 c 1
 453 550 l 1
463 259 m 1
 570 259 l 2
 578 259 581 263 581 269 c 0
 581 323 562 336 534 336 c 0
 517 336 474 326 463 259 c 1
666 129 m 1
 677 123 682 114 682 103 c 1
 653 64 597 36 543 36 c 0
 431 36 366 107 366 193 c 0
 366 307 463 373 534 373 c 0
 634 373 676 302 676 239 c 0
 676 230 671 226 663 226 c 2
 461 226 l 1
 461 120 515 87 558 87 c 0
 599 87 640 101 666 129 c 1
EndSplineSet
Refer: 415 -1 N 1 0 0 1 0 0 2
Colour: ff00ff
EndChar

StartChar: Edotaccent
Encoding: 278 278 42
Width: 1100
GlyphClass: 2
Flags: MW
LayerCount: 3
Fore
SplineSet
461 626 m 0
 461 654 484 678 513 678 c 0
 542 678 565 654 565 626 c 0
 565 598 542 574 513 574 c 0
 484 574 461 598 461 626 c 0
453 191 m 2
 453 178 454 106 459 88 c 1
 560 88 671 97 671 97 c 1
 672 94 l 1
 672 88 671 75 671 68 c 0
 671 60 672 51 672 41 c 1
 671 38 l 1
 659 40 642 41 626 41 c 2
 405 41 l 2
 379 41 350 38 350 38 c 1
 350 41 l 1
 356 81 357 134 357 191 c 2
 357 374 l 2
 357 431 356 482 350 524 c 1
 351 527 l 1
 351 527 380 524 405 524 c 0
 618 524 l 2
 634 524 651 525 663 527 c 1
 665 524 l 1
 664 514 663 504 663 498 c 0
 663 491 664 481 665 475 c 1
 663 472 l 1
 663 472 560 481 459 481 c 1
 454 463 453 387 453 374 c 2
 453 316 l 1
 542 316 576 320 620 323 c 1
 623 321 l 1
 621 314 620 304 620 297 c 0
 620 290 621 279 623 272 c 1
 620 270 l 1
 569 275 489 278 453 278 c 1
 453 191 l 2
EndSplineSet
Refer: 415 -1 N 1 0 0 1 0 0 2
Colour: ff00ff
EndChar

StartChar: edotaccent
Encoding: 279 279 43
Width: 1100
GlyphClass: 2
Flags: MW
LayerCount: 3
Fore
SplineSet
474 489 m 0
 474 517 497 541 526 541 c 0
 555 541 578 517 578 489 c 0
 578 461 555 437 526 437 c 0
 497 437 474 461 474 489 c 0
463 259 m 1
 570 259 l 2
 578 259 581 263 581 269 c 0
 581 323 562 336 534 336 c 0
 517 336 474 326 463 259 c 1
666 129 m 1
 677 123 682 114 682 103 c 1
 653 64 597 36 543 36 c 0
 431 36 366 107 366 193 c 0
 366 307 463 373 534 373 c 0
 634 373 676 302 676 239 c 0
 676 230 671 226 663 226 c 2
 461 226 l 1
 461 120 515 87 558 87 c 0
 599 87 640 101 666 129 c 1
EndSplineSet
Refer: 415 -1 N 1 0 0 1 0 0 2
Colour: ff00ff
EndChar

StartChar: Eogonek
Encoding: 280 280 44
Width: 1100
GlyphClass: 2
Flags: MW
LayerCount: 3
Fore
SplineSet
543 -125 m 0
 504 -125 474 -102 474 -61 c 0
 474 -26.8 502.4 15.5 545.5 41 c 1
 405 41 l 2
 379 41 350 38 350 38 c 1
 350 41 l 1
 356 81 357 134 357 191 c 2
 357 374 l 2
 357 431 356 482 350 524 c 1
 351 527 l 1
 351 527 380 524 405 524 c 0
 618 524 l 2
 634 524 651 525 663 527 c 1
 665 524 l 1
 664 514 663 504 663 498 c 0
 663 491 664 481 665 475 c 1
 663 472 l 1
 663 472 560 481 459 481 c 1
 454 463 453 387 453 374 c 2
 453 316 l 1
 542 316 576 320 620 323 c 1
 623 321 l 1
 621 314 620 304 620 297 c 0
 620 290 621 279 623 272 c 1
 620 270 l 1
 569 275 489 278 453 278 c 1
 453 191 l 2
 453 178 454 106 459 88 c 1
 560 88 671 97 671 97 c 1
 672 94 l 1
 672 88 671 75 671 68 c 0
 671 60 672 51 672 41 c 1
 671 38 l 1
 659 40 642 41 626 41 c 2
 600.6 41 l 1
 551.2 30.7 518 -17.4 518 -52 c 0
 518 -76 535 -96 562 -96 c 0
 584 -96 600 -85 614 -69 c 1
 626 -75 l 1
 608 -110 570 -125 543 -125 c 0
EndSplineSet
Refer: 415 -1 N 1 0 0 1 0 0 2
Colour: ff80cc
EndChar

StartChar: eogonek
Encoding: 281 281 45
Width: 1100
GlyphClass: 2
Flags: MW
LayerCount: 3
Fore
SplineSet
463 259 m 1
 570 259 l 2
 578 259 581 263 581 269 c 0
 581 323 562 336 534 336 c 0
 517 336 474 326 463 259 c 1
666 129 m 1
 677 123 682 114 682 103 c 1
 670.2 87.1 653.9 73.1 635.1 62 c 1
 606.7 32.1 591 8 591 -25 c 0
 591 -41 603 -57 622 -57 c 0
 635 -57 651 -46 662 -35 c 1
 664 -36 l 1
 675 -48 l 1
 655 -73 626 -90 601 -90 c 0
 564 -90 541 -68 541 -33 c 0
 541 -7 554 17.2 572.7 38.7 c 1
 562.8 36.9 552.9 36 543 36 c 0
 431 36 366 107 366 193 c 0
 366 307 463 373 534 373 c 0
 634 373 676 302 676 239 c 0
 676 230 671 226 663 226 c 2
 461 226 l 1
 461 120 515 87 558 87 c 0
 599 87 640 101 666 129 c 1
EndSplineSet
Refer: 415 -1 N 1 0 0 1 0 0 2
Colour: ff00ff
EndChar

StartChar: Ecaron
Encoding: 282 282 46
Width: 1100
GlyphClass: 2
Flags: MW
LayerCount: 3
Fore
SplineSet
495 568 m 1
 473 596 447 619 419 640 c 1
 431 655 l 1
 461 642 486 628 511 609 c 1
 539 628 563 643 591 655 c 1
 603 640 l 1
 574 618 550 594 527 568 c 1
 495 568 l 1
453 191 m 2
 453 178 454 106 459 88 c 1
 560 88 671 97 671 97 c 1
 672 94 l 1
 672 88 671 75 671 68 c 0
 671 60 672 51 672 41 c 1
 671 38 l 1
 659 40 642 41 626 41 c 2
 405 41 l 2
 379 41 350 38 350 38 c 1
 350 41 l 1
 356 81 357 134 357 191 c 2
 357 374 l 2
 357 431 356 482 350 524 c 1
 351 527 l 1
 351 527 380 524 405 524 c 0
 618 524 l 2
 634 524 651 525 663 527 c 1
 665 524 l 1
 664 514 663 504 663 498 c 0
 663 491 664 481 665 475 c 1
 663 472 l 1
 663 472 560 481 459 481 c 1
 454 463 453 387 453 374 c 2
 453 316 l 1
 542 316 576 320 620 323 c 1
 623 321 l 1
 621 314 620 304 620 297 c 0
 620 290 621 279 623 272 c 1
 620 270 l 1
 569 275 489 278 453 278 c 1
 453 191 l 2
EndSplineSet
Refer: 415 -1 N 1 0 0 1 0 0 2
Colour: ff00ff
EndChar

StartChar: ecaron
Encoding: 283 283 47
Width: 1100
GlyphClass: 2
Flags: MW
LayerCount: 3
Fore
SplineSet
545 431 m 1
 507 431 l 1
 485 466 457 498 431 528 c 1
 449 542 l 1
 478 521 497 507 525 479 c 1
 551 506 573 521 602 542 c 1
 620 528 l 1
 593 498 566 467 545 431 c 1
463 259 m 1
 570 259 l 2
 578 259 581 263 581 269 c 0
 581 323 562 336 534 336 c 0
 517 336 474 326 463 259 c 1
666 129 m 1
 677 123 682 114 682 103 c 1
 653 64 597 36 543 36 c 0
 431 36 366 107 366 193 c 0
 366 307 463 373 534 373 c 0
 634 373 676 302 676 239 c 0
 676 230 671 226 663 226 c 2
 461 226 l 1
 461 120 515 87 558 87 c 0
 599 87 640 101 666 129 c 1
EndSplineSet
Refer: 415 -1 N 1 0 0 1 0 0 2
Colour: ff00ff
EndChar

StartChar: Gcircumflex
Encoding: 284 284 48
Width: 1100
GlyphClass: 2
Flags: MW
LayerCount: 3
Fore
SplineSet
557.5 663.3 m 1
 581.7 633.6 611.5 607.2 641.2 585.2 c 1
 628 567.7 l 1
 595 583.1 567.5 598.4 540 619.3 c 1
 509.2 597.3 482.8 582 452 567.7 c 1
 439.8 585.2 l 1
 470.6 608.3 495.9 634.7 522.3 663.3 c 1
 557.5 663.3 l 1
664 129 m 2
 664 185 663 228 657 271 c 1
 658 274 l 1
 658 274 687 271 712 271 c 0
 738 271 767 274 767 274 c 1
 767 271 l 1
 761 232 760 200 760 144 c 0
 760 119 763 109 767 103 c 1
 767 101 l 1
 717 59 635 34 547 34 c 0
 373.9 34 294 152 294 281 c 0
 294 446 402 534 561 534 c 0
 652 534 740 501 740 501 c 1
 742 498 l 1
 733 462 729 439 727 401 c 1
 708 400 l 1
 677 462 618 493 550 493 c 0
 458 493 402 418 402 286 c 0
 402 187 431 75 564 75 c 0
 605 75 639 79 664 103 c 1
 664 129 l 2
EndSplineSet
Refer: 415 -1 N 1 0 0 1 0 0 2
Colour: ff00ff
EndChar

StartChar: gcircumflex
Encoding: 285 285 49
Width: 1100
GlyphClass: 2
Flags: MW
LayerCount: 3
Fore
SplineSet
536 563.8 m 1
 561.3 523.1 592 486.8 622.8 452.7 c 1
 602 437.2 l 1
 566.8 459.2 542.6 475.8 514 505.5 c 1
 483.2 473.6 460 459.2 427 437.2 c 1
 406.2 452.7 l 1
 435.9 486.8 468.8 524.2 493 563.8 c 1
 536 563.8 l 1
653 286 m 0
 653 225 605 175 518 175 c 0
 493 175 475 177 460 186 c 0
 458 187 456 188 454 189 c 1
 446 176 442 159 442 144 c 0
 442 111 464 111 485 111 c 0
 489 111 496 112 507 113 c 0
 524 115 541 117 554 117 c 0
 623 117 707 95 707 18 c 0
 707 -63 586 -109 490 -109 c 0
 435 -109 360 -89 360 -24 c 0
 360 9 388 43 426 67 c 1
 404 73 384 93 384 125 c 0
 384 150 395 184 415 202 c 1
 411 207 l 1
 394 220 380 247 380 285 c 0
 380 349 438 399 519 399 c 0
 535 399 550 396 563 392 c 1
 619 395 661 403 697 406 c 1
 700 404 l 1
 698 397 697 387 697 380 c 0
 697 373 698 365 700 358 c 1
 697 356 l 1
 669.9 358.6 636.1 361.2 612.6 363.2 c 1
 636.3 345.8 653 315 653 286 c 0
573 279 m 0
 573 335 556 366 511 366 c 0
 472 366 461 330 461 296 c 0
 461 248 471 207 520 207 c 0
 547 207 573 225 573 279 c 0
476.7 54 m 1
 449.7 32.5 441 15.6 441 -9 c 0
 441 -60 485 -78 511 -78 c 0
 575 -78 630 -45 630 1 c 0
 630 53 570 57 528 57 c 0
 518.1 57 498.4 54.1 476.7 54 c 1
477.4 54.5 m 1
 479 54.8 480.5 55 478 55 c 0
 477.8 54.8 477.6 54.7 477.4 54.5 c 1
EndSplineSet
Refer: 415 -1 N 1 0 0 1 0 0 2
Colour: ff00ff
EndChar

StartChar: Gbreve
Encoding: 286 286 50
Width: 1100
GlyphClass: 2
Flags: MW
LayerCount: 3
Fore
SplineSet
650 675 m 1
 639 606 598 580 549 580 c 0
 494 580 450 613 447 675 c 1
 472 675 l 1
 478 646 509 629 549 629 c 0
 586 629 621 646 626 675 c 1
 650 675 l 1
664 129 m 2
 664 185 663 228 657 271 c 1
 658 274 l 1
 658 274 687 271 712 271 c 0
 738 271 767 274 767 274 c 1
 767 271 l 1
 761 232 760 200 760 144 c 0
 760 119 763 109 767 103 c 1
 767 101 l 1
 717 59 635 34 547 34 c 0
 373.9 34 294 152 294 281 c 0
 294 446 402 534 561 534 c 0
 652 534 740 501 740 501 c 1
 742 498 l 1
 733 462 729 439 727 401 c 1
 708 400 l 1
 677 462 618 493 550 493 c 0
 458 493 402 418 402 286 c 0
 402 187 431 75 564 75 c 0
 605 75 639 79 664 103 c 1
 664 129 l 2
EndSplineSet
Refer: 415 -1 N 1 0 0 1 0 0 2
Colour: ff00ff
EndChar

StartChar: gbreve
Encoding: 287 287 51
Width: 1100
GlyphClass: 2
Flags: MW
LayerCount: 3
Fore
SplineSet
427 567 m 1
 428 527 460 497 508 497 c 0
 543 497 586 519 588 567 c 1
 612 546 l 1
 604 467 546 439 508 439 c 0
 447 439 407 485 402 546 c 1
 427 567 l 1
653 286 m 0
 653 225 605 175 518 175 c 0
 493 175 475 177 460 186 c 0
 458 187 456 188 454 189 c 1
 446 176 442 159 442 144 c 0
 442 111 464 111 485 111 c 0
 489 111 496 112 507 113 c 0
 524 115 541 117 554 117 c 0
 623 117 707 95 707 18 c 0
 707 -63 586 -109 490 -109 c 0
 435 -109 360 -89 360 -24 c 0
 360 9 388 43 426 67 c 1
 404 73 384 93 384 125 c 0
 384 150 395 184 415 202 c 1
 411 207 l 1
 394 220 380 247 380 285 c 0
 380 349 438 399 519 399 c 0
 535 399 550 396 563 392 c 1
 619 395 661 403 697 406 c 1
 700 404 l 1
 698 397 697 387 697 380 c 0
 697 373 698 365 700 358 c 1
 697 356 l 1
 669.9 358.6 636.1 361.2 612.6 363.2 c 1
 636.3 345.8 653 315 653 286 c 0
573 279 m 0
 573 335 556 366 511 366 c 0
 472 366 461 330 461 296 c 0
 461 248 471 207 520 207 c 0
 547 207 573 225 573 279 c 0
476.7 54 m 1
 449.7 32.5 441 15.6 441 -9 c 0
 441 -60 485 -78 511 -78 c 0
 575 -78 630 -45 630 1 c 0
 630 53 570 57 528 57 c 0
 518.1 57 498.4 54.1 476.7 54 c 1
477.4 54.5 m 1
 479 54.8 480.5 55 478 55 c 0
 477.8 54.8 477.6 54.7 477.4 54.5 c 1
EndSplineSet
Refer: 415 -1 N 1 0 0 1 0 0 2
Colour: ff00ff
EndChar

StartChar: Gdotaccent
Encoding: 288 288 52
Width: 1100
GlyphClass: 2
Flags: MW
LayerCount: 3
Fore
SplineSet
493 626 m 0
 493 654 516 678 545 678 c 0
 574 678 597 654 597 626 c 0
 597 598 574 574 545 574 c 0
 516 574 493 598 493 626 c 0
664 129 m 2
 664 185 663 228 657 271 c 1
 658 274 l 1
 658 274 687 271 712 271 c 0
 738 271 767 274 767 274 c 1
 767 271 l 1
 761 232 760 200 760 144 c 0
 760 119 763 109 767 103 c 1
 767 101 l 1
 717 59 635 34 547 34 c 0
 373.9 34 294 152 294 281 c 0
 294 446 402 534 561 534 c 0
 652 534 740 501 740 501 c 1
 742 498 l 1
 733 462 729 439 727 401 c 1
 708 400 l 1
 677 462 618 493 550 493 c 0
 458 493 402 418 402 286 c 0
 402 187 431 75 564 75 c 0
 605 75 639 79 664 103 c 1
 664 129 l 2
EndSplineSet
Refer: 415 -1 N 1 0 0 1 0 0 2
Colour: ff00ff
EndChar

StartChar: gdotaccent
Encoding: 289 289 53
Width: 1100
GlyphClass: 2
Flags: MW
LayerCount: 3
Fore
SplineSet
461 508 m 0
 461 536 484 560 513 560 c 0
 542 560 565 536 565 508 c 0
 565 480 542 456 513 456 c 0
 484 456 461 480 461 508 c 0
653 286 m 0
 653 225 605 175 518 175 c 0
 493 175 475 177 460 186 c 0
 458 187 456 188 454 189 c 1
 446 176 442 159 442 144 c 0
 442 111 464 111 485 111 c 0
 489 111 496 112 507 113 c 0
 524 115 541 117 554 117 c 0
 623 117 707 95 707 18 c 0
 707 -63 586 -109 490 -109 c 0
 435 -109 360 -89 360 -24 c 0
 360 9 388 43 426 67 c 1
 404 73 384 93 384 125 c 0
 384 150 395 184 415 202 c 1
 411 207 l 1
 394 220 380 247 380 285 c 0
 380 349 438 399 519 399 c 0
 535 399 550 396 563 392 c 1
 619 395 661 403 697 406 c 1
 700 404 l 1
 698 397 697 387 697 380 c 0
 697 373 698 365 700 358 c 1
 697 356 l 1
 669.9 358.6 636.1 361.2 612.6 363.2 c 1
 636.3 345.8 653 315 653 286 c 0
573 279 m 0
 573 335 556 366 511 366 c 0
 472 366 461 330 461 296 c 0
 461 248 471 207 520 207 c 0
 547 207 573 225 573 279 c 0
476.7 54 m 1
 449.7 32.5 441 15.6 441 -9 c 0
 441 -60 485 -78 511 -78 c 0
 575 -78 630 -45 630 1 c 0
 630 53 570 57 528 57 c 0
 518.1 57 498.4 54.1 476.7 54 c 1
477.4 54.5 m 1
 479 54.8 480.5 55 478 55 c 0
 477.8 54.8 477.6 54.7 477.4 54.5 c 1
EndSplineSet
Refer: 415 -1 N 1 0 0 1 0 0 2
Colour: ff00ff
EndChar

StartChar: uni0122
Encoding: 290 290 54
Width: 1100
GlyphClass: 2
Flags: MW
LayerCount: 3
Fore
SplineSet
550 10 m 0
 580 10 597 -18 597 -44 c 0
 597 -64 584 -121 517 -124 c 1
 514 -111 l 1
 571 -100 573 -56 573 -52 c 0
 573 -49 572 -46 571 -44 c 1
 563 -49 556 -51 550 -51 c 0
 519 -51 512 -32 512 -20 c 0
 512 -8 523 10 550 10 c 0
664 129 m 2
 664 185 663 228 657 271 c 1
 658 274 l 1
 658 274 687 271 712 271 c 0
 738 271 767 274 767 274 c 1
 767 271 l 1
 761 232 760 200 760 144 c 0
 760 119 763 109 767 103 c 1
 767 101 l 1
 717 59 635 34 547 34 c 0
 373.9 34 294 152 294 281 c 0
 294 446 402 534 561 534 c 0
 652 534 740 501 740 501 c 1
 742 498 l 1
 733 462 729 439 727 401 c 1
 708 400 l 1
 677 462 618 493 550 493 c 0
 458 493 402 418 402 286 c 0
 402 187 431 75 564 75 c 0
 605 75 639 79 664 103 c 1
 664 129 l 2
EndSplineSet
Refer: 415 -1 N 1 0 0 1 0 0 2
Colour: ff00ff
EndChar

StartChar: uni0123
Encoding: 291 291 55
Width: 1100
GlyphClass: 2
Flags: MW
LayerCount: 3
Fore
SplineSet
526 442 m 0
 496 442 479 470 479 497 c 0
 479 517 492 574 559 577 c 1
 562 564 l 1
 505 553 503 508 503 505 c 0
 503 502 504 499 504 497 c 1
 513 502 520 504 526 504 c 0
 556 504 564 485 564 472 c 0
 564 460 552 442 526 442 c 0
653 286 m 0
 653 225 605 175 518 175 c 0
 493 175 475 177 460 186 c 0
 458 187 456 188 454 189 c 1
 446 176 442 159 442 144 c 0
 442 111 464 111 485 111 c 0
 489 111 496 112 507 113 c 0
 524 115 541 117 554 117 c 0
 623 117 707 95 707 18 c 0
 707 -63 586 -109 490 -109 c 0
 435 -109 360 -89 360 -24 c 0
 360 9 388 43 426 67 c 1
 404 73 384 93 384 125 c 0
 384 150 395 184 415 202 c 1
 411 207 l 1
 394 220 380 247 380 285 c 0
 380 349 438 399 519 399 c 0
 535 399 550 396 563 392 c 1
 619 395 661 403 697 406 c 1
 700 404 l 1
 698 397 697 387 697 380 c 0
 697 373 698 365 700 358 c 1
 697 356 l 1
 669.9 358.6 636.1 361.2 612.6 363.2 c 1
 636.3 345.8 653 315 653 286 c 0
573 279 m 0
 573 335 556 366 511 366 c 0
 472 366 461 330 461 296 c 0
 461 248 471 207 520 207 c 0
 547 207 573 225 573 279 c 0
476.7 54 m 1
 449.7 32.5 441 15.6 441 -9 c 0
 441 -60 485 -78 511 -78 c 0
 575 -78 630 -45 630 1 c 0
 630 53 570 57 528 57 c 0
 518.1 57 498.4 54.1 476.7 54 c 1
477.4 54.5 m 1
 479 54.8 480.5 55 478 55 c 0
 477.8 54.8 477.6 54.7 477.4 54.5 c 1
EndSplineSet
Refer: 415 -1 N 1 0 0 1 0 0 2
Colour: ff00ff
EndChar

StartChar: Hcircumflex
Encoding: 292 292 56
Width: 1100
GlyphClass: 2
Flags: MW
LayerCount: 3
Fore
SplineSet
634 374 m 2
 634 431 632 482 626 524 c 1
 628 527 l 1
 628 527 656 524 682 524 c 0
 708 524 737 527 737 527 c 1
 738 524 l 1
 732 485 730 431 730 374 c 2
 730 191 l 2
 730 134 732 83 738 41 c 1
 736 38 l 1
 736 38 708 41 682 41 c 0
 656 41 627 38 627 38 c 1
 626 41 l 1
 632 81 634 134 634 191 c 2
 634 274 l 1
 424 274 l 1
 424 191 l 2
 424 134 426 83 432 41 c 1
 430 38 l 1
 430 38 402 41 376 41 c 0
 350 41 321 38 321 38 c 1
 320 41 l 1
 326 81 328 134 328 191 c 2
 328 374 l 2
 328 431 326 482 320 524 c 1
 322 527 l 1
 322 527 350 524 376 524 c 0
 402 524 431 527 431 527 c 1
 432 524 l 1
 426 485 424 431 424 374 c 2
 424 313 l 1
 634 313 l 1
 634 374 l 2
544.5 652.3 m 1
 568.7 622.6 598.5 596.2 628.2 574.2 c 1
 615 556.7 l 1
 582 572.1 554.5 587.4 527 608.3 c 1
 496.2 586.3 469.8 571 439 556.7 c 1
 426.8 574.2 l 1
 457.6 597.3 482.9 623.7 509.3 652.3 c 1
 544.5 652.3 l 1
EndSplineSet
Refer: 415 -1 N 1 0 0 1 0 0 2
Colour: ff00ff
EndChar

StartChar: hcircumflex
Encoding: 293 293 57
Width: 1100
GlyphClass: 2
Flags: MW
LayerCount: 3
Fore
SplineSet
553.5 704.3 m 1
 577.7 674.6 607.5 648.2 637.2 626.2 c 1
 624 608.7 l 1
 591 624.1 563.5 639.4 536 660.3 c 1
 505.2 638.3 478.8 623 448 608.7 c 1
 435.8 626.2 l 1
 466.6 649.3 491.9 675.7 518.3 704.3 c 1
 553.5 704.3 l 1
594 180 m 2
 594 252 l 2
 594 313 580 325 538 325 c 0
 516 325 499 305 463 270 c 1
 463 180 l 2
 463 123 464 84 470 41 c 1
 469 39 l 1
 469 39 444 41 419 41 c 0
 392 41 368 39 368 39 c 1
 367 41 l 1
 373 81 374 124 374 180 c 2
 374 406 l 2
 374 463 373 515 367 547 c 1
 368 550 l 1
 399 552 445 561 464 568 c 1
 468 568 470 566 470 561 c 0
 465 515 463 476 463 421 c 2
 463 315 l 1
 513 365 542 374 572 374 c 0
 626 374 683 335 683 258 c 2
 683 180 l 2
 683 123 684 84 690 41 c 1
 689 39 l 1
 689 39 664 41 638 41 c 0
 612 41 587 39 587 39 c 1
 587 41 l 1
 593 81 594 124 594 180 c 2
EndSplineSet
Refer: 415 -1 N 1 0 0 1 0 0 2
Colour: ff00ff
EndChar

StartChar: Hbar
Encoding: 294 294 58
Width: 1100
GlyphClass: 2
Flags: MW
LayerCount: 3
Fore
SplineSet
634 274 m 1
 424 274 l 1
 424 191 l 2
 424 134 426 83 432 41 c 1
 430 38 l 1
 430 38 402 41 376 41 c 0
 350 41 321 38 321 38 c 1
 320 41 l 1
 326 81 328 134 328 191 c 2
 328 374 l 2
 328 406.5 327.4 437 325.7 465 c 1
 298 465 l 1
 298 490 l 1
 323.9 490 l 1
 322.9 501.9 321.5 513.2 320 524 c 1
 322 527 l 1
 322 527 350 524 376 524 c 0
 402 524 431 527 431 527 c 1
 432 524 l 1
 430.4 513.6 429.1 502.2 428 490 c 1
 629.9 490 l 1
 628.9 501.9 627.5 513.2 626 524 c 1
 628 527 l 1
 628 527 656 524 682 524 c 0
 708 524 737 527 737 527 c 1
 738 524 l 1
 736.4 513.6 735.1 502.2 734 490 c 1
 759 490 l 1
 759 465 l 1
 732.2 465 l 1
 730.6 437 730 406 730 374 c 2
 730 191 l 2
 730 134 732 83 738 41 c 1
 736 38 l 1
 736 38 708 41 682 41 c 0
 656 41 627 38 627 38 c 1
 626 41 l 1
 632 81 634 134 634 191 c 2
 634 274 l 1
634 313 m 1
 634 374 l 2
 634 406.5 633.4 437 631.7 465 c 1
 426.2 465 l 1
 424.6 437 424 406 424 374 c 2
 424 313 l 1
 634 313 l 1
EndSplineSet
Refer: 415 -1 N 1 0 0 1 0 0 2
Colour: ff80cc
EndChar

StartChar: hbar
Encoding: 295 295 59
Width: 1100
GlyphClass: 2
Flags: MW
LayerCount: 3
Fore
SplineSet
594 180 m 2
 594 252 l 2
 594 313 580 325 538 325 c 0
 516 325 499 305 463 270 c 1
 463 180 l 2
 463 123 464 84 470 41 c 1
 469 39 l 1
 469 39 444 41 419 41 c 0
 392 41 368 39 368 39 c 1
 367 41 l 1
 373 81 374 124 374 180 c 2
 374 406 l 2
 374 433.8 373.7 460.3 372.8 484 c 1
 319 484 l 1
 319 514 l 1
 371.1 514 l 1
 370.1 526.5 368.8 537.6 367 547 c 1
 368 550 l 1
 399 552 445 561 464 568 c 1
 468 568 470 566 470 561 c 0
 468.2 544.8 466.9 529.5 465.8 514 c 1
 555 514 l 1
 555 484 l 1
 464.2 484 l 1
 463.4 464.7 463 444.3 463 421 c 2
 463 315 l 1
 513 365 542 374 572 374 c 0
 626 374 683 335 683 258 c 2
 683 180 l 2
 683 123 684 84 690 41 c 1
 689 39 l 1
 689 39 664 41 638 41 c 0
 612 41 587 39 587 39 c 1
 587 41 l 1
 593 81 594 124 594 180 c 2
EndSplineSet
Refer: 415 -1 N 1 0 0 1 0 0 2
Colour: ff80cc
EndChar

StartChar: Itilde
Encoding: 296 296 60
Width: 1100
GlyphClass: 2
Flags: MW
LayerCount: 3
Fore
SplineSet
582 614.1 m 0
 600.7 614.1 610.7 620.7 622.8 661.4 c 1
 645.8 653.7 l 1
 634.8 597.6 610.6 564.6 571 564.6 c 0
 551.2 564.6 533.7 576.7 517.2 588.8 c 0
 500.7 599.8 484.2 610.8 468.8 610.8 c 0
 446.8 610.8 438 598.7 429.2 566.8 c 1
 407.2 573.4 l 1
 419.3 629.5 439 660.3 475.3 660.3 c 0
 501.7 660.3 520.5 647.1 537 633.9 c 0
 551.3 622.9 565.5 614.1 582 614.1 c 0
482 374 m 2
 482 431 480 482 474 524 c 1
 476 527 l 1
 476 527 504 524 530 524 c 0
 556 524 585 527 585 527 c 1
 586 524 l 1
 580 485 578 431 578 374 c 2
 578 191 l 2
 578 134 580 83 586 41 c 1
 584 38 l 1
 584 38 556 41 530 41 c 0
 504 41 475 38 475 38 c 1
 474 41 l 1
 480 81 482 134 482 191 c 2
 482 374 l 2
EndSplineSet
Refer: 415 -1 N 1 0 0 1 0 0 2
Colour: ff00ff
EndChar

StartChar: itilde
Encoding: 297 297 61
Width: 1120
GlyphClass: 2
Flags: MW
LayerCount: 3
Fore
SplineSet
591.1 486.1 m 0
 607.9 486.1 616.9 492.7 627.8 533.4 c 1
 648.6 525.7 l 1
 638.7 469.6 616.8 436.6 581.2 436.6 c 0
 563.4 436.6 547.5 448.7 532.7 460.8 c 0
 517.9 471.8 503.1 482.8 489.2 482.8 c 0
 469.4 482.8 461.4 470.7 453.5 438.8 c 1
 433.7 445.4 l 1
 444.6 501.5 462.4 532.3 495.1 532.3 c 0
 518.9 532.3 535.8 519.1 550.6 505.9 c 0
 563.5 494.9 576.3 486.1 591.1 486.1 c 0
489 214 m 2
 489 270 487 313 481 346 c 1
 483 348 l 1
 513 350 559 359 578 367 c 1
 582 367 585 365 585 359 c 0
 579 313 577 282 577 226 c 2
 577 173 l 2
 577 115 579 80 585 37 c 1
 583 35 l 1
 583 35 558 37 533 37 c 0
 507 37 482 35 482 35 c 1
 481 37 l 1
 487 78 489 116 489 173 c 2
 489 214 l 2
EndSplineSet
Refer: 415 -1 N 1 0 0 1 0 0 2
Colour: ff00ff
EndChar

StartChar: Imacron
Encoding: 298 298 62
Width: 1100
GlyphClass: 2
Flags: MW
LayerCount: 3
Fore
SplineSet
659 619 m 2
 454 619 l 2
 445 619 442 626 442 633 c 0
 442 642 451 657 461 657 c 2
 668 657 l 2
 676 657 679 650 679 644 c 0
 679 634 670 619 659 619 c 2
482 374 m 2
 482 431 480 482 474 524 c 1
 476 527 l 1
 476 527 504 524 530 524 c 0
 556 524 585 527 585 527 c 1
 586 524 l 1
 580 485 578 431 578 374 c 2
 578 191 l 2
 578 134 580 83 586 41 c 1
 584 38 l 1
 584 38 556 41 530 41 c 0
 504 41 475 38 475 38 c 1
 474 41 l 1
 480 81 482 134 482 191 c 2
 482 374 l 2
EndSplineSet
Refer: 415 -1 N 1 0 0 1 0 0 2
Colour: ff00ff
EndChar

StartChar: imacron
Encoding: 299 299 63
Width: 1120
GlyphClass: 2
Flags: MW
LayerCount: 3
Fore
SplineSet
631.9 473 m 2
 447.4 473 l 2
 439.3 473 436.6 480 436.6 487 c 0
 436.6 496 444.7 511 453.7 511 c 2
 640 511 l 2
 647.2 511 649.9 504 649.9 498 c 0
 649.9 488 641.8 473 631.9 473 c 2
489 214 m 2
 489 270 487 313 481 346 c 1
 483 348 l 1
 513 350 559 359 578 367 c 1
 582 367 585 365 585 359 c 0
 579 313 577 282 577 226 c 2
 577 173 l 2
 577 115 579 80 585 37 c 1
 583 35 l 1
 583 35 558 37 533 37 c 0
 507 37 482 35 482 35 c 1
 481 37 l 1
 487 78 489 116 489 173 c 2
 489 214 l 2
EndSplineSet
Refer: 415 -1 N 1 0 0 1 0 0 2
Colour: ff00ff
EndChar

StartChar: Ibreve
Encoding: 300 300 64
Width: 1100
GlyphClass: 2
Flags: MW
LayerCount: 3
Fore
SplineSet
642 674 m 1
 631 605 590 579 541 579 c 0
 486 579 442 612 439 674 c 1
 464 674 l 1
 470 645 501 628 541 628 c 0
 578 628 613 645 618 674 c 1
 642 674 l 1
482 374 m 2
 482 431 480 482 474 524 c 1
 476 527 l 1
 476 527 504 524 530 524 c 0
 556 524 585 527 585 527 c 1
 586 524 l 1
 580 485 578 431 578 374 c 2
 578 191 l 2
 578 134 580 83 586 41 c 1
 584 38 l 1
 584 38 556 41 530 41 c 0
 504 41 475 38 475 38 c 1
 474 41 l 1
 480 81 482 134 482 191 c 2
 482 374 l 2
EndSplineSet
Refer: 415 -1 N 1 0 0 1 0 0 2
Colour: ff00ff
EndChar

StartChar: ibreve
Encoding: 301 301 65
Width: 1120
GlyphClass: 2
Flags: MW
LayerCount: 3
Fore
SplineSet
475.1 571 m 1
 476 531 504.8 501 548 501 c 0
 579.5 501 618.2 523 620 571 c 1
 641.6 550 l 1
 634.4 471 582.2 443 548 443 c 0
 493.1 443 457.1 489 452.6 550 c 1
 475.1 571 l 1
489 214 m 2
 489 270 487 313 481 346 c 1
 483 348 l 1
 513 350 559 359 578 367 c 1
 582 367 585 365 585 359 c 0
 579 313 577 282 577 226 c 2
 577 173 l 2
 577 115 579 80 585 37 c 1
 583 35 l 1
 583 35 558 37 533 37 c 0
 507 37 482 35 482 35 c 1
 481 37 l 1
 487 78 489 116 489 173 c 2
 489 214 l 2
EndSplineSet
Refer: 415 -1 N 1 0 0 1 0 0 2
Colour: ff00ff
EndChar

StartChar: Iogonek
Encoding: 302 302 66
Width: 1100
GlyphClass: 2
Flags: MW
LayerCount: 3
Fore
SplineSet
477 -126 m 0
 437 -126 407 -103 407 -62 c 0
 407 -28.6 434.5 12.4 476.2 38.1 c 1
 475.4 38 475 38 475 38 c 2
 474 41 l 1
 480 81 482 134 482 191 c 2
 482 374 l 2
 482 431 480 482 474 524 c 1
 476 527 l 1
 476 527 504 524 530 524 c 0
 556 524 585 527 585 527 c 1
 586 524 l 1
 580 485 578 431 578 374 c 2
 578 191 l 2
 578 134 580 83 586 41 c 1
 584 38 l 1
 584 38 562.3 40.3 539.4 40.9 c 1
 487.3 32.8 452 -17.2 452 -52 c 0
 452 -76 469 -97 496 -97 c 0
 518 -97 534 -86 548 -70 c 1
 560 -76 l 1
 542 -111 504 -126 477 -126 c 0
EndSplineSet
Refer: 415 -1 N 1 0 0 1 0 0 2
Colour: ff80cc
EndChar

StartChar: iogonek
Encoding: 303 303 67
Width: 1100
GlyphClass: 2
Flags: MW
LayerCount: 3
Fore
SplineSet
467 -112 m 0
 427 -112 398 -89 398 -48 c 0
 398 -12.9 427.5 30.9 472.7 56.1 c 1
 477.4 92.7 479 128.6 479 180 c 2
 479 221 l 2
 479 277 477 320 471 353 c 1
 473 355 l 1
 503 357 549 366 568 374 c 1
 572 374 575 372 575 366 c 0
 569 320 567 289 567 233 c 2
 567 180 l 2
 567 122 569 87 575 44 c 1
 573 42 l 1
 573 42 548 44 523 44 c 0
 513.4 44 504 43.7 495.9 43.4 c 1
 463 24.6 443 -11.4 443 -39 c 0
 443 -63 459 -83 486 -83 c 0
 508 -83 524 -72 538 -56 c 1
 550 -62 l 1
 532 -97 494 -112 467 -112 c 0
473 518 m 0
 473 546 496 570 525 570 c 0
 554 570 577 546 577 518 c 0
 577 490 554 466 525 466 c 0
 496 466 473 490 473 518 c 0
EndSplineSet
Refer: 415 -1 N 1 0 0 1 0 0 2
Colour: ff80cc
EndChar

StartChar: Idotaccent
Encoding: 304 304 68
Width: 1100
GlyphClass: 2
Flags: MW
LayerCount: 3
Fore
SplineSet
481 623 m 0
 481 651 504 675 533 675 c 0
 562 675 585 651 585 623 c 0
 585 595 562 571 533 571 c 0
 504 571 481 595 481 623 c 0
482 374 m 2
 482 431 480 482 474 524 c 1
 476 527 l 1
 476 527 504 524 530 524 c 0
 556 524 585 527 585 527 c 1
 586 524 l 1
 580 485 578 431 578 374 c 2
 578 191 l 2
 578 134 580 83 586 41 c 1
 584 38 l 1
 584 38 556 41 530 41 c 0
 504 41 475 38 475 38 c 1
 474 41 l 1
 480 81 482 134 482 191 c 2
 482 374 l 2
EndSplineSet
Refer: 415 -1 N 1 0 0 1 0 0 2
Colour: ff00ff
EndChar

StartChar: ampersand
Encoding: 38 38 70
Width: 1100
GlyphClass: 2
Flags: MW
LayerCount: 3
Fore
SplineSet
494 434 m 0
 494 418 505 385 525 357 c 1
 557 382 589 407 589 437 c 0
 589 477 573 501 544 501 c 0
 519 501 494 481 494 434 c 0
588 133 m 1
 552 182 498 256 481 283 c 1
 425 247 409 216 409 169 c 0
 409 103 445 65 483 65 c 0
 524 65 553 83 588 133 c 1
630 198 m 1
 674 267 689 320 694 365 c 1
 702 363 727 363 735 363 c 0
 742 363 770 363 777 365 c 1
 748 315 676 184 660 159 c 1
 681 125 704 80 727 80 c 0
 748 80 762 87 780 123 c 1
 804 106 l 1
 769 42 741 34 708 34 c 0
 672 34 651 46 615 100 c 1
 581 63 543 34 477 34 c 0
 387 34 321 68 321 154 c 0
 321 209 351 249 465 315 c 1
 435 361 419 397 419 432 c 0
 419 477 466 532 552 532 c 0
 621 532 659 501 659 444 c 0
 659 406 612 357 548 321 c 1
 560 299 584 262 630 198 c 1
EndSplineSet
Refer: 415 -1 N 1 0 0 1 0 0 2
EndChar

StartChar: quotesingle
Encoding: 39 39 71
Width: 1100
GlyphClass: 2
Flags: MW
LayerCount: 3
Fore
SplineSet
520 399 m 1
 509 402 l 1
 509 402 485 522 485 526 c 0
 485 544 501 567 534 567 c 0
 565 567 567 553 567 539 c 0
 567 528 540 404 540 404 c 1
 520 399 l 1
EndSplineSet
Refer: 415 -1 N 1 0 0 1 0 0 2
EndChar

StartChar: comma
Encoding: 44 44 72
Width: 1100
GlyphClass: 2
Flags: MW
LayerCount: 3
Fore
SplineSet
489 32 m 1
 489 36 l 1
 497 57 509 70 533 80 c 1
 537 80 l 1
 566 69 590 47 590 -6 c 0
 590 -64 540 -105 491 -114 c 1
 485 -109 484 -102 487 -94 c 1
 530 -82 557 -46 557 -28 c 0
 557 -8 544 -6 533 -6 c 1
 508 -1 496 5 489 32 c 1
EndSplineSet
Refer: 415 -1 N 1 0 0 1 0 0 2
EndChar

StartChar: hyphen
Encoding: 45 45 73
Width: 1100
GlyphClass: 2
Flags: MW
LayerCount: 3
Fore
SplineSet
627 232 m 2
 428 232 l 2
 421 232 416 238 416 245 c 0
 416 257 426 286 435 286 c 2
 637 286 l 2
 644 286 648 276 648 270 c 0
 648 261 637 232 627 232 c 2
EndSplineSet
Refer: 415 -1 N 1 0 0 1 0 0 2
EndChar

StartChar: period
Encoding: 46 46 74
Width: 1100
GlyphClass: 2
Flags: MW
LayerCount: 3
Fore
SplineSet
460 79 m 1
 460 82 l 1
 469 104 481 117 506 127 c 1
 508 127 l 1
 532 118 545 106 554 82 c 1
 554 79 l 1
 544 52 532 40 508 34 c 1
 506 34 l 1
 479 40 468 52 460 79 c 1
EndSplineSet
Refer: 415 -1 N 1 0 0 1 0 0 2
EndChar

StartChar: zero
Encoding: 48 48 75
Width: 1100
GlyphClass: 2
Flags: MW
LayerCount: 3
Fore
SplineSet
528 464 m 0
 494 464 457 436 457 252 c 0
 457 187 465 66 526 66 c 0
 589 66 596 205 596 281 c 0
 596 362 591 464 528 464 c 0
525 34 m 0
 419 34 369 140 369 260 c 0
 369 407 448 496 528 496 c 0
 608 496 684 413 684 267 c 0
 684 92 600 34 525 34 c 0
EndSplineSet
Refer: 415 -1 N 1 0 0 1 0 0 2
EndChar

StartChar: I
Encoding: 73 73 76
Width: 1100
GlyphClass: 2
Flags: MW
LayerCount: 3
Fore
SplineSet
482 374 m 2
 482 431 480 482 474 524 c 1
 476 527 l 1
 476 527 504 524 530 524 c 0
 556 524 585 527 585 527 c 1
 586 524 l 1
 580 485 578 431 578 374 c 2
 578 191 l 2
 578 134 580 83 586 41 c 1
 584 38 l 1
 584 38 556 41 530 41 c 0
 504 41 475 38 475 38 c 1
 474 41 l 1
 480 81 482 134 482 191 c 2
 482 374 l 2
EndSplineSet
Refer: 415 -1 N 1 0 0 1 0 0 2
EndChar

StartChar: J
Encoding: 74 74 77
Width: 1100
GlyphClass: 2
Flags: MW
LayerCount: 3
Fore
SplineSet
513 221 m 2
 513 374 l 2
 513 430 512 481 506 524 c 1
 507 526 l 1
 507 526 536 524 561 524 c 0
 588 524 616 526 616 526 c 1
 617 524 l 1
 611 484 609 430 609 374 c 2
 609 237 l 2
 609 151 609 119 562 71 c 0
 529 37.3 484 34 444 34 c 0
 426.8 34 385.1 39 371 46 c 1
 370 49 l 1
 378 63 382 98 385 118 c 1
 407 119 l 1
 415 104 429 85 450 85 c 0
 510 85 513 155 513 221 c 2
EndSplineSet
Refer: 415 -1 N 1 0 0 1 0 0 2
EndChar

StartChar: K
Encoding: 75 75 78
Width: 1100
GlyphClass: 2
Flags: MW
LayerCount: 3
Fore
SplineSet
342 375 m 2
 342 432 340 483 334 525 c 1
 336 528 l 1
 336 528 364 525 390 525 c 0
 416 525 445 528 445 528 c 1
 446 525 l 1
 440 486 438 432 438 375 c 2
 438 304.7 l 1
 441.3 305.8 445 307.5 448 310 c 0
 514 368 580 451 647 528 c 1
 656 525 696 525 706 525 c 0
 717 525 747 525 759 528 c 1
 693 470 582 366 531 307 c 1
 531 306 l 1
 767 39 l 1
 752 42 719 42 705 42 c 0
 692 42 649 42 636 39 c 1
 569 123 476 249 446 279 c 0
 443.9 280.7 440.9 282 438 283 c 1
 438 192 l 2
 438 135 440 84 446 42 c 1
 444 39 l 1
 444 39 416 42 390 42 c 0
 364 42 335 39 335 39 c 1
 334 42 l 1
 340 82 342 135 342 192 c 2
 342 375 l 2
EndSplineSet
Refer: 415 -1 N 1 0 0 1 0 0 2
Colour: ff80cc
EndChar

StartChar: L
Encoding: 76 76 79
Width: 1100
GlyphClass: 2
Flags: MW
LayerCount: 3
Fore
SplineSet
490 191 m 2
 490 178 491 106 496 88 c 1
 597 88 708 97 708 97 c 1
 709 94 l 1
 708 88 708 77 708 69 c 0
 708 62 708 51 709 41 c 1
 708 38 l 1
 696 40 678 41 663 41 c 2
 442 41 l 2
 417 41 387 38 387 38 c 1
 387 41 l 1
 393 81 394 134 394 191 c 2
 394 374 l 2
 394 431 392 482 386 524 c 1
 387 527 l 1
 387 527 417 524 442 524 c 0
 468 524 497 527 497 527 c 1
 498 524 l 1
 492 485 490 431 490 374 c 2
 490 191 l 2
EndSplineSet
Refer: 415 -1 N 1 0 0 1 0 0 2
EndChar

StartChar: M
Encoding: 77 77 80
Width: 1100
GlyphClass: 2
Flags: MW
LayerCount: 3
Fore
SplineSet
309 538 m 1
 361 538 l 1
 419.3 416.9 479.3 300.9 544.1 180.5 c 1
 737 538 l 1
 785 538 l 1
 806 356 820 202 843 39 c 1
 832 41 809 41 798 41 c 0
 787 41 765 41 753 39 c 1
 743 163 734 278 719 396 c 1
 656 280 593 166 538 41 c 1
 508 41 l 1
 458.4 147.9 399.7 259.4 343.1 370.2 c 1
 329.6 256.2 313.9 111.6 313 39 c 1
 305 41 285 41 277 41 c 0
 268 41 249 41 241 39 c 1
 265 197 294 387 309 538 c 1
EndSplineSet
Refer: 415 -1 N 1 0 0 1 0 0 2
EndChar

StartChar: N
Encoding: 78 78 81
Width: 1100
GlyphClass: 2
Flags: MW
LayerCount: 3
Fore
SplineSet
322 375 m 2
 322 431 320 482 314 525 c 1
 316 527 l 1
 316 527 344 525 369 525 c 0
 372 525 394 526 394 526 c 1
 652 193 l 2
 684 151 691 133 691 174 c 2
 691 375 l 2
 691 431 689 482 683 525 c 1
 670 527 l 1
 670 527 700 525 718 525 c 0
 735 525 738 527 738 527 c 1
 754 525 l 1
 748 485 746 431 746 375 c 2
 746 57 l 2
 746 42 726 33 716 33 c 0
 679 33 661 39 625 85 c 2
 390 382 l 2
 362 418 376 416 376 370 c 2
 376 191 l 2
 376 135 378 83 384 41 c 1
 382 39 l 1
 382 39 367 41 349 41 c 0
 332 41 315 39 315 39 c 1
 314 41 l 1
 320 81 322 135 322 191 c 2
 322 375 l 2
EndSplineSet
Refer: 415 -1 N 1 0 0 1 0 0 2
EndChar

StartChar: O
Encoding: 79 79 82
Width: 1100
GlyphClass: 2
Flags: MW
LayerCount: 3
Fore
SplineSet
528 494 m 0
 456 494 392 444 392 286 c 0
 392 142 463 74 553 74 c 0
 639 74 687 139 687 274 c 0
 687 430 634 494 528 494 c 0
796 288 m 0
 796 138 699 34 538 34 c 0
 390 34 283 132 283 274 c 0
 283 420 385 534 538 534 c 0
 697 534 796 436 796 288 c 0
EndSplineSet
Refer: 415 -1 N 1 0 0 1 0 0 2
EndChar

StartChar: P
Encoding: 80 80 83
Width: 1100
GlyphClass: 2
Flags: MW
LayerCount: 3
Fore
SplineSet
463 465 m 2
 463 292 l 1
 473 287 496 285 515 285 c 0
 588 285 606 311 606 392 c 0
 606 487 575 498 523 498 c 0
 469 498 463 487 463 465 c 2
369 375 m 2
 369 431 367 482 361 525 c 1
 363 527 l 1
 363 527 390 525 415 525 c 0
 438 525 509 530 528 530 c 0
 667 530 711 450 711 406 c 0
 711 342 655 253 519 253 c 0
 492 253 480 255 463 260 c 1
 463 191 l 2
 463 135 465 84 471 41 c 1
 469 39 l 1
 469 39 441 41 415 41 c 0
 389 41 362 39 362 39 c 1
 361 41 l 1
 367 82 369 135 369 191 c 2
 369 375 l 2
EndSplineSet
Refer: 415 -1 N 1 0 0 1 0 0 2
EndChar

StartChar: Q
Encoding: 81 81 84
Width: 1100
GlyphClass: 2
Flags: MW
LayerCount: 3
Fore
SplineSet
508 495 m 0
 436 495 372 444 372 286 c 0
 372 142 443 73 533 73 c 0
 619 73 667 139 667 274 c 0
 667 430 614 495 508 495 c 0
684.3 85.5 m 1
 726.1 60.7 782.8 24.7 856 0 c 1
 856 -5 l 1
 829 -19 800 -43 785 -54 c 1
 705.7 -8.7 708.4 4.5 622.3 51.3 c 1
 591.7 40 556.8 34 518 34 c 0
 370 34 266 132 266 274 c 0
 266 420 365 534 518 534 c 0
 677 534 773 436 773 288 c 0
 773 201.5 741.7 130.3 684.3 85.5 c 1
EndSplineSet
Refer: 415 -1 N 1 0 0 1 0 0 2
Colour: ff80cc
EndChar

StartChar: R
Encoding: 82 82 85
Width: 1100
GlyphClass: 2
Flags: MW
LayerCount: 3
Fore
SplineSet
516 494 m 0
 463 494 454 483 454 461 c 2
 454 295 l 1
 490 295 l 2
 563 295 597 306 597 400 c 0
 597 488 562 494 516 494 c 0
454 256 m 1
 454 191 l 2
 454 135 455 84 461 41 c 1
 460 39 l 1
 460 39 431 41 406 41 c 0
 380 41 351 39 351 39 c 1
 350 41 l 1
 356 82 358 135 358 191 c 2
 358 375 l 2
 358 431 356 482 350 525 c 1
 352 527 l 1
 352 527 380 525 406 525 c 0
 428 525 497 530 515 530 c 0
 608 530 701 504 701 400 c 0
 701 321.3 650.6 285.4 588.1 269.1 c 1
 636.1 206.2 716.7 84.1 755 41 c 1
 753 39 l 1
 738 41 713 41 698 41 c 0
 684 41 662 41 647 39 c 1
 639 64 605 119 567 173 c 0
 546.5 202.4 524.5 232.5 502.3 257.1 c 1
 485.7 256.2 469.4 256 454 256 c 1
EndSplineSet
Refer: 415 -1 N 1 0 0 1 0 0 2
EndChar

StartChar: S
Encoding: 83 83 86
Width: 1100
GlyphClass: 2
Flags: MW
LayerCount: 3
Fore
SplineSet
511 72 m 0
 567 72 597 101 597 154 c 0
 597 214 577 237 526 255 c 0
 451 281 350 321 350 405 c 0
 350 484 430 534 524 534 c 0
 624 534 672 501 672 501 c 1
 673 498 l 1
 665 476 659 439 656 412 c 1
 649 412 l 1
 626 458 576 498 517 498 c 0
 472 498 445 471 445 425 c 0
 445 363 504 340 538 329 c 0
 607 306 703 268 703 180 c 0
 703 104 637 34 505 34 c 0
 404 34 338 67 338 67 c 1
 335 70 l 1
 342 92 349 130 353 157 c 1
 361 158 l 1
 384 112 452 72 511 72 c 0
EndSplineSet
Refer: 415 -1 N 1 0 0 1 0 0 2
EndChar

StartChar: T
Encoding: 84 84 87
Width: 1100
GlyphClass: 2
Flags: MW
LayerCount: 3
Fore
SplineSet
473 368 m 2
 473 380 472 455 467 473 c 1
 366 473 316 464 316 464 c 1
 314 467 l 1
 316 479 316 503 314 524 c 1
 316 527 l 1
 328 525 345 524 360 524 c 2
 682 524 l 2
 697 524 714 525 726 527 c 1
 728 524 l 1
 726 503 726 479 728 467 c 1
 726 464 l 1
 726 464 676 473 575 473 c 1
 570 455 569 380 569 368 c 2
 569 191 l 2
 569 134 570 83 576 41 c 1
 575 38 l 1
 575 38 546 41 521 41 c 0
 495 41 466 38 466 38 c 1
 466 41 l 1
 472 81 473 134 473 191 c 2
 473 368 l 2
EndSplineSet
Refer: 415 -1 N 1 0 0 1 0 0 2
EndChar

StartChar: U
Encoding: 85 85 88
Width: 1100
GlyphClass: 2
Flags: MW
LayerCount: 3
Fore
SplineSet
666 376 m 2
 666 432 664 483 658 526 c 1
 660 528 l 1
 660 528 680 526 698 526 c 0
 715 526 736 528 736 528 c 1
 737 526 l 1
 731 486 730 432 730 376 c 2
 730 263 l 2
 730 123 673 34 524 34 c 0
 446 34 332 66 332 219 c 2
 332 376 l 2
 332 432 331 483 325 526 c 1
 326 528 l 1
 326 528 355 526 380 526 c 0
 406 526 435 528 435 528 c 1
 436 526 l 1
 430 486 428 432 428 376 c 2
 428 244 l 2
 428 187 431 79 540 79 c 0
 655 79 666 166 666 250 c 2
 666 376 l 2
EndSplineSet
Refer: 415 -1 N 1 0 0 1 0 0 2
EndChar

StartChar: V
Encoding: 86 86 89
Width: 1100
GlyphClass: 2
Flags: MW
LayerCount: 3
Fore
SplineSet
549.2 180.8 m 1
 600.9 299.6 663.4 444.8 687 533 c 1
 696 531 732 531 740 531 c 0
 749 531 758 531 767 533 c 1
 691 367 618 206 546 39 c 1
 509 39 l 1
 440 203 341 457 303 533 c 1
 316 531 351 531 364 531 c 0
 377 531 408 531 421 533 c 1
 427.6 508.4 462.2 387.5 549.2 180.8 c 1
EndSplineSet
Refer: 415 -1 N 1 0 0 1 0 0 2
EndChar

StartChar: W
Encoding: 87 87 90
Width: 1100
GlyphClass: 2
Flags: MW
LayerCount: 3
Fore
SplineSet
684.6 178.6 m 1
 723.5 291 765.1 438.4 786 533 c 1
 795 531 816 531 824 531 c 0
 832 531 856 531 865 533 c 1
 802 370 741 201 684 39 c 1
 652 39 l 1
 621 112.7 584 204.6 549.2 290.3 c 1
 432 39 l 1
 396 39 l 1
 327 203 228 457 191 533 c 1
 204 531 234 531 247 531 c 0
 259 531 287 531 300 533 c 1
 306.8 507.6 344.1 378.6 440.5 156.2 c 1
 466.8 216.6 497.1 285.9 524.1 351.8 c 1
 491.6 431.5 463.3 499.5 447 533 c 1
 459 531 490 531 502 531 c 0
 515 531 547 531 559 533 c 1
 566.4 508.9 627.9 319.3 684.6 178.6 c 1
EndSplineSet
Refer: 415 -1 N 1 0 0 1 0 0 2
EndChar

StartChar: X
Encoding: 88 88 91
Width: 1100
GlyphClass: 2
Flags: MW
LayerCount: 3
Fore
SplineSet
775 38 m 1
 760 41 728 41 713 41 c 0
 699 41 663 41 648 38 c 1
 609 106 559 163 513 227 c 1
 471 168 418 104 378 38 c 1
 369 41 354 41 344 41 c 0
 334 41 301 41 291 38 c 1
 479 274 l 1
 282 527 l 1
 295 524 332 524 345 524 c 0
 359 524 391 524 406 527 c 1
 434 482 478 429 537 355 c 1
 572 394 630 466 670 527 c 1
 679 524 712 524 721 524 c 0
 730 524 746 524 755 527 c 1
 570 310 l 1
 775 38 l 1
EndSplineSet
Refer: 415 -1 N 1 0 0 1 0 0 2
EndChar

StartChar: Y
Encoding: 89 89 92
Width: 1100
GlyphClass: 2
Flags: MW
LayerCount: 3
Fore
SplineSet
580.2 254.3 m 1
 580.8 180 582.7 73.9 586 38 c 1
 574 41 542 41 531 41 c 0
 520 41 489 41 477 38 c 1
 481.2 79.8 481.9 174 482 247 c 1
 454 296.1 340 482 310 527 c 1
 322 524 356 524 368 524 c 0
 381 524 414 524 427 527 c 1
 464.8 452.3 506 385.3 550.6 309.5 c 1
 592 374.6 638.1 453.3 674 527 c 1
 682 524 711 524 721 524 c 0
 730 524 742 524 752 527 c 1
 662.2 388.3 610.2 314.2 580.2 254.3 c 1
EndSplineSet
Refer: 415 -1 N 1 0 0 1 0 0 2
EndChar

StartChar: Z
Encoding: 90 90 93
Width: 1100
GlyphClass: 2
Flags: MW
LayerCount: 3
Fore
SplineSet
609 476.8 m 1
 527 475.8 443.8 471.7 340 469 c 1
 338 472 l 1
 339 478 340 489 340 496 c 0
 340 504 339 514 338 525 c 1
 340 527 l 1
 352 526 369 525 386 525 c 2
 644 525 l 2
 668 525 727 528 739 529 c 0
 742 529 744 528 744 525 c 0
 744 516 736 505 721 484 c 2
 440 95 l 1
 440 95 436 92 436 88 c 1
 534 88 736 96 736 96 c 1
 738 94 l 1
 737 88 736 77 736 70 c 0
 736 62 737 52 738 41 c 1
 736 39 l 1
 724 40 710 41 683 41 c 2
 396 41 l 2
 373 41 299 39 299 39 c 1
 296 42 l 1
 305 52 312 64 316 70 c 2
 609 476.8 l 1
EndSplineSet
Refer: 415 -1 N 1 0 0 1 0 0 2
Layer: 2
SplineSet
-16 -134 m 2
 -16 628 l 2
 -16 672 21 707 63 707 c 2
 575 707 l 2
 617 707 654 672 654 628 c 2
 654 -134 l 2
 654 -178 616 -212 575 -212 c 2
 63 -212 l 2
 22 -212 -16 -178 -16 -134 c 2
575 661 m 2
 63 661 l 2
 49 661 30 650 30 628 c 2
 30 -133 l 2
 30 -152 46 -166 63 -166 c 2
 575 -166 l 2
 592 -166 608 -152 608 -133 c 2
 608 628 l 2
 608 650 589 661 575 661 c 2
EndSplineSet
EndChar

StartChar: bracketleft
Encoding: 91 91 94
Width: 1100
GlyphClass: 2
Flags: MW
LayerCount: 3
Fore
SplineSet
442 -80 m 1
 442 591 l 1
 631 591 l 1
 631 562 l 1
 529 554 521 543 521 478 c 2
 521 33 l 2
 521 -32 528 -43 631 -52 c 1
 631 -80 l 1
 442 -80 l 1
EndSplineSet
Refer: 415 -1 N 1 0 0 1 0 0 2
EndChar

StartChar: backslash
Encoding: 92 92 95
Width: 1100
GlyphClass: 2
Flags: MW
LayerCount: 3
Fore
SplineSet
491 565 m 1
 664 5 l 1
 611 5 l 1
 438 565 l 1
 491 565 l 1
EndSplineSet
Refer: 415 -1 N 1 0 0 1 0 0 2
EndChar

StartChar: bracketright
Encoding: 93 93 96
Width: 1100
GlyphClass: 2
Flags: MW
LayerCount: 3
Fore
SplineSet
658 -80 m 1
 469 -80 l 1
 469 -52 l 1
 572 -43 579 -32 579 33 c 2
 579 478 l 2
 579 543 571 554 469 562 c 1
 469 591 l 1
 658 591 l 1
 658 -80 l 1
EndSplineSet
Refer: 415 -1 N 1 0 0 1 0 0 2
Colour: ff00ff
EndChar

StartChar: underscore
Encoding: 95 95 97
Width: 1100
GlyphClass: 2
Flags: MW
LayerCount: 3
Fore
SplineSet
732 21 m 1
 732 -18 l 1
 375 -18 l 1
 375 21 l 1
 732 21 l 1
EndSplineSet
Refer: 415 -1 N 1 0 0 1 0 0 2
EndChar

StartChar: a
Encoding: 97 97 98
Width: 1100
GlyphClass: 2
Flags: MW
LayerCount: 3
Fore
SplineSet
576 208 m 1
 516 192 l 2
 474 181 464 155 464 124 c 0
 464 104 476 81 499 81 c 0
 520 81 544 98 563 113 c 0
 569 118 576 123 576 133 c 2
 576 208 l 1
656 107 m 0
 656 92 665 84 674 84 c 0
 684 84 694 95 701 100 c 1
 703 98 l 1
 711 94 715 86 719 78 c 1
 695 48 664 36 635 36 c 0
 602 36 581 56 575 80 c 1
 574 80 l 1
 536 46 499 36 470 36 c 0
 417 36 374 62 374 117 c 0
 374 168 434 212 506 229 c 2
 572 245 l 2
 574 245 576 248 576 254 c 0
 576 311 557 332 517 332 c 0
 483 332 452 307 432 273 c 1
 415 274 l 1
 395 323 l 1
 398 326 l 1
 416 342 470 373 524 373 c 0
 591 373 659 348 659 251 c 0
 659 243 656 129 656 107 c 0
EndSplineSet
Refer: 415 -1 N 1 0 0 1 0 0 2
EndChar

StartChar: b
Encoding: 98 98 99
Width: 1100
GlyphClass: 2
Flags: MW
LayerCount: 3
Fore
SplineSet
468 113 m 1
 482 94 500 78 524 78 c 0
 595 78 618 128 618 214 c 0
 618 286 592 327 546 327 c 0
 538 327 497 326 468 296 c 1
 468 113 l 1
468 421 m 2
 468 334 l 1
 493 362 525 374 561 374 c 0
 626 374 710 319 710 227 c 0
 710 108 605 38 528 38 c 0
 496 38 474 47 452 66 c 1
 441 56 423 47 416 37 c 1
 409 37 380 38 375 40 c 1
 378 57 379 70 379 99 c 2
 379 407 l 2
 379 464 377 516 372 548 c 1
 373 550 l 1
 403 553 449 562 468 569 c 1
 473 569 475 567 475 562 c 0
 469 516 468 476 468 421 c 2
EndSplineSet
Refer: 415 -1 N 1 0 0 1 0 0 2
EndChar

StartChar: c
Encoding: 99 99 100
Width: 1100
GlyphClass: 2
Flags: MW
LayerCount: 3
Fore
SplineSet
538 332 m 0
 488 332 448 296 448 219 c 0
 448 140 491 85 548 85 c 0
 578 85 607 95 636 131 c 1
 638 131 l 1
 648 125 653 119 654 112 c 1
 635 71 587 36 530 36 c 0
 420 36 356 103 356 200 c 0
 356 306 438 373 539 373 c 0
 576 373 624 361 647 349 c 1
 648 347 l 1
 631 271 l 1
 618 270 l 1
 598 304 567 332 538 332 c 0
EndSplineSet
Refer: 415 -1 N 1 0 0 1 0 0 2
EndChar

StartChar: d
Encoding: 100 100 101
Width: 1100
GlyphClass: 2
Flags: MW
LayerCount: 3
Fore
SplineSet
566 129 m 1
 566 287 l 1
 548 316 537 332 502 332 c 0
 466 332 410 321 410 209 c 0
 410 115 445 83 485 83 c 0
 516 83 538 95 566 129 c 1
566 89 m 1
 539 54 502 33 466 33 c 0
 385 33 318 103 318 195 c 0
 318 297 412 372 510 372 c 0
 525 372 548 365 566 356 c 1
 566 405 l 2
 566 461 564 513 558 545 c 1
 560 548 l 1
 590 550 636 559 655 567 c 1
 660 567 662 564 662 559 c 0
 656 513 654 473 654 418 c 2
 654 187 l 2
 654 131 661 73 667 41 c 1
 665 39 l 1
 656 40 627 41 618 41 c 0
 607 41 588 40 578 39 c 0
 573 39 571 39 571 41 c 2
 567 89 l 1
 566 89 l 1
EndSplineSet
Refer: 415 -1 N 1 0 0 1 0 0 2
EndChar

StartChar: e
Encoding: 101 101 102
Width: 1100
GlyphClass: 2
Flags: MW
LayerCount: 3
Fore
SplineSet
463 259 m 1
 570 259 l 2
 578 259 581 263 581 269 c 0
 581 323 562 336 534 336 c 0
 517 336 474 326 463 259 c 1
666 129 m 1
 677 123 682 114 682 103 c 1
 653 64 597 36 543 36 c 0
 431 36 366 107 366 193 c 0
 366 307 463 373 534 373 c 0
 634 373 676 302 676 239 c 0
 676 230 671 226 663 226 c 2
 461 226 l 1
 461 120 515 87 558 87 c 0
 599 87 640 101 666 129 c 1
EndSplineSet
Refer: 415 -1 N 1 0 0 1 0 0 2
EndChar

StartChar: f
Encoding: 102 102 103
Width: 1100
GlyphClass: 2
Flags: MW
LayerCount: 3
Fore
SplineSet
482 511 m 0
 514 544 569 568 616 568 c 0
 630 568 644 565 650 562 c 1
 650 559 l 1
 642 545 635 504 630 484 c 1
 621 483 l 1
 613 498 600 517 578 517 c 0
 537 517 516 488 516 446 c 0
 516 430 519 393 519 374 c 2
 519 367 l 1
 600 367 l 2
 604 367 606 365 606 362 c 2
 606 337 l 2
 606 330 596 327 589 327 c 2
 519 327 l 1
 519 191 l 2
 519 135 520 84 527 41 c 1
 525 39 l 1
 525 39 501 41 475 41 c 0
 449 41 424 39 424 39 c 1
 423 41 l 1
 430 81 431 135 431 191 c 2
 431 327 l 1
 381 327 l 2
 378 327 378 328 378 331 c 2
 378 352 l 2
 378 358 381 367 395 367 c 2
 431 367 l 1
 431 389 l 2
 431 448 450 477 482 511 c 0
EndSplineSet
Refer: 415 -1 N 1 0 0 1 0 0 2
EndChar

StartChar: g
Encoding: 103 103 104
Width: 1100
GlyphClass: 2
Flags: MW
LayerCount: 3
Fore
SplineSet
653 286 m 0
 653 225 605 175 518 175 c 0
 493 175 475 177 460 186 c 0
 458 187 456 188 454 189 c 1
 446 176 442 159 442 144 c 0
 442 111 464 111 485 111 c 0
 489 111 496 112 507 113 c 0
 524 115 541 117 554 117 c 0
 623 117 707 95 707 18 c 0
 707 -63 586 -109 490 -109 c 0
 435 -109 360 -89 360 -24 c 0
 360 9 388 43 426 67 c 1
 404 73 384 93 384 125 c 0
 384 150 395 184 415 202 c 1
 411 207 l 1
 394 220 380 247 380 285 c 0
 380 349 438 399 519 399 c 0
 535 399 550 396 563 392 c 1
 619 395 661 403 697 406 c 1
 700 404 l 1
 698 397 697 387 697 380 c 0
 697 373 698 365 700 358 c 1
 697 356 l 1
 669.9 358.6 636.1 361.2 612.6 363.2 c 1
 636.3 345.8 653 315 653 286 c 0
573 279 m 0
 573 335 556 366 511 366 c 0
 472 366 461 330 461 296 c 0
 461 248 471 207 520 207 c 0
 547 207 573 225 573 279 c 0
476.7 54 m 1
 449.7 32.5 441 15.6 441 -9 c 0
 441 -60 485 -78 511 -78 c 0
 575 -78 630 -45 630 1 c 0
 630 53 570 57 528 57 c 0
 518.1 57 498.4 54.1 476.7 54 c 1
477.4 54.5 m 1
 479 54.8 480.5 55 478 55 c 0
 477.8 54.8 477.6 54.7 477.4 54.5 c 1
EndSplineSet
Refer: 415 -1 N 1 0 0 1 0 0 2
EndChar

StartChar: h
Encoding: 104 104 105
Width: 1100
GlyphClass: 2
Flags: MW
LayerCount: 3
Fore
SplineSet
594 180 m 2
 594 252 l 2
 594 313 580 325 538 325 c 0
 516 325 499 305 463 270 c 1
 463 180 l 2
 463 123 464 84 470 41 c 1
 469 39 l 1
 469 39 444 41 419 41 c 0
 392 41 368 39 368 39 c 1
 367 41 l 1
 373 81 374 124 374 180 c 2
 374 406 l 2
 374 463 373 515 367 547 c 1
 368 550 l 1
 399 552 445 561 464 568 c 1
 468 568 470 566 470 561 c 0
 465 515 463 476 463 421 c 2
 463 315 l 1
 513 365 542 374 572 374 c 0
 626 374 683 335 683 258 c 2
 683 180 l 2
 683 123 684 84 690 41 c 1
 689 39 l 1
 689 39 664 41 638 41 c 0
 612 41 587 39 587 39 c 1
 587 41 l 1
 593 81 594 124 594 180 c 2
EndSplineSet
Refer: 415 -1 N 1 0 0 1 0 0 2
EndChar

StartChar: i
Encoding: 105 105 106
Width: 1100
GlyphClass: 2
Flags: MW
LayerCount: 3
Fore
SplineSet
473 518 m 0
 473 546 496 570 525 570 c 0
 554 570 577 546 577 518 c 0
 577 490 554 466 525 466 c 0
 496 466 473 490 473 518 c 0
479 221 m 2
 479 277 477 320 471 353 c 1
 473 355 l 1
 503 357 549 366 568 374 c 1
 572 374 575 372 575 366 c 0
 569 320 567 289 567 233 c 2
 567 180 l 2
 567 122 569 87 575 44 c 1
 573 42 l 1
 573 42 548 44 523 44 c 0
 497 44 472 42 472 42 c 1
 471 44 l 1
 477 85 479 123 479 180 c 2
 479 221 l 2
EndSplineSet
Refer: 415 -1 N 1 0 0 1 0 0 2
Colour: ff00ff
EndChar

StartChar: j
Encoding: 106 106 107
Width: 1100
GlyphClass: 2
Flags: MW
LayerCount: 3
Fore
SplineSet
494 528 m 0
 494 556 517 580 546 580 c 0
 575 580 598 556 598 528 c 0
 598 500 575 476 546 476 c 0
 517 476 494 500 494 528 c 0
502 18 m 0
 502 30 500 48 500 130 c 2
 500 234 l 2
 500 291 498 334 492 366 c 1
 494 369 l 1
 524 371 570 380 589 388 c 1
 593 388 596 385 596 380 c 0
 590 334 588 303 588 246 c 2
 588 57 l 2
 588 3 575 -18 550 -54 c 0
 525 -89 473 -102 429 -102 c 0
 416 -102 395 -98 390 -96 c 1
 389 -93 l 1
 397 -80 396 -35 401 -16 c 1
 416 -15 l 1
 424 -29 429 -47 449 -47 c 0
 489 -47 502 -21 502 18 c 0
EndSplineSet
Refer: 415 -1 N 1 0 0 1 0 0 2
Colour: ff00ff
EndChar

StartChar: k
Encoding: 107 107 108
Width: 1100
GlyphClass: 2
Flags: MW
LayerCount: 3
Fore
SplineSet
381 197 m 2
 381 408 l 2
 381 465 379 517 373 549 c 1
 375 552 l 1
 405 554 451 563 470 570 c 1
 475 570 477 568 477 563 c 0
 471 517 469 478 469 422 c 2
 469 228.4 l 1
 475.1 229.5 480.9 232.7 488 239 c 0
 518 262 572 322 605 369 c 1
 625 369 695 369 709 371 c 1
 710 369 l 1
 662 327 600 256 570 225 c 1
 642 139 670 106 726 47 c 1
 725 45 l 1
 718 46 674 47 662 47 c 0
 649 47 613 46 602 45 c 1
 549 119 534 144 486 195 c 0
 480.9 199.4 474.2 201.1 469 201.7 c 1
 469 197 l 2
 469 140 470 90 477 47 c 1
 475 45 l 1
 475 45 451 47 425 47 c 0
 399 47 374 45 374 45 c 1
 373 47 l 1
 380 87 381 141 381 197 c 2
EndSplineSet
Refer: 415 -1 N 1 0 0 1 0 0 2
Colour: ff80cc
EndChar

StartChar: m
Encoding: 109 109 109
Width: 1100
GlyphClass: 2
Flags: MW
LayerCount: 3
Fore
SplineSet
706 180 m 2
 706 257 l 2
 706 307 698 324 658 324 c 0
 628 324 619 311 583 271 c 1
 583 262 583 259 583 248 c 2
 583 180 l 2
 583 122 584 84 591 41 c 1
 589 39 l 1
 589 39 565 41 539 41 c 0
 513 41 488 39 488 39 c 1
 487 41 l 1
 494 82 495 123 495 180 c 2
 495 255 l 2
 495 306 476 324 448 324 c 0
 421 324 409 307 373 270 c 1
 373 180 l 2
 373 122 374 84 381 41 c 1
 379 39 l 1
 379 39 355 41 329 41 c 0
 303 41 278 39 278 39 c 1
 277 41 l 1
 284 82 285 123 285 180 c 2
 285 221 l 2
 285 277 283 321 277 353 c 1
 279 355 l 1
 309 357 353 366 372 374 c 1
 377 374 379 372 379 366 c 1
 375 344 372 314 372 314 c 1
 373 314 l 1
 409 352 428 374 475 374 c 0
 517 374 573 348 578 314 c 1
 621 360 644 374 685 374 c 0
 766 374 794 321 794 254 c 2
 794 180 l 2
 794 122 795 84 802 41 c 1
 800 39 l 1
 800 39 776 41 750 41 c 0
 724 41 699 39 699 39 c 1
 698 41 l 1
 704 82 706 123 706 180 c 2
EndSplineSet
Refer: 415 -1 N 1 0 0 1 0 0 2
EndChar

StartChar: n
Encoding: 110 110 110
Width: 1100
GlyphClass: 2
Flags: MW
LayerCount: 3
Fore
SplineSet
693 180 m 2
 693 122 694 84 700 41 c 1
 699 39 l 1
 699 39 674 41 648 41 c 0
 622 41 598 39 598 39 c 1
 597 41 l 1
 604 82 604 123 604 180 c 2
 604 246 l 2
 604 299 597 324 557 324 c 0
 524 324 512 313 474 268 c 1
 474 180 l 2
 474 122 475 84 481 41 c 1
 480 39 l 1
 480 39 455 41 430 41 c 0
 403 41 378 39 378 39 c 1
 378 41 l 1
 384 82 385 123 385 180 c 2
 385 221 l 2
 385 277 384 321 378 353 c 1
 379 355 l 1
 410 357 453 366 472 374 c 1
 477 374 479 372 479 366 c 1
 475 344 472 312 472 312 c 1
 474 312 l 1
 522 368 541 374 580 374 c 0
 647 374 693 322 693 255 c 2
 693 180 l 2
EndSplineSet
Refer: 415 -1 N 1 0 0 1 0 0 2
EndChar

StartChar: o
Encoding: 111 111 111
Width: 1100
GlyphClass: 2
Flags: MW
LayerCount: 3
Fore
SplineSet
363 197 m 0
 363 300 428 373 536 373 c 0
 662 373 705 282 705 204 c 0
 705 124 649 36 534 36 c 0
 422 36 363 115 363 197 c 0
530 335 m 0
 466 335 459 280 459 215 c 0
 459 157 466 74 544 74 c 0
 578 74 609 98 609 184 c 0
 609 288 594 335 530 335 c 0
EndSplineSet
Refer: 415 -1 N 1 0 0 1 0 0 2
EndChar

StartChar: p
Encoding: 112 112 112
Width: 1100
GlyphClass: 2
Flags: MW
LayerCount: 3
Fore
SplineSet
458 274 m 1
 458 120 l 1
 484 89 508 88 520 88 c 0
 601 88 605 150 605 212 c 0
 605 296 582 336 536 336 c 0
 511 336 475 314 458 274 c 1
370 32 m 2
 370 232 l 2
 370 288 368 332 362 364 c 1
 364 366 l 1
 394 368 439 377 458 385 c 1
 462 385 464 382 464 377 c 0
 460 354 457 326 457 326 c 1
 459 326 l 1
 494 378 532 385 556 385 c 0
 629 385 706 311 706 232 c 0
 706 126 622 48 525 48 c 0
 498 48 478 54 458 64 c 1
 458 32 l 2
 458 -25 459 -76 466 -118 c 1
 464 -121 l 1
 464 -121 440 -118 414 -118 c 0
 388 -118 363 -121 363 -121 c 1
 362 -118 l 1
 369 -78 370 -24 370 32 c 2
EndSplineSet
Refer: 415 -1 N 1 0 0 1 0 0 2
EndChar

StartChar: q
Encoding: 113 113 113
Width: 1100
GlyphClass: 2
Flags: MW
LayerCount: 3
Fore
SplineSet
592 294 m 1
 571 327 548 345 517 345 c 0
 457 345 444 304 444 226 c 0
 444 113 490 96 534 96 c 0
 548 96 572 97 592 112 c 1
 592 294 l 1
592 32 m 2
 592 73 l 1
 580 63 559 48 516 48 c 0
 408 48 343 141 343 211 c 0
 343 310 428 385 520 385 c 0
 556 385 603 377 628 355 c 1
 639 373 l 2
 644 382 658 387 664 387 c 0
 672 387 680 379 680 369 c 2
 680 32 l 2
 680 -25 681 -75 688 -118 c 1
 686 -120 l 1
 686 -120 662 -118 636 -118 c 0
 610 -118 585 -120 585 -120 c 1
 584 -118 l 1
 590 -78 592 -24 592 32 c 2
EndSplineSet
Refer: 415 -1 N 1 0 0 1 0 0 2
EndChar

StartChar: r
Encoding: 114 114 114
Width: 1100
GlyphClass: 2
Flags: MW
LayerCount: 3
Fore
SplineSet
517 310 m 1
 536 339 575 374 610 374 c 0
 624 374 628 372 641 368 c 1
 644 366 l 1
 629 296 l 1
 623 294 l 1
 610 305 594 305 580 305 c 0
 568 305 517 300 517 242 c 2
 517 177 l 2
 517 119 518 84 524 41 c 1
 523 39 l 1
 523 39 494 41 469 41 c 0
 442 41 421 39 421 39 c 1
 421 41 l 1
 427 82 428 120 428 177 c 2
 428 221 l 2
 428 277 423 320 417 353 c 1
 418 355 l 1
 449 357 491 366 510 374 c 1
 514 374 517 372 517 366 c 0
 516 344 515 310 515 310 c 1
 517 310 l 1
EndSplineSet
Refer: 415 -1 N 1 0 0 1 0 0 2
EndChar

StartChar: t
Encoding: 116 116 115
Width: 1100
GlyphClass: 2
Flags: MW
LayerCount: 3
Fore
SplineSet
390 323 m 2
 384 323 380 328 380 334 c 0
 380 344 388 363 396 363 c 2
 437 363 l 1
 437 406 437 414 432 446 c 1
 433 448 l 1
 463 450 504 467 522 474 c 1
 527 474 529 472 529 467 c 0
 526 424 525 419 525 363 c 1
 606 363 l 2
 609 363 612 361 612 358 c 2
 612 333 l 2
 612 326 601 323 594 323 c 2
 525 323 l 1
 525 245 l 2
 525 200 523 162 523 139 c 0
 523 108 528 85 548 85 c 0
 567 85 579 87 599 99 c 1
 607 94 613 84 613 72 c 1
 584 46 539 34 507 34 c 0
 459 34 435 72 435 107 c 0
 435 130 437 192 437 237 c 2
 437 323 l 1
 390 323 l 2
EndSplineSet
Refer: 415 -1 N 1 0 0 1 0 0 2
EndChar

StartChar: u
Encoding: 117 117 116
Width: 1100
GlyphClass: 2
Flags: MW
LayerCount: 3
Fore
SplineSet
588 91 m 1
 546 46 523 35 492 35 c 0
 418 35 375 86 375 137 c 2
 375 230 l 2
 375 286 374 322 368 364 c 1
 369 367 l 1
 369 367 394 364 419 364 c 0
 446 364 470 367 470 367 c 1
 471 364 l 1
 464 325 464 286 464 230 c 2
 464 162 l 2
 464 95 489 83 512 83 c 0
 545 83 569 116 588 139 c 1
 588 230 l 2
 588 286 587 322 581 364 c 1
 582 367 l 1
 582 367 607 364 632 364 c 0
 659 364 683 367 683 367 c 1
 684 364 l 1
 677 325 677 286 677 230 c 2
 677 187 l 2
 677 130 683 75 689 43 c 1
 688 40 l 1
 678 42 650 43 640 43 c 0
 629 43 610 42 600 40 c 0
 596 40 593 41 593 43 c 2
 590 91 l 1
 588 91 l 1
EndSplineSet
Refer: 415 -1 N 1 0 0 1 0 0 2
EndChar

StartChar: v
Encoding: 118 118 117
Width: 1100
GlyphClass: 2
Flags: MW
LayerCount: 3
Fore
SplineSet
454 38 m 1
 412 148 368 257 318 368 c 1
 330 365 356 365 368 365 c 0
 379 365 414 365 424 368 c 1
 451 282 483 194 520 108 c 1
 522 108 l 1
 556 182 590 283 620 368 c 1
 627 365 652 365 660 365 c 0
 667 365 688 365 695 368 c 1
 646 257 596 148 557 38 c 1
 550 41 518 41 511 41 c 0
 503 41 462 41 454 38 c 1
EndSplineSet
Refer: 415 -1 N 1 0 0 1 0 0 2
EndChar

StartChar: w
Encoding: 119 119 118
Width: 1100
GlyphClass: 2
Flags: MW
LayerCount: 3
Fore
SplineSet
370 38 m 1
 328 148 285 256 235 367 c 1
 247 364 277 364 289 364 c 0
 299 364 331 364 340 367 c 1
 368 281 397 194 434 108 c 1
 439 108 l 1
 459.5 153.8 481.9 209.4 502.7 264.8 c 1
 488.4 299 473.6 333.4 458 368 c 1
 470 365 500 365 512 365 c 0
 523 365 554 365 564 368 c 1
 591 281 621 195 658 109 c 1
 664 109 l 1
 699 183 730 283 760 368 c 1
 767 365 794 365 801 365 c 0
 808 365 826 365 833 368 c 1
 784 257 732 149 693 39 c 1
 686 42 640 42 633 42 c 0
 626 42 599 42 592 39 c 1
 571.7 92.3 551.4 145.1 530.1 198 c 1
 508.9 144.7 489.4 89.1 471 38 c 1
 464 41 417 41 410 41 c 0
 402 41 378 41 370 38 c 1
EndSplineSet
Refer: 415 -1 N 1 0 0 1 0 0 2
EndChar

StartChar: y
Encoding: 121 121 119
Width: 1100
GlyphClass: 2
Flags: MW
LayerCount: 3
Fore
SplineSet
356 388 m 1
 366 386 399 386 409 386 c 0
 419 386 450 386 460 388 c 1
 484.3 313.2 515.2 239.2 547.4 161.6 c 1
 578.3 233 607.9 314.9 632 388 c 1
 639 386 668 386 675 386 c 0
 683 386 700 386 707 388 c 1
 683 338 518 -20 490 -113 c 1
 482 -111 461 -110 453 -110 c 0
 446 -110 420 -111 413 -113 c 1
 447 -57 473 -6 497 50 c 1
 494 55 l 1
 466 131 385 323 356 388 c 1
EndSplineSet
Refer: 415 -1 N 1 0 0 1 0 0 2
EndChar

StartChar: z
Encoding: 122 122 120
Width: 1100
GlyphClass: 2
Flags: MW
LayerCount: 3
Fore
SplineSet
530 321 m 1
 445 320 363 313 363 313 c 1
 362 316 l 1
 363 322 363 335 363 342 c 0
 363 349 363 356 362 366 c 1
 363 368 l 1
 375 367 390 366 405 366 c 2
 587 366 l 2
 609 366 644 371 647 371 c 0
 650 371 651 369 651 366 c 1
 647 361 642 353 629 334 c 2
 462 85 l 1
 551 86 645 94 645 94 c 1
 646 91 l 1
 645 85 645 72 645 65 c 0
 645 58 645 51 646 41 c 1
 645 39 l 1
 633 40 618 41 603 41 c 2
 433 41 l 2
 412 41 344 39 344 39 c 1
 342 42 l 1
 348 49 352 56 358 65 c 2
 530 321 l 1
EndSplineSet
Refer: 415 -1 N 1 0 0 1 0 0 2
EndChar

StartChar: braceleft
Encoding: 123 123 121
Width: 1100
GlyphClass: 2
Flags: MW
LayerCount: 3
Fore
SplineSet
553 507 m 2
 553 381 l 2
 553 313 528 293 491 277 c 1
 535 258 553 227 553 163 c 2
 553 51 l 2
 553 -3 572 -44 605 -44 c 1
 605 -67 l 1
 529 -66 470 -42 470 55 c 2
 470 179 l 2
 470 225 456 258 416 267 c 1
 416 285 l 1
 458 297 470 335 470 372 c 2
 470 507 l 2
 470 594 530 620 605 622 c 1
 605 599 l 1
 577 591 553 575 553 507 c 2
EndSplineSet
Refer: 415 -1 N 1 0 0 1 0 0 2
EndChar

StartChar: bar
Encoding: 124 124 122
Width: 1100
GlyphClass: 2
Flags: MW
LayerCount: 3
Fore
SplineSet
562 -106 m 1
 518 -106 l 1
 518 592 l 1
 562 592 l 1
 562 -106 l 1
EndSplineSet
Refer: 415 -1 N 1 0 0 1 0 0 2
EndChar

StartChar: braceright
Encoding: 125 125 123
Width: 1100
GlyphClass: 2
Flags: MW
LayerCount: 3
Fore
SplineSet
537 487 m 2
 537 555 513 571 485 579 c 1
 485 602 l 1
 560 600 620 574 620 487 c 2
 620 352 l 2
 620 315 632 277 674 265 c 1
 674 247 l 1
 634 238 620 205 620 159 c 2
 620 35 l 2
 620 -62 561 -86 485 -87 c 1
 485 -64 l 1
 518 -64 537 -23 537 31 c 2
 537 143 l 2
 537 207 555 238 599 257 c 1
 562 273 537 293 537 361 c 2
 537 487 l 2
EndSplineSet
Refer: 415 -1 N 1 0 0 1 0 0 2
Colour: ff00ff
EndChar

StartChar: asciitilde
Encoding: 126 126 124
Width: 1100
GlyphClass: 2
Flags: MW
LayerCount: 3
Fore
SplineSet
388 238 m 1
 398 289 440 347 488 347 c 0
 506 347 526 334 546 321 c 0
 566 308 587 295 604 295 c 0
 626 295 657 301 675 340 c 1
 695 329 l 1
 671 245 620 235 601 235 c 0
 581 235 561 247 542 260 c 0
 522 274 503 285 483 285 c 0
 456 285 423 264 404 228 c 1
 388 238 l 1
EndSplineSet
Refer: 415 -1 N 1 0 0 1 0 0 2
EndChar

StartChar: exclamdown
Encoding: 161 161 125
Width: 1100
GlyphClass: 2
Flags: MW
LayerCount: 3
Fore
SplineSet
519 -32 m 0
 497 -32 473 -15 473 22 c 0
 473 71 486 103 494 167 c 0
 505 248 506 293 507 304 c 0
 508 312 511 319 519 319 c 0
 528 319 530 313 530 309 c 0
 532 293 536 226 543 167 c 0
 551 101 564 75 564 22 c 0
 564 -18 537 -32 519 -32 c 0
568 422 m 1
 568 419 l 1
 559 397 547 384 522 374 c 1
 520 374 l 1
 496 383 483 395 474 419 c 1
 474 422 l 1
 484 449 496 461 520 467 c 1
 522 467 l 1
 549 461 560 449 568 422 c 1
EndSplineSet
Refer: 415 -1 N 1 0 0 1 0 0 2
Colour: ff00ff
EndChar

StartChar: cent
Encoding: 162 162 126
Width: 1100
GlyphClass: 2
Flags: MW
LayerCount: 3
Fore
SplineSet
530 484 m 1
 555 484 l 1
 555 404.6 l 1
 587.3 403.5 626.8 393.3 646.3 383.1 c 1
 647.2 381.3 l 1
 631.9 312.9 l 1
 620.2 312 l 1
 603.8 340 579 363.4 555 367.2 c 1
 555 145.5 l 2
 555.7 145.5 556.5 145.5 557.2 145.5 c 0
 584.2 145.5 610.3 154.5 636.4 186.9 c 1
 638.2 186.9 l 1
 647.2 181.5 651.7 176.1 652.6 169.8 c 1
 637.1 136.3 600.1 107.3 555 102.2 c 1
 555 42 l 1
 530 42 l 1
 530 101.7 l 1
 437.7 106 384.4 165 384.4 249 c 0
 384.4 337.6 448.1 396 530 403.8 c 1
 530 484 l 1
530 150.5 m 1
 530 365.9 l 1
 493.9 358.1 467.2 325.8 467.2 266.1 c 0
 467.2 208.3 492.8 164.7 530 150.5 c 1
EndSplineSet
Refer: 415 -1 N 1 0 0 1 0 0 2
Colour: ff80cc
EndChar

StartChar: sterling
Encoding: 163 163 127
Width: 1100
GlyphClass: 2
Flags: MW
LayerCount: 3
Fore
SplineSet
506 374 m 1
 510 323 l 1
 607 323 l 2
 612 323 614 321 614 318 c 2
 614 294 l 2
 614 287 602 284 592 284 c 2
 510 284 l 1
 509 187 469 150 439 124 c 1
 440 124 441 124 443 124 c 0
 545 124 534 86 593 86 c 0
 619 86 662 90 686 119 c 1
 702 104 l 1
 680 62 635 34 577 34 c 0
 496 34 496 85 418 85 c 0
 387 85 384 72 384 62 c 0
 384 41 367 30 345 30 c 0
 327 30 313 41 313 55 c 0
 313 72 336 86 363 99 c 1
 412 135 415 196 415 270 c 2
 415 284 l 1
 359 284 l 2
 354 284 354 284 354 288 c 2
 354 306 l 2
 354 313 359 323 375 323 c 2
 415 323 l 1
 415 333 l 2
 415 402 438 437 485 479 c 0
 533 521 586 530 639 530 c 0
 655 530 670 526 677 523 c 1
 678 520 l 1
 668 506 665 476 661 453 c 1
 643 452 l 1
 633 466 624 484 600 484 c 0
 552 484 501 455 506 374 c 1
EndSplineSet
Refer: 415 -1 N 1 0 0 1 0 0 2
EndChar

StartChar: currency
Encoding: 164 164 128
Width: 1100
GlyphClass: 2
Flags: MW
LayerCount: 3
Fore
SplineSet
433 300 m 0
 433 248 471 208 520 208 c 0
 571 208 607 248 607 299 c 0
 607 353 565 392 522 392 c 0
 473 392 433 352 433 300 c 0
520 167 m 0
 492 167 467 173 445 185 c 1
 435 172 419 152 411 142 c 1
 365 186 l 1
 405 218 l 1
 384 245 373 271 373 299 c 0
 373 329 384 356 406 382 c 1
 394 391 378 403 367 413 c 1
 408 455 l 1
 445 414 l 1
 468 426 493 433 522 433 c 0
 552 433 574 425 596 413 c 1
 608 428 626 449 634 459 c 1
 678 413 l 1
 637 380 l 1
 658 354 668 328 668 299 c 0
 668 272 657 246 637 220 c 1
 649 210 665 197 676 187 c 1
 636 143 l 1
 598 187 l 1
 575 174 550 167 520 167 c 0
EndSplineSet
Refer: 415 -1 N 1 0 0 1 0 0 2
EndChar

StartChar: yen
Encoding: 165 165 129
Width: 1100
GlyphClass: 2
Flags: MW
LayerCount: 3
Fore
SplineSet
360 243 m 2
 356 243 356 244 356 248 c 2
 356 258 l 2
 356 264 360 273 372 273 c 2
 447.3 273 l 1
 415 332.5 350.9 462.2 327 503 c 1
 338 500 354 500 366 500 c 0
 377 500 392 500 403 503 c 1
 431.3 428.9 455.7 370.1 496.7 297.7 c 1
 534.7 357.9 558.5 423.2 591 503 c 1
 599 500 610 500 619 500 c 0
 627 500 638 500 647 503 c 1
 583.1 390.9 549.2 324.3 522.3 273 c 1
 619 273 l 2
 622 273 624 272 624 269 c 2
 624 253 l 2
 624 246 614 243 607 243 c 2
 516.3 243 l 1
 516.5 228 516.8 212 517.1 196 c 1
 619 196 l 2
 622 196 624 194 624 192 c 2
 624 176 l 2
 624 170 614 167 607 167 c 2
 517.7 167 l 1
 518.7 125.5 520.1 87.4 522 69 c 1
 511 72 497 72 487 72 c 0
 477 72 464 72 453 69 c 1
 455.4 90.7 456.7 127.4 457.3 167 c 1
 360 167 l 2
 356 167 356 168 356 171 c 2
 356 181 l 2
 356 187 360 196 372 196 c 2
 457.7 196 l 1
 457.9 211.9 458 227.8 458 243 c 1
 360 243 l 2
EndSplineSet
Refer: 415 -1 N 1 0 0 1 0 0 2
EndChar

StartChar: brokenbar
Encoding: 166 166 130
Width: 1100
GlyphClass: 2
Flags: MW
LayerCount: 3
Fore
SplineSet
532 545 m 1
 532 278 l 1
 488 278 l 1
 488 545 l 1
 532 545 l 1
532 195 m 1
 532 -72 l 1
 488 -72 l 1
 488 195 l 1
 532 195 l 1
EndSplineSet
Refer: 415 -1 N 1 0 0 1 0 0 2
EndChar

StartChar: section
Encoding: 167 167 131
Width: 1100
GlyphClass: 2
Flags: MW
LayerCount: 3
Fore
SplineSet
451.5 350.2 m 1
 439.3 334.8 437 312 437 290 c 0
 437 219 504 184 561 155 c 0
 572.7 149 583.6 142.6 593.5 135.8 c 1
 605.7 151.2 608 174 608 196 c 0
 608 267 541 302 484 331 c 0
 472.3 337 461.4 343.4 451.5 350.2 c 1
424.9 371.7 m 1
 399.9 395.6 386 422.2 386 448 c 0
 386 497 449 554 524 554 c 0
 576 554 624 524 644 507 c 1
 647 503 l 1
 634 442 l 1
 623 440 l 1
 602 478 559 518 518 518 c 0
 482 518 462 499 462 463 c 0
 462 428 476 411 514 395 c 0
 575 370 682 317 682 225 c 0
 682 180.5 651.1 137.8 620.1 114.3 c 1
 645.1 90.4 659 63.8 659 38 c 0
 659 -11 596 -68 521 -68 c 0
 469 -68 421 -38 401 -21 c 1
 398 -17 l 1
 411 44 l 1
 422 46 l 1
 443 8 486 -32 527 -32 c 0
 563 -32 583 -13 583 23 c 0
 583 58 569 82 531 98 c 0
 470 122 363 169 363 261 c 0
 363 305.5 393.9 348.2 424.9 371.7 c 1
EndSplineSet
Refer: 415 -1 N 1 0 0 1 0 0 2
EndChar

StartChar: dieresis
Encoding: 168 168 132
Width: 1100
GlyphClass: 2
Flags: MW
LayerCount: 3
Fore
SplineSet
542.799804688 503 m 0
 542.799804688 528.299804688 562.599609375 548.099609375 586.799804688 548.099609375 c 0
 611 548.099609375 631.900390625 528.299804688 631.900390625 503 c 0
 631.900390625 478.799804688 611 459 586.799804688 459 c 0
 562.599609375 459 542.799804688 478.799804688 542.799804688 503 c 0
393.200195312 503 m 0
 393.200195312 528.299804688 414 548.099609375 438.200195312 548.099609375 c 0
 462.400390625 548.099609375 482.299804688 528.299804688 482.299804688 503 c 0
 482.299804688 478.799804688 462.400390625 459 438.200195312 459 c 0
 414 459 393.200195312 478.799804688 393.200195312 503 c 0
EndSplineSet
Refer: 415 -1 N 1 0 0 1 0 0 3
EndChar

StartChar: guillemotleft
Encoding: 171 171 133
Width: 1100
GlyphClass: 2
Flags: MW
LayerCount: 3
Fore
SplineSet
690 378 m 1
 698 337 l 1
 660 284 617 241 572 207 c 1
 615 177 656 135 698 77 c 1
 690 36 l 1
 620 110 548 162 490 192 c 1
 490 222 l 1
 552 262 624 314 690 378 c 1
516 378 m 1
 524 337 l 1
 484 284 449 241 404 207 c 1
 446 177 482 135 524 77 c 1
 516 36 l 1
 445 110 380 162 322 192 c 1
 322 222 l 1
 384 262 449 314 516 378 c 1
EndSplineSet
Refer: 415 -1 N 1 0 0 1 0 0 2
EndChar

StartChar: uni00AD
Encoding: 173 173 134
Width: 1100
GlyphClass: 2
Flags: MW
LayerCount: 3
Fore
SplineSet
627 232 m 2
 428 232 l 2
 421 232 416 238 416 245 c 0
 416 257 426 286 435 286 c 2
 637 286 l 2
 644 286 648 276 648 270 c 0
 648 261 637 232 627 232 c 2
EndSplineSet
Refer: 415 -1 N 1 0 0 1 0 0 2
Colour: ff00ff
EndChar

StartChar: degree
Encoding: 176 176 135
Width: 1100
GlyphClass: 2
Flags: MW
LayerCount: 3
Fore
SplineSet
556 504 m 0
 556 526.7 543.1 552 514 552 c 0
 486.7 552 471 528.2 471 504 c 0
 471 479.1 488.2 459 514 459 c 0
 540.4 459 556 482 556 504 c 0
514 587 m 0
 558.9 587 595 550.7 595 505 c 0
 595 460.2 558.8 424 514 424 c 0
 469.2 424 432 460 432 505 c 0
 432 550.9 469.2 587 514 587 c 0
EndSplineSet
Refer: 415 -1 N 1 0 0 1 0 0 2
EndChar

StartChar: plusminus
Encoding: 177 177 136
Width: 1100
GlyphClass: 2
Flags: MW
LayerCount: 3
Fore
SplineSet
692 44 m 1
 692 -12 l 1
 395 -12 l 1
 395 44 l 1
 692 44 l 1
569 260 m 1
 697 260 l 1
 697 204 l 1
 569 204 l 1
 569 82 l 1
 513 82 l 1
 513 204 l 1
 385 204 l 1
 385 260 l 1
 513 260 l 1
 513 383 l 1
 569 383 l 1
 569 260 l 1
EndSplineSet
Refer: 415 -1 N 1 0 0 1 0 0 2
Colour: ff00ff
EndChar

StartChar: acute
Encoding: 180 180 137
Width: 1100
GlyphClass: 2
Flags: MW
LayerCount: 3
Fore
SplineSet
534.3 592.2 m 1
 536.5 593.3 543.1 594.5 547.5 594.5 c 0
 572.8 594.5 588.2 582.4 594.8 574.7 c 1
 602.5 554.8 l 1
 503.5 465.8 l 2
 492.5 455.9 480.4 452.5 472.7 452.5 c 0
 466.1 452.5 459.5 459.2 459.5 464.7 c 0
 459.5 469.1 460.6 476.8 466.1 484.5 c 2
 534.3 592.2 l 1
EndSplineSet
Refer: 415 -1 N 1 0 0 1 0 0 2
Colour: ff00ff
EndChar

StartChar: mu
Encoding: 181 181 138
Width: 1100
GlyphClass: 2
Flags: MW
LayerCount: 3
Fore
SplineSet
583 63 m 1
 552 38 524 18 483 18 c 0
 471 18 459 20 449 25 c 1
 450 1 448 -23 452 -45 c 1
 457 -64 462 -86 462 -99 c 0
 462 -115.7 457.7 -128 450.1 -136 c 1
 821 -136 l 2
 881 -136 904 -113 904 -53 c 2
 904 625 l 2
 904 685 881 718 821 718 c 2
 249 718 l 2
 189 718 156 685 156 625 c 2
 156 -53 l 2
 156 -113 189 -136 249 -136 c 2
 395.6 -136 l 1
 384.1 -127.2 374 -113.2 374 -95 c 0
 374 -80 377 -62 380 -42 c 0
 383 -22 387 -3 387 24 c 0
 387 34 386 46 385 62 c 0
 383 81 374 111 374 130 c 2
 374 269 l 2
 374 288 366 352 366 352 c 1
 455 362 l 1
 455 362 457 308 457 284 c 2
 457 140 l 2
 457 92 470 58 497 58 c 0
 528 58 566 78 582 100 c 1
 582 352 l 1
 665 363 l 1
 665 122 l 2
 665 87 666 58 695 58 c 0
 713 58 714 70 718 70 c 0
 721 70 728 61 728 56 c 0
 728 52 699 20 658 20 c 0
 613 20 594 34 584 63 c 1
 583 63 l 1
1000 -84 m 2
 1000 -174 971 -212 881 -212 c 2
 249 -212 l 2
 159 -212 120 -174 120 -84 c 2
 120 625 l 2
 120 708 168 754 249 754 c 2
 851 754 l 2
 941 754 1000 715 1000 625 c 2
 1000 -84 l 2
EndSplineSet
EndChar

StartChar: periodcentered
Encoding: 183 183 139
Width: 1100
GlyphClass: 2
Flags: MW
LayerCount: 3
Fore
SplineSet
521 208 m 0
 490 208 470 232 470 258 c 0
 470 284 493 309 521 309 c 0
 546 309 572 287 572 258 c 0
 572 231 550 208 521 208 c 0
EndSplineSet
Refer: 415 -1 N 1 0 0 1 0 0 2
EndChar

StartChar: cedilla
Encoding: 184 184 140
Width: 1100
GlyphClass: 2
Flags: MW
LayerCount: 3
Fore
SplineSet
496.1 119 m 1
 485.7 129.4 l 1
 518.4 201 l 1
 555.4 201 l 1
 538.2 158.9 l 1
 593 158.9 608 127.2 608 106 c 0
 608 69.4 572.2 43 523 43 c 0
 498.2 43 486.3 45.2 458.9 57.4 c 1
 471.2 87.1 l 1
 488.6 80.1 500.7 76 519 76 c 0
 539.4 76 555 87.6 555 102 c 0
 555 113 546.6 123 532 123 c 0
 518.8 123 505 122 496.1 119 c 1
EndSplineSet
Refer: 415 -1 N 1 0 0 1 0 0 2
Colour: ff00ff
EndChar

StartChar: guillemotright
Encoding: 187 187 141
Width: 1100
GlyphClass: 2
Flags: MW
LayerCount: 3
Fore
SplineSet
360 36 m 1
 352 77 l 1
 390 130 433 173 478 207 c 1
 435 237 394 279 352 337 c 1
 360 378 l 1
 430 304 502 252 560 222 c 1
 560 192 l 1
 498 152 426 100 360 36 c 1
534 36 m 1
 526 77 l 1
 566 130 601 173 646 207 c 1
 604 237 568 279 526 337 c 1
 534 378 l 1
 605 304 670 252 728 222 c 1
 728 192 l 1
 666 152 601 100 534 36 c 1
EndSplineSet
Refer: 415 -1 N 1 0 0 1 0 0 2
Colour: ff00ff
EndChar

StartChar: Agrave
Encoding: 192 192 142
Width: 1100
GlyphClass: 2
Flags: MW
LayerCount: 3
Fore
SplineSet
467 667 m 1
 580 588 l 2
 591 581 592 575 592 569 c 0
 592 562 586 557 580 557 c 0
 574 557 566 559 548 564 c 2
 427 599 l 1
 421 611 l 1
 428 634 445 652 467 667 c 1
512.5 414.7 m 1
 490.1 363 464.7 304.9 440.9 248 c 1
 464.7 247.7 497.2 246 519 246 c 0
 536.3 246 560 246.5 581.5 247.1 c 1
 562.9 295.1 540.1 351 512.5 414.7 c 1
423.2 205.1 m 1
 397.7 142.2 375.7 83.3 364 39 c 1
 355 41 338 41 330 41 c 0
 322 41 297 41 288 39 c 1
 364 204 437 368 509 534 c 1
 562 534 l 1
 631 370 730 114 767 39 c 1
 754 41 719 41 706 41 c 0
 694 41 666 41 653 39 c 1
 648.7 54.9 632.5 111.1 597.2 205.6 c 1
 572.6 206.3 546.6 207 523 207 c 0
 496 207 452.3 206.1 423.2 205.1 c 1
EndSplineSet
Refer: 415 -1 N 1 0 0 1 0 0 2
Colour: ff00ff
EndChar

StartChar: Aacute
Encoding: 193 193 143
Width: 1100
GlyphClass: 2
Flags: MW
LayerCount: 3
Fore
SplineSet
588 667 m 1
 610 652 627 634 634 611 c 1
 628 599 l 1
 507 564 l 2
 489 559 482 557 476 557 c 0
 470 557 463 562 463 569 c 0
 463 575 464 581 475 588 c 2
 588 667 l 1
512.5 414.7 m 1
 490.1 363 464.7 304.9 440.9 248 c 1
 464.7 247.7 497.2 246 519 246 c 0
 536.3 246 560 246.5 581.5 247.1 c 1
 562.9 295.1 540.1 351 512.5 414.7 c 1
423.2 205.1 m 1
 397.7 142.2 375.7 83.3 364 39 c 1
 355 41 338 41 330 41 c 0
 322 41 297 41 288 39 c 1
 364 204 437 368 509 534 c 1
 562 534 l 1
 631 370 730 114 767 39 c 1
 754 41 719 41 706 41 c 0
 694 41 666 41 653 39 c 1
 648.7 54.9 632.5 111.1 597.2 205.6 c 1
 572.6 206.3 546.6 207 523 207 c 0
 496 207 452.3 206.1 423.2 205.1 c 1
EndSplineSet
Refer: 415 -1 N 1 0 0 1 0 0 2
Colour: ff00ff
EndChar

StartChar: Acircumflex
Encoding: 194 194 144
Width: 1100
GlyphClass: 2
Flags: MW
LayerCount: 3
Fore
SplineSet
648 579 m 1
 635 558 l 1
 598 572 564 591 530 607 c 1
 496 591 462 572 425 558 c 1
 412 579 l 1
 448 608 487 646 518 677 c 1
 542 677 l 1
 573 644 613 609 648 579 c 1
512.5 414.7 m 1
 490.1 363 464.7 304.9 440.9 248 c 1
 464.7 247.7 497.2 246 519 246 c 0
 536.3 246 560 246.5 581.5 247.1 c 1
 562.9 295.1 540.1 351 512.5 414.7 c 1
423.2 205.1 m 1
 397.7 142.2 375.7 83.3 364 39 c 1
 355 41 338 41 330 41 c 0
 322 41 297 41 288 39 c 1
 364 204 437 368 509 534 c 1
 562 534 l 1
 631 370 730 114 767 39 c 1
 754 41 719 41 706 41 c 0
 694 41 666 41 653 39 c 1
 648.7 54.9 632.5 111.1 597.2 205.6 c 1
 572.6 206.3 546.6 207 523 207 c 0
 496 207 452.3 206.1 423.2 205.1 c 1
EndSplineSet
Refer: 415 -1 N 1 0 0 1 0 0 2
Colour: ff00ff
EndChar

StartChar: Atilde
Encoding: 195 195 145
Width: 1100
GlyphClass: 2
Flags: MW
LayerCount: 3
Fore
SplineSet
596 618.1 m 0
 614.7 618.1 624.7 624.7 636.8 665.4 c 1
 659.8 657.7 l 1
 648.8 601.6 624.6 568.6 585 568.6 c 0
 565.2 568.6 547.7 580.7 531.2 592.8 c 0
 514.7 603.8 498.2 614.8 482.8 614.8 c 0
 460.8 614.8 452 602.7 443.2 570.8 c 1
 421.2 577.4 l 1
 433.3 633.5 453 664.3 489.3 664.3 c 0
 515.7 664.3 534.5 651.1 551 637.9 c 0
 565.3 626.9 579.5 618.1 596 618.1 c 0
512.5 414.7 m 1
 490.1 363 464.7 304.9 440.9 248 c 1
 464.7 247.7 497.2 246 519 246 c 0
 536.3 246 560 246.5 581.5 247.1 c 1
 562.9 295.1 540.1 351 512.5 414.7 c 1
423.2 205.1 m 1
 397.7 142.2 375.7 83.3 364 39 c 1
 355 41 338 41 330 41 c 0
 322 41 297 41 288 39 c 1
 364 204 437 368 509 534 c 1
 562 534 l 1
 631 370 730 114 767 39 c 1
 754 41 719 41 706 41 c 0
 694 41 666 41 653 39 c 1
 648.7 54.9 632.5 111.1 597.2 205.6 c 1
 572.6 206.3 546.6 207 523 207 c 0
 496 207 452.3 206.1 423.2 205.1 c 1
EndSplineSet
Refer: 415 -1 N 1 0 0 1 0 0 2
Colour: ff00ff
EndChar

StartChar: Adieresis
Encoding: 196 196 146
Width: 1100
GlyphClass: 2
Flags: MW
LayerCount: 3
Fore
SplineSet
606.5 591 m 0
 606.5 615.2 626.3 635 651.6 635 c 0
 674.7 635 695.6 615.2 695.6 591 c 0
 695.6 566.8 674.7 547 651.6 547 c 0
 626.3 547 606.5 566.8 606.5 591 c 0
374.4 591 m 0
 374.4 615.2 395.3 635 419.5 635 c 0
 443.7 635 463.5 615.2 463.5 591 c 0
 463.5 566.8 443.7 547 419.5 547 c 0
 395.3 547 374.4 566.8 374.4 591 c 0
512.5 414.7 m 1
 490.1 363 464.7 304.9 440.9 248 c 1
 464.7 247.7 497.2 246 519 246 c 0
 536.3 246 560 246.5 581.5 247.1 c 1
 562.9 295.1 540.1 351 512.5 414.7 c 1
423.2 205.1 m 1
 397.7 142.2 375.7 83.3 364 39 c 1
 355 41 338 41 330 41 c 0
 322 41 297 41 288 39 c 1
 364 204 437 368 509 534 c 1
 562 534 l 1
 631 370 730 114 767 39 c 1
 754 41 719 41 706 41 c 0
 694 41 666 41 653 39 c 1
 648.7 54.9 632.5 111.1 597.2 205.6 c 1
 572.6 206.3 546.6 207 523 207 c 0
 496 207 452.3 206.1 423.2 205.1 c 1
EndSplineSet
Refer: 415 -1 N 1 0 0 1 0 0 2
Colour: ff80cc
EndChar

StartChar: Aring
Encoding: 197 197 147
Width: 1100
GlyphClass: 2
Flags: MW
LayerCount: 3
Fore
SplineSet
533 622 m 0
 514 622 499 606.3 499 587 c 0
 499 569.4 514.2 552 533 552 c 0
 551.5 552 566 569.6 566 587 c 0
 566 606.4 550.8 622 533 622 c 0
532 656 m 0
 570.5 656 604 626.2 604 587 c 0
 604 560.5 588.3 537.4 565.4 525.9 c 1
 634.2 361.7 730.6 112.8 767 39 c 1
 754 41 719 41 706 41 c 0
 694 41 666 41 653 39 c 1
 648.7 54.9 632.5 111.1 597.2 205.6 c 1
 572.6 206.3 546.6 207 523 207 c 0
 496 207 452.3 206.1 423.2 205.1 c 1
 397.7 142.2 375.7 83.3 364 39 c 1
 355 41 338 41 330 41 c 0
 322 41 297 41 288 39 c 1
 362.4 200.5 433.9 361.1 504.4 523.5 c 1
 479.4 533.9 461 557.8 461 587 c 0
 461 626.2 494.3 656 532 656 c 0
512.5 414.7 m 1
 490.1 363 464.7 304.9 440.9 248 c 1
 464.7 247.7 497.2 246 519 246 c 0
 536.3 246 560 246.5 581.5 247.1 c 1
 562.9 295.1 540.1 351 512.5 414.7 c 1
EndSplineSet
Refer: 415 -1 N 1 0 0 1 0 0 2
EndChar

StartChar: Ccedilla
Encoding: 199 199 148
Width: 1100
GlyphClass: 2
Flags: MW
LayerCount: 3
Fore
SplineSet
495.1 -44 m 1
 484.7 -33.6 l 1
 515.9 34.6 l 1
 367.2 43.4 292 150 292 286 c 0
 292 439 409 534 551 534 c 0
 642 534 722 501 722 501 c 1
 724 498 l 1
 715 462 711 439 709 401 c 1
 691 400 l 1
 660 462 608 490 540 490 c 0
 479 490 401 444 401 292 c 0
 401 182 443.9 88 550 88 c 0
 620 88 671 104 724 163 c 1
 741 135 l 1
 694 73.2 620.6 39.5 553 34.6 c 1
 537.2 -4.1 l 1
 592 -4.1 607 -35.8 607 -57 c 0
 607 -93.6 571.2 -120 522 -120 c 0
 497.2 -120 485.3 -117.8 457.9 -105.6 c 1
 470.2 -75.9 l 1
 487.6 -82.9 499.7 -87 518 -87 c 0
 538.4 -87 554 -75.4 554 -61 c 0
 554 -50 545.6 -40 531 -40 c 0
 517.8 -40 504 -41 495.1 -44 c 1
EndSplineSet
Refer: 415 -1 N 1 0 0 1 0 0 2
Colour: ff00ff
EndChar

StartChar: Egrave
Encoding: 200 200 149
Width: 1100
GlyphClass: 2
Flags: MW
LayerCount: 3
Fore
SplineSet
453 191 m 2
 453 178 454 106 459 88 c 1
 560 88 671 97 671 97 c 1
 672 94 l 1
 672 88 671 75 671 68 c 0
 671 60 672 51 672 41 c 1
 671 38 l 1
 659 40 642 41 626 41 c 2
 405 41 l 2
 379 41 350 38 350 38 c 1
 350 41 l 1
 356 81 357 134 357 191 c 2
 357 374 l 2
 357 431 356 482 350 524 c 1
 351 527 l 1
 351 527 380 524 405 524 c 0
 618 524 l 2
 634 524 651 525 663 527 c 1
 665 524 l 1
 664 514 663 504 663 498 c 0
 663 491 664 481 665 475 c 1
 663 472 l 1
 663 472 560 481 459 481 c 1
 454 463 453 387 453 374 c 2
 453 316 l 1
 542 316 576 320 620 323 c 1
 623 321 l 1
 621 314 620 304 620 297 c 0
 620 290 621 279 623 272 c 1
 620 270 l 1
 569 275 489 278 453 278 c 1
 453 191 l 2
467 677 m 1
 580 598 l 2
 591 591 592 585 592 579 c 0
 592 572 586 567 580 567 c 0
 574 567 566 569 548 574 c 2
 427 609 l 1
 421 621 l 1
 428 644 445 662 467 677 c 1
EndSplineSet
Refer: 415 -1 N 1 0 0 1 0 0 2
Colour: ff00ff
EndChar

StartChar: Eacute
Encoding: 201 201 150
Width: 1100
GlyphClass: 2
Flags: MW
LayerCount: 3
Fore
SplineSet
453 191 m 2
 453 178 454 106 459 88 c 1
 560 88 671 97 671 97 c 1
 672 94 l 1
 672 88 671 75 671 68 c 0
 671 60 672 51 672 41 c 1
 671 38 l 1
 659 40 642 41 626 41 c 2
 405 41 l 2
 379 41 350 38 350 38 c 1
 350 41 l 1
 356 81 357 134 357 191 c 2
 357 374 l 2
 357 431 356 482 350 524 c 1
 351 527 l 1
 351 527 380 524 405 524 c 0
 618 524 l 2
 634 524 651 525 663 527 c 1
 665 524 l 1
 664 514 663 504 663 498 c 0
 663 491 664 481 665 475 c 1
 663 472 l 1
 663 472 560 481 459 481 c 1
 454 463 453 387 453 374 c 2
 453 316 l 1
 542 316 576 320 620 323 c 1
 623 321 l 1
 621 314 620 304 620 297 c 0
 620 290 621 279 623 272 c 1
 620 270 l 1
 569 275 489 278 453 278 c 1
 453 191 l 2
578 677 m 1
 600 662 617 644 624 621 c 1
 618 609 l 1
 497 574 l 2
 479 569 472 567 466 567 c 0
 460 567 453 572 453 579 c 0
 453 585 454 591 465 598 c 2
 578 677 l 1
EndSplineSet
Refer: 415 -1 N 1 0 0 1 0 0 2
Colour: ff00ff
EndChar

StartChar: Ecircumflex
Encoding: 202 202 151
Width: 1100
GlyphClass: 2
Flags: MW
LayerCount: 3
Fore
SplineSet
453 191 m 2
 453 178 454 106 459 88 c 1
 560 88 671 97 671 97 c 1
 672 94 l 1
 672 88 671 75 671 68 c 0
 671 60 672 51 672 41 c 1
 671 38 l 1
 659 40 642 41 626 41 c 2
 405 41 l 2
 379 41 350 38 350 38 c 1
 350 41 l 1
 356 81 357 134 357 191 c 2
 357 374 l 2
 357 431 356 482 350 524 c 1
 351 527 l 1
 351 527 380 524 405 524 c 0
 618 524 l 2
 634 524 651 525 663 527 c 1
 665 524 l 1
 664 514 663 504 663 498 c 0
 663 491 664 481 665 475 c 1
 663 472 l 1
 663 472 560 481 459 481 c 1
 454 463 453 387 453 374 c 2
 453 316 l 1
 542 316 576 320 620 323 c 1
 623 321 l 1
 621 314 620 304 620 297 c 0
 620 290 621 279 623 272 c 1
 620 270 l 1
 569 275 489 278 453 278 c 1
 453 191 l 2
628 579 m 1
 615 558 l 1
 578 572 544 591 510 607 c 1
 476 591 442 572 405 558 c 1
 392 579 l 1
 428 608 467 646 498 677 c 1
 522 677 l 1
 553 644 593 609 628 579 c 1
EndSplineSet
Refer: 415 -1 N 1 0 0 1 0 0 2
Colour: ff00ff
EndChar

StartChar: Edieresis
Encoding: 203 203 152
Width: 1100
GlyphClass: 2
Flags: MW
LayerCount: 3
Fore
SplineSet
587 664 m 0
 609.9 664 629 645.2 629 623 c 0
 629 600 610 581 587 581 c 0
 564.7 581 547 600.4 547 623 c 0
 547 644.8 564.7 664 587 664 c 0
446 663 m 0
 470 663 486 643.6 486 622 c 0
 486 600.4 470 581 446 581 c 0
 423.2 581 405 599.2 405 622 c 0
 405 644.8 423.2 663 446 663 c 0
453 191 m 2
 453 178 454 106 459 88 c 1
 560 88 671 97 671 97 c 1
 672 94 l 1
 672 88 671 75 671 68 c 0
 671 60 672 51 672 41 c 1
 671 38 l 1
 659 40 642 41 626 41 c 2
 405 41 l 2
 379 41 350 38 350 38 c 1
 350 41 l 1
 356 81 357 134 357 191 c 2
 357 374 l 2
 357 431 356 482 350 524 c 1
 351 527 l 1
 351 527 380 524 405 524 c 0
 618 524 l 2
 634 524 651 525 663 527 c 1
 665 524 l 1
 664 514 663 504 663 498 c 0
 663 491 664 481 665 475 c 1
 663 472 l 1
 663 472 560 481 459 481 c 1
 454 463 453 387 453 374 c 2
 453 316 l 1
 542 316 576 320 620 323 c 1
 623 321 l 1
 621 314 620 304 620 297 c 0
 620 290 621 279 623 272 c 1
 620 270 l 1
 569 275 489 278 453 278 c 1
 453 191 l 2
EndSplineSet
Refer: 415 -1 N 1 0 0 1 0 0 2
Colour: ff00ff
EndChar

StartChar: Igrave
Encoding: 204 204 153
Width: 1100
GlyphClass: 2
Flags: MW
LayerCount: 3
Fore
SplineSet
482 374 m 2
 482 431 480 482 474 524 c 1
 476 527 l 1
 476 527 504 524 530 524 c 0
 556 524 585 527 585 527 c 1
 586 524 l 1
 580 485 578 431 578 374 c 2
 578 191 l 2
 578 134 580 83 586 41 c 1
 584 38 l 1
 584 38 556 41 530 41 c 0
 504 41 475 38 475 38 c 1
 474 41 l 1
 480 81 482 134 482 191 c 2
 482 374 l 2
497 677 m 1
 610 598 l 2
 621 591 622 585 622 579 c 0
 622 572 616 567 610 567 c 0
 604 567 596 569 578 574 c 2
 457 609 l 1
 451 621 l 1
 458 644 475 662 497 677 c 1
EndSplineSet
Refer: 415 -1 N 1 0 0 1 0 0 2
Colour: ff00ff
EndChar

StartChar: Iacute
Encoding: 205 205 154
Width: 1100
GlyphClass: 2
Flags: MW
LayerCount: 3
Fore
SplineSet
482 374 m 2
 482 431 480 482 474 524 c 1
 476 527 l 1
 476 527 504 524 530 524 c 0
 556 524 585 527 585 527 c 1
 586 524 l 1
 580 485 578 431 578 374 c 2
 578 191 l 2
 578 134 580 83 586 41 c 1
 584 38 l 1
 584 38 556 41 530 41 c 0
 504 41 475 38 475 38 c 1
 474 41 l 1
 480 81 482 134 482 191 c 2
 482 374 l 2
578 707 m 1
 600 692 617 674 624 651 c 1
 618 639 l 1
 497 604 l 2
 479 599 472 597 466 597 c 0
 460 597 453 602 453 609 c 0
 453 615 454 621 465 628 c 2
 578 707 l 1
EndSplineSet
Refer: 415 -1 N 1 0 0 1 0 0 2
Colour: ff00ff
EndChar

StartChar: Icircumflex
Encoding: 206 206 155
Width: 1100
GlyphClass: 2
Flags: MW
LayerCount: 3
Fore
SplineSet
482 374 m 2
 482 431 480 482 474 524 c 1
 476 527 l 1
 476 527 504 524 530 524 c 0
 556 524 585 527 585 527 c 1
 586 524 l 1
 580 485 578 431 578 374 c 2
 578 191 l 2
 578 134 580 83 586 41 c 1
 584 38 l 1
 584 38 556 41 530 41 c 0
 504 41 475 38 475 38 c 1
 474 41 l 1
 480 81 482 134 482 191 c 2
 482 374 l 2
651 579 m 1
 638 558 l 1
 601 572 567 591 533 607 c 1
 499 591 465 572 428 558 c 1
 415 579 l 1
 451 608 490 646 521 677 c 1
 545 677 l 1
 576 644 616 609 651 579 c 1
EndSplineSet
Refer: 415 -1 N 1 0 0 1 0 0 2
Colour: ff00ff
EndChar

StartChar: Idieresis
Encoding: 207 207 156
Width: 1100
GlyphClass: 2
Flags: MW
LayerCount: 3
Fore
SplineSet
482 374 m 2
 482 431 480 482 474 524 c 1
 476 527 l 1
 476 527 504 524 530 524 c 0
 556 524 585 527 585 527 c 1
 586 524 l 1
 580 485 578 431 578 374 c 2
 578 191 l 2
 578 134 580 83 586 41 c 1
 584 38 l 1
 584 38 556 41 530 41 c 0
 504 41 475 38 475 38 c 1
 474 41 l 1
 480 81 482 134 482 191 c 2
 482 374 l 2
560 625 m 0
 560 649 579 668 603 668 c 0
 626 668 646 649 646 625 c 0
 646 602 626 582 603 582 c 0
 579 582 560 602 560 625 c 0
409 625 m 0
 409 649 428 668 452 668 c 0
 476 668 495 649 495 625 c 0
 495 602 476 582 452 582 c 0
 428 582 409 602 409 625 c 0
EndSplineSet
Refer: 415 -1 N 1 0 0 1 0 0 2
Colour: ff00ff
EndChar

StartChar: Eth
Encoding: 208 208 157
Width: 1100
GlyphClass: 2
Flags: MW
LayerCount: 3
Fore
SplineSet
413 109 m 2
 413 85 421 79 495 79 c 0
 600 79 671 102 671 254 c 0
 671 369 638 487 476 487 c 0
 439 487 413 483 413 457 c 2
 413 285 l 1
 448 285 l 1
 448 256 l 1
 413 256 l 1
 413 109 l 2
365 524 m 0
 420 524 450 527 504 527 c 0
 648 527 780 411 780 272 c 0
 780 87 624 39 518 39 c 0
 441 39 425 41 365 41 c 0
 339 41 310 38 310 38 c 1
 309 41 l 1
 315 81 317 134 317 191 c 2
 317 256 l 1
 245 256 l 1
 245 285 l 1
 317 285 l 1
 317 374 l 2
 317 431 315 482 309 524 c 1
 311 527 l 1
 311 527 339 524 365 524 c 0
EndSplineSet
Refer: 415 -1 N 1 0 0 1 0 0 2
Colour: ff80cc
EndChar

StartChar: Ntilde
Encoding: 209 209 158
Width: 1100
GlyphClass: 2
Flags: MW
LayerCount: 3
Fore
SplineSet
595 615.1 m 0
 613.7 615.1 623.7 621.7 635.8 662.4 c 1
 658.8 654.7 l 1
 647.8 598.6 623.6 565.6 584 565.6 c 0
 564.2 565.6 546.7 577.7 530.2 589.8 c 0
 513.7 600.8 497.2 611.8 481.8 611.8 c 0
 459.8 611.8 451 599.7 442.2 567.8 c 1
 420.2 574.4 l 1
 432.3 630.5 452 661.3 488.3 661.3 c 0
 514.7 661.3 533.5 648.1 550 634.9 c 0
 564.3 623.9 578.5 615.1 595 615.1 c 0
322 375 m 2
 322 431 320 482 314 525 c 1
 316 527 l 1
 316 527 344 525 369 525 c 0
 372 525 394 526 394 526 c 1
 652 193 l 2
 684 151 691 133 691 174 c 2
 691 375 l 2
 691 431 689 482 683 525 c 1
 670 527 l 1
 670 527 700 525 718 525 c 0
 735 525 738 527 738 527 c 1
 754 525 l 1
 748 485 746 431 746 375 c 2
 746 57 l 2
 746 42 726 33 716 33 c 0
 679 33 661 39 625 85 c 2
 390 382 l 2
 362 418 376 416 376 370 c 2
 376 191 l 2
 376 135 378 83 384 41 c 1
 382 39 l 1
 382 39 367 41 349 41 c 0
 332 41 315 39 315 39 c 1
 314 41 l 1
 320 81 322 135 322 191 c 2
 322 375 l 2
EndSplineSet
Refer: 415 -1 N 1 0 0 1 0 0 2
Colour: ff00ff
EndChar

StartChar: Ograve
Encoding: 210 210 159
Width: 1100
GlyphClass: 2
Flags: MW
LayerCount: 3
Fore
SplineSet
528 494 m 0
 456 494 392 444 392 286 c 0
 392 142 463 74 553 74 c 0
 639 74 687 139 687 274 c 0
 687 430 634 494 528 494 c 0
796 288 m 0
 796 138 699 34 538 34 c 0
 390 34 283 132 283 274 c 0
 283 420 385 534 538 534 c 0
 697 534 796 436 796 288 c 0
497 677 m 1
 610 598 l 2
 621 591 622 585 622 579 c 0
 622 572 616 567 610 567 c 0
 604 567 596 569 578 574 c 2
 457 609 l 1
 451 621 l 1
 458 644 475 662 497 677 c 1
EndSplineSet
Refer: 415 -1 N 1 0 0 1 0 0 2
Colour: ff00ff
EndChar

StartChar: Oacute
Encoding: 211 211 160
Width: 1100
GlyphClass: 2
Flags: MW
LayerCount: 3
Fore
SplineSet
528 494 m 0
 456 494 392 444 392 286 c 0
 392 142 463 74 553 74 c 0
 639 74 687 139 687 274 c 0
 687 430 634 494 528 494 c 0
796 288 m 0
 796 138 699 34 538 34 c 0
 390 34 283 132 283 274 c 0
 283 420 385 534 538 534 c 0
 697 534 796 436 796 288 c 0
578 677 m 1
 600 662 617 644 624 621 c 1
 618 609 l 1
 497 574 l 2
 479 569 472 567 466 567 c 0
 460 567 453 572 453 579 c 0
 453 585 454 591 465 598 c 2
 578 677 l 1
EndSplineSet
Refer: 415 -1 N 1 0 0 1 0 0 2
Colour: ff00ff
EndChar

StartChar: Ocircumflex
Encoding: 212 212 161
Width: 1100
GlyphClass: 2
Flags: MW
LayerCount: 3
Fore
SplineSet
528 494 m 0
 456 494 392 444 392 286 c 0
 392 142 463 74 553 74 c 0
 639 74 687 139 687 274 c 0
 687 430 634 494 528 494 c 0
796 288 m 0
 796 138 699 34 538 34 c 0
 390 34 283 132 283 274 c 0
 283 420 385 534 538 534 c 0
 697 534 796 436 796 288 c 0
658 579 m 1
 645 558 l 1
 608 572 574 591 540 607 c 1
 506 591 472 572 435 558 c 1
 422 579 l 1
 458 608 497 646 528 677 c 1
 552 677 l 1
 583 644 623 609 658 579 c 1
EndSplineSet
Refer: 415 -1 N 1 0 0 1 0 0 2
Colour: ff00ff
EndChar

StartChar: Otilde
Encoding: 213 213 162
Width: 1100
GlyphClass: 2
Flags: MW
LayerCount: 3
Fore
SplineSet
593 615.1 m 0
 611.7 615.1 621.7 621.7 633.8 662.4 c 1
 656.8 654.7 l 1
 645.8 598.6 621.6 565.6 582 565.6 c 0
 562.2 565.6 544.7 577.7 528.2 589.8 c 0
 511.7 600.8 495.2 611.8 479.8 611.8 c 0
 457.8 611.8 449 599.7 440.2 567.8 c 1
 418.2 574.4 l 1
 430.3 630.5 450 661.3 486.3 661.3 c 0
 512.7 661.3 531.5 648.1 548 634.9 c 0
 562.3 623.9 576.5 615.1 593 615.1 c 0
528 494 m 0
 456 494 392 444 392 286 c 0
 392 142 463 74 553 74 c 0
 639 74 687 139 687 274 c 0
 687 430 634 494 528 494 c 0
796 288 m 0
 796 138 699 34 538 34 c 0
 390 34 283 132 283 274 c 0
 283 420 385 534 538 534 c 0
 697 534 796 436 796 288 c 0
EndSplineSet
Refer: 415 -1 N 1 0 0 1 0 0 2
Colour: ff00ff
EndChar

StartChar: Odieresis
Encoding: 214 214 163
Width: 1100
GlyphClass: 2
Flags: MW
LayerCount: 3
Fore
SplineSet
661 594 m 0
 661 617 679 635 702 635 c 0
 724 635 742 617 742 594 c 0
 742 572 724 554 702 554 c 0
 679 554 661 572 661 594 c 0
341 594 m 0
 341 617 359 635 381 635 c 0
 404 635 422 617 422 594 c 0
 422 572 404 554 381 554 c 0
 359 554 341 572 341 594 c 0
528 494 m 0
 456 494 392 444 392 286 c 0
 392 142 463 74 553 74 c 0
 639 74 687 139 687 274 c 0
 687 430 634 494 528 494 c 0
796 288 m 0
 796 138 699 34 538 34 c 0
 390 34 283 132 283 274 c 0
 283 420 385 534 538 534 c 0
 697 534 796 436 796 288 c 0
EndSplineSet
Refer: 415 -1 N 1 0 0 1 0 0 2
Colour: ff80cc
EndChar

StartChar: multiply
Encoding: 215 215 164
Width: 1100
GlyphClass: 2
Flags: MW
LayerCount: 3
Fore
SplineSet
647.9 322 m 1
 555 230 l 1
 647.9 139.1 l 1
 610.9 102.1 l 1
 520 194.1 l 1
 428 102.1 l 1
 391 139.1 l 1
 484 230 l 1
 391 322 l 1
 428 358.9 l 1
 520 266 l 1
 610.9 358.9 l 1
 647.9 322 l 1
EndSplineSet
Refer: 415 -1 N 1 0 0 1 0 0 2
EndChar

StartChar: Oslash
Encoding: 216 216 165
Width: 1100
GlyphClass: 2
Flags: MW
LayerCount: 3
Fore
SplineSet
364 19 m 1
 339 38 l 1
 375.9 83.4 l 1
 318.1 125.7 283 192.7 283 274 c 0
 283 420 385 534 538 534 c 0
 604.5 534 660.5 516.9 703.2 486.1 c 1
 756 551 l 1
 781 533 l 1
 726.9 466.3 l 1
 771.4 423.3 796 361.9 796 288 c 0
 796 138 699 34 538 34 c 0
 487.1 34 441.1 45.6 402.6 66.6 c 1
 364 19 l 1
528 494 m 0
 456 494 392 444 392 286 c 0
 392 225.7 404.4 178.7 425.5 144.5 c 1
 656.4 428.5 l 1
 630.3 473.8 587.5 494 528 494 c 0
670.6 396.9 m 1
 445 118.9 l 1
 473.4 88.7 511.2 74 553 74 c 0
 639 74 687 139 687 274 c 0
 687 324.2 681.6 364.8 670.6 396.9 c 1
EndSplineSet
Refer: 415 -1 N 1 0 0 1 0 0 2
Colour: ff80cc
EndChar

StartChar: Ugrave
Encoding: 217 217 166
Width: 1100
GlyphClass: 2
Flags: MW
LayerCount: 3
Fore
SplineSet
666 376 m 2
 666 432 664 483 658 526 c 1
 660 528 l 1
 660 528 680 526 698 526 c 0
 715 526 736 528 736 528 c 1
 737 526 l 1
 731 486 730 432 730 376 c 2
 730 263 l 2
 730 123 673 34 524 34 c 0
 446 34 332 66 332 219 c 2
 332 376 l 2
 332 432 331 483 325 526 c 1
 326 528 l 1
 326 528 355 526 380 526 c 0
 406 526 435 528 435 528 c 1
 436 526 l 1
 430 486 428 432 428 376 c 2
 428 244 l 2
 428 187 431 79 540 79 c 0
 655 79 666 166 666 250 c 2
 666 376 l 2
497 677 m 1
 610 598 l 2
 621 591 622 585 622 579 c 0
 622 572 616 567 610 567 c 0
 604 567 596 569 578 574 c 2
 457 609 l 1
 451 621 l 1
 458 644 475 662 497 677 c 1
EndSplineSet
Refer: 415 -1 N 1 0 0 1 0 0 2
Colour: ff00ff
EndChar

StartChar: Uacute
Encoding: 218 218 167
Width: 1100
GlyphClass: 2
Flags: MW
LayerCount: 3
Fore
SplineSet
666 376 m 2
 666 432 664 483 658 526 c 1
 660 528 l 1
 660 528 680 526 698 526 c 0
 715 526 736 528 736 528 c 1
 737 526 l 1
 731 486 730 432 730 376 c 2
 730 263 l 2
 730 123 673 34 524 34 c 0
 446 34 332 66 332 219 c 2
 332 376 l 2
 332 432 331 483 325 526 c 1
 326 528 l 1
 326 528 355 526 380 526 c 0
 406 526 435 528 435 528 c 1
 436 526 l 1
 430 486 428 432 428 376 c 2
 428 244 l 2
 428 187 431 79 540 79 c 0
 655 79 666 166 666 250 c 2
 666 376 l 2
618 677 m 1
 640 662 657 644 664 621 c 1
 658 609 l 1
 537 574 l 2
 519 569 512 567 506 567 c 0
 500 567 493 572 493 579 c 0
 493 585 494 591 505 598 c 2
 618 677 l 1
EndSplineSet
Refer: 415 -1 N 1 0 0 1 0 0 2
Colour: ff00ff
EndChar

StartChar: Ucircumflex
Encoding: 219 219 168
Width: 1100
GlyphClass: 2
Flags: MW
LayerCount: 3
Fore
SplineSet
666 376 m 2
 666 432 664 483 658 526 c 1
 660 528 l 1
 660 528 680 526 698 526 c 0
 715 526 736 528 736 528 c 1
 737 526 l 1
 731 486 730 432 730 376 c 2
 730 263 l 2
 730 123 673 34 524 34 c 0
 446 34 332 66 332 219 c 2
 332 376 l 2
 332 432 331 483 325 526 c 1
 326 528 l 1
 326 528 355 526 380 526 c 0
 406 526 435 528 435 528 c 1
 436 526 l 1
 430 486 428 432 428 376 c 2
 428 244 l 2
 428 187 431 79 540 79 c 0
 655 79 666 166 666 250 c 2
 666 376 l 2
668 579 m 1
 655 558 l 1
 618 572 584 591 550 607 c 1
 516 591 482 572 445 558 c 1
 432 579 l 1
 468 608 507 646 538 677 c 1
 562 677 l 1
 593 644 633 609 668 579 c 1
EndSplineSet
Refer: 415 -1 N 1 0 0 1 0 0 2
Colour: ff00ff
EndChar

StartChar: Udieresis
Encoding: 220 220 169
Width: 1100
GlyphClass: 2
Flags: MW
LayerCount: 3
Fore
SplineSet
571 595 m 0
 571 617 589 635 612 635 c 0
 633 635 652 617 652 595 c 0
 652 573 633 555 612 555 c 0
 589 555 571 573 571 595 c 0
441 595 m 0
 441 617 460 635 482 635 c 0
 504 635 522 617 522 595 c 0
 522 573 504 555 482 555 c 0
 460 555 441 573 441 595 c 0
666 376 m 2
 666 432 664 483 658 526 c 1
 660 528 l 1
 660 528 680 526 698 526 c 0
 715 526 736 528 736 528 c 1
 737 526 l 1
 731 486 730 432 730 376 c 2
 730 263 l 2
 730 123 673 34 524 34 c 0
 446 34 332 66 332 219 c 2
 332 376 l 2
 332 432 331 483 325 526 c 1
 326 528 l 1
 326 528 355 526 380 526 c 0
 406 526 435 528 435 528 c 1
 436 526 l 1
 430 486 428 432 428 376 c 2
 428 244 l 2
 428 187 431 79 540 79 c 0
 655 79 666 166 666 250 c 2
 666 376 l 2
EndSplineSet
Refer: 415 -1 N 1 0 0 1 0 0 2
Colour: ff9cb0
EndChar

StartChar: Yacute
Encoding: 221 221 170
Width: 1100
GlyphClass: 2
Flags: MW
LayerCount: 3
Fore
SplineSet
598 677 m 1
 620 662 637 644 644 621 c 1
 638 609 l 1
 517 574 l 2
 499 569 492 567 486 567 c 0
 480 567 473 572 473 579 c 0
 473 585 474 591 485 598 c 2
 598 677 l 1
580.2 254.3 m 1
 580.8 180 582.7 73.9 586 38 c 1
 574 41 542 41 531 41 c 0
 520 41 489 41 477 38 c 1
 481.2 79.8 481.9 174 482 247 c 1
 454 296.1 340 482 310 527 c 1
 322 524 356 524 368 524 c 0
 381 524 414 524 427 527 c 1
 464.8 452.3 506 385.3 550.6 309.5 c 1
 592 374.6 638.1 453.3 674 527 c 1
 682 524 711 524 721 524 c 0
 730 524 742 524 752 527 c 1
 662.2 388.3 610.2 314.2 580.2 254.3 c 1
EndSplineSet
Refer: 415 -1 N 1 0 0 1 0 0 2
Colour: ff00ff
EndChar

StartChar: Thorn
Encoding: 222 222 171
Width: 1100
GlyphClass: 2
Flags: MW
LayerCount: 3
Fore
SplineSet
382 374 m 2
 382 431 380 482 374 524 c 1
 376 527 l 1
 376 527 404 524 430 524 c 0
 456 524 485 527 485 527 c 1
 486 524 l 1
 482.2 499.1 480 468.1 478.9 434.1 c 1
 505.8 435 530.5 435 544 435 c 0
 683 435 728 351 728 298 c 0
 728 242 667 151 534 151 c 0
 508.7 151 490.4 151.9 478.3 155.3 c 1
 479 112.6 481.3 74 486 41 c 1
 484 38 l 1
 484 38 456 41 430 41 c 0
 404 41 375 38 375 38 c 1
 374 41 l 1
 380 81 382 134 382 191 c 2
 382 374 l 2
478 191.5 m 1
 486.1 189.7 503.4 188 530 188 c 0
 584 188 624 201 624 298 c 0
 624 388 588 398 543 398 c 0
 529.6 398 495 394.3 478.1 389.6 c 1
 478.1 384.4 478 379.2 478 374 c 2
 478 191.5 l 1
EndSplineSet
Refer: 415 -1 N 1 0 0 1 0 0 2
EndChar

StartChar: germandbls
Encoding: 223 223 172
Width: 1100
GlyphClass: 2
Flags: MW
LayerCount: 3
Fore
SplineSet
566 37 m 0
 528 37 490 55 484 59 c 1
 483 61 l 1
 492 75 492 91 498 111 c 1
 506 112 l 1
 514 97 544 72 566 72 c 0
 588 72 601 86 601 162 c 0
 601 232 566 290 503 338 c 1
 503 355 l 1
 553 394 567 421 567 475 c 0
 567 516 563 536 523 536 c 0
 445 536 438 457 438 377 c 2
 438 195 l 2
 438 139 438 88 445 45 c 1
 444 43 l 1
 444 43 419 45 393 45 c 0
 367 45 342 43 342 43 c 1
 342 45 l 1
 348 85 349 139 349 195 c 2
 349 315 l 2
 349 324 347 327 340 327 c 2
 307 327 l 2
 303 327 302 328 302 331 c 2
 302 352 l 2
 302 358 307 367 320 367 c 0
 343 367 349 383 349 403 c 0
 349 527 470 569 530 569 c 0
 608 569 655 521 655 485 c 0
 655 427 622 393 570 353 c 1
 570 352 l 1
 629 313 696 262 696 175 c 0
 696 96 635 37 566 37 c 0
EndSplineSet
Refer: 415 -1 N 1 0 0 1 0 0 2
EndChar

StartChar: agrave
Encoding: 224 224 173
Width: 1100
GlyphClass: 2
Flags: MW
LayerCount: 3
Fore
SplineSet
521.7 588.1 m 1
 578.8 486.9 l 2
 582.1 480.3 585.5 471.5 585.5 464.9 c 0
 585.5 457.2 578.8 451.7 572.2 451.7 c 0
 565.6 451.7 556.8 456.1 542.5 468.2 c 2
 443.5 555.1 l 1
 444.7 563.9 l 1
 451.3 571.6 475.5 590.3 505.2 590.3 c 0
 509.6 590.3 518.4 589.2 521.7 588.1 c 1
576 208 m 1
 516 192 l 2
 474 181 464 155 464 124 c 0
 464 104 476 81 499 81 c 0
 520 81 544 98 563 113 c 0
 569 118 576 123 576 133 c 2
 576 208 l 1
656 107 m 0
 656 92 665 84 674 84 c 0
 684 84 694 95 701 100 c 1
 703 98 l 1
 711 94 715 86 719 78 c 1
 695 48 664 36 635 36 c 0
 602 36 581 56 575 80 c 1
 574 80 l 1
 536 46 499 36 470 36 c 0
 417 36 374 62 374 117 c 0
 374 168 434 212 506 229 c 2
 572 245 l 2
 574 245 576 248 576 254 c 0
 576 311 557 332 517 332 c 0
 483 332 452 307 432 273 c 1
 415 274 l 1
 395 323 l 1
 398 326 l 1
 416 342 470 373 524 373 c 0
 591 373 659 348 659 251 c 0
 659 243 656 129 656 107 c 0
EndSplineSet
Refer: 415 -1 N 1 0 0 1 0 0 2
Colour: ff00ff
EndChar

StartChar: aacute
Encoding: 225 225 174
Width: 1100
GlyphClass: 2
Flags: MW
LayerCount: 3
Fore
SplineSet
511.3 578.2 m 1
 513.5 579.3 520.1 580.5 524.5 580.5 c 0
 549.8 580.5 565.2 568.4 571.8 560.7 c 1
 579.5 540.8 l 1
 480.5 451.8 l 2
 469.5 441.9 457.4 438.5 449.7 438.5 c 0
 443.1 438.5 436.5 445.2 436.5 450.7 c 0
 436.5 455.1 437.6 462.8 443.1 470.5 c 2
 511.3 578.2 l 1
576 208 m 1
 516 192 l 2
 474 181 464 155 464 124 c 0
 464 104 476 81 499 81 c 0
 520 81 544 98 563 113 c 0
 569 118 576 123 576 133 c 2
 576 208 l 1
656 107 m 0
 656 92 665 84 674 84 c 0
 684 84 694 95 701 100 c 1
 703 98 l 1
 711 94 715 86 719 78 c 1
 695 48 664 36 635 36 c 0
 602 36 581 56 575 80 c 1
 574 80 l 1
 536 46 499 36 470 36 c 0
 417 36 374 62 374 117 c 0
 374 168 434 212 506 229 c 2
 572 245 l 2
 574 245 576 248 576 254 c 0
 576 311 557 332 517 332 c 0
 483 332 452 307 432 273 c 1
 415 274 l 1
 395 323 l 1
 398 326 l 1
 416 342 470 373 524 373 c 0
 591 373 659 348 659 251 c 0
 659 243 656 129 656 107 c 0
EndSplineSet
Refer: 415 -1 N 1 0 0 1 0 0 2
Colour: ff00ff
EndChar

StartChar: acircumflex
Encoding: 226 226 175
Width: 1100
GlyphClass: 2
Flags: MW
LayerCount: 3
Fore
SplineSet
547 548.8 m 1
 572.3 508.1 603 471.8 633.8 437.7 c 1
 613 422.2 l 1
 577.8 444.2 553.6 460.8 525 490.5 c 1
 494.2 458.6 471 444.2 438 422.2 c 1
 417.2 437.7 l 1
 446.9 471.8 479.8 509.2 504 548.8 c 1
 547 548.8 l 1
576 208 m 1
 516 192 l 2
 474 181 464 155 464 124 c 0
 464 104 476 81 499 81 c 0
 520 81 544 98 563 113 c 0
 569 118 576 123 576 133 c 2
 576 208 l 1
656 107 m 0
 656 92 665 84 674 84 c 0
 684 84 694 95 701 100 c 1
 703 98 l 1
 711 94 715 86 719 78 c 1
 695 48 664 36 635 36 c 0
 602 36 581 56 575 80 c 1
 574 80 l 1
 536 46 499 36 470 36 c 0
 417 36 374 62 374 117 c 0
 374 168 434 212 506 229 c 2
 572 245 l 2
 574 245 576 248 576 254 c 0
 576 311 557 332 517 332 c 0
 483 332 452 307 432 273 c 1
 415 274 l 1
 395 323 l 1
 398 326 l 1
 416 342 470 373 524 373 c 0
 591 373 659 348 659 251 c 0
 659 243 656 129 656 107 c 0
EndSplineSet
Refer: 415 -1 N 1 0 0 1 0 0 2
Colour: ff00ff
EndChar

StartChar: atilde
Encoding: 227 227 176
Width: 1100
GlyphClass: 2
Flags: MW
LayerCount: 3
Fore
SplineSet
574 486.1 m 0
 592.7 486.1 602.7 492.7 614.8 533.4 c 1
 637.8 525.7 l 1
 626.8 469.6 602.6 436.6 563 436.6 c 0
 543.2 436.6 525.7 448.7 509.2 460.8 c 0
 492.7 471.8 476.2 482.8 460.8 482.8 c 0
 438.8 482.8 430 470.7 421.2 438.8 c 1
 399.2 445.4 l 1
 411.3 501.5 431 532.3 467.3 532.3 c 0
 493.7 532.3 512.5 519.1 529 505.9 c 0
 543.3 494.9 557.5 486.1 574 486.1 c 0
576 208 m 1
 516 192 l 2
 474 181 464 155 464 124 c 0
 464 104 476 81 499 81 c 0
 520 81 544 98 563 113 c 0
 569 118 576 123 576 133 c 2
 576 208 l 1
656 107 m 0
 656 92 665 84 674 84 c 0
 684 84 694 95 701 100 c 1
 703 98 l 1
 711 94 715 86 719 78 c 1
 695 48 664 36 635 36 c 0
 602 36 581 56 575 80 c 1
 574 80 l 1
 536 46 499 36 470 36 c 0
 417 36 374 62 374 117 c 0
 374 168 434 212 506 229 c 2
 572 245 l 2
 574 245 576 248 576 254 c 0
 576 311 557 332 517 332 c 0
 483 332 452 307 432 273 c 1
 415 274 l 1
 395 323 l 1
 398 326 l 1
 416 342 470 373 524 373 c 0
 591 373 659 348 659 251 c 0
 659 243 656 129 656 107 c 0
EndSplineSet
Refer: 415 -1 N 1 0 0 1 0 0 2
Colour: ff00ff
EndChar

StartChar: adieresis
Encoding: 228 228 177
Width: 1100
GlyphClass: 2
Flags: MW
LayerCount: 3
Fore
SplineSet
547.8 501 m 0
 547.8 526.3 567.6 546.1 591.8 546.1 c 0
 616 546.1 636.9 526.3 636.9 501 c 0
 636.9 476.8 616 457 591.8 457 c 0
 567.6 457 547.8 476.8 547.8 501 c 0
398.2 501 m 0
 398.2 526.3 419 546.1 443.2 546.1 c 0
 467.4 546.1 487.3 526.3 487.3 501 c 0
 487.3 476.8 467.4 457 443.2 457 c 0
 419 457 398.2 476.8 398.2 501 c 0
576 208 m 1
 516 192 l 2
 474 181 464 155 464 124 c 0
 464 104 476 81 499 81 c 0
 520 81 544 98 563 113 c 0
 569 118 576 123 576 133 c 2
 576 208 l 1
656 107 m 0
 656 92 665 84 674 84 c 0
 684 84 694 95 701 100 c 1
 703 98 l 1
 711 94 715 86 719 78 c 1
 695 48 664 36 635 36 c 0
 602 36 581 56 575 80 c 1
 574 80 l 1
 536 46 499 36 470 36 c 0
 417 36 374 62 374 117 c 0
 374 168 434 212 506 229 c 2
 572 245 l 2
 574 245 576 248 576 254 c 0
 576 311 557 332 517 332 c 0
 483 332 452 307 432 273 c 1
 415 274 l 1
 395 323 l 1
 398 326 l 1
 416 342 470 373 524 373 c 0
 591 373 659 348 659 251 c 0
 659 243 656 129 656 107 c 0
EndSplineSet
Refer: 415 -1 N 1 0 0 1 0 0 2
Colour: ff00ff
EndChar

StartChar: aring
Encoding: 229 229 178
Width: 1100
GlyphClass: 2
Flags: MW
LayerCount: 3
Fore
SplineSet
517 555 m 0
 498 555 483 539.3 483 520 c 0
 483 502.4 498.2 485 517 485 c 0
 535.5 485 550 502.6 550 520 c 0
 550 539.4 534.8 555 517 555 c 0
516 589 m 0
 554.5 589 588 559.2 588 520 c 0
 588 481.9 555.6 451 516 451 c 0
 478.3 451 445 480.8 445 520 c 0
 445 559.2 478.3 589 516 589 c 0
576 208 m 1
 516 192 l 2
 474 181 464 155 464 124 c 0
 464 104 476 81 499 81 c 0
 520 81 544 98 563 113 c 0
 569 118 576 123 576 133 c 2
 576 208 l 1
656 107 m 0
 656 92 665 84 674 84 c 0
 684 84 694 95 701 100 c 1
 703 98 l 1
 711 94 715 86 719 78 c 1
 695 48 664 36 635 36 c 0
 602 36 581 56 575 80 c 1
 574 80 l 1
 536 46 499 36 470 36 c 0
 417 36 374 62 374 117 c 0
 374 168 434 212 506 229 c 2
 572 245 l 2
 574 245 576 248 576 254 c 0
 576 311 557 332 517 332 c 0
 483 332 452 307 432 273 c 1
 415 274 l 1
 395 323 l 1
 398 326 l 1
 416 342 470 373 524 373 c 0
 591 373 659 348 659 251 c 0
 659 243 656 129 656 107 c 0
EndSplineSet
Refer: 415 -1 N 1 0 0 1 0 0 2
Colour: ff00ff
EndChar

StartChar: ae
Encoding: 230 230 179
Width: 1100
GlyphClass: 2
Flags: MW
LayerCount: 3
Fore
SplineSet
473.4 131.4 m 0
 478.2 145.2 481.4 181.7 481.9 207.3 c 1
 406.5 199.7 355.5 176.5 355.5 133 c 0
 355.5 101.9 372.9 91 406.4 91 c 0
 433.1 91 464 105.4 473.4 131.4 c 0
633 342 m 0
 592.3 342 563.4 310.7 555.9 254.5 c 1
 657.5 259.5 681 246 681 283 c 0
 681 305.5 662.8 342 633 342 c 0
414 342 m 0
 383.5 342 350.6 313.3 328.5 278.5 c 2
 326 274.5 l 1
 306.1 276.6 l 1
 291.1 334.3 l 1
 295.6 340.6 l 1
 296.4 341.2 l 2
 316.3 357.5 360 390 421.5 390 c 0
 442.4 390 497.8 387.4 528.6 342.3 c 1
 554.2 373 592.5 390 634 390 c 0
 723.9 390 758 314.9 758 285 c 0
 758 261.4 753.8 240.6 736.6 225.7 c 2
 736 225.2 l 1
 735.2 224.8 l 2
 707.1 210.2 657.9 216.4 554 210.7 c 1
 555.8 138.8 589.8 94 640 94 c 0
 674.6 94 701.9 112.1 726.6 142.4 c 2
 732.4 149.5 l 1
 755.2 117.6 l 1
 753.2 113.8 l 2
 730.9 70.3 681.9 39 630 39 c 0
 565 39 538.1 66.9 521.2 87.8 c 1
 487 57.2 448.6 39 404.2 39 c 0
 291.8 39 275 93 275 129 c 0
 275 196.8 348.4 240.7 481.9 250.8 c 1
 480.4 312.7 467.4 342 414 342 c 0
EndSplineSet
Refer: 415 -1 N 1 0 0 1 0 0 2
EndChar

StartChar: ccedilla
Encoding: 231 231 180
Width: 1100
GlyphClass: 2
Flags: MW
LayerCount: 3
Fore
SplineSet
484.1 -39 m 1
 473.7 -28.6 l 1
 503.8 37.3 l 1
 409.9 47.2 356 111 356 200 c 0
 356 306 438 373 539 373 c 0
 576 373 624 361 647 349 c 1
 648 347 l 1
 631 271 l 1
 618 270 l 1
 598 304 567 332 538 332 c 0
 488 332 448 296 448 219 c 0
 448 140 491 85 548 85 c 0
 578 85 607 95 636 131 c 1
 638 131 l 1
 648 125 653 119 654 112 c 1
 636.2 73.6 592.9 40.4 540.7 36.4 c 1
 526.2 0.9 l 1
 581 0.9 596 -30.8 596 -52 c 0
 596 -88.6 560.2 -115 511 -115 c 0
 486.2 -115 474.3 -112.8 446.9 -100.6 c 1
 459.2 -70.9 l 1
 476.6 -77.9 488.7 -82 507 -82 c 0
 527.4 -82 543 -70.4 543 -56 c 0
 543 -45 534.6 -35 520 -35 c 0
 506.8 -35 493 -36 484.1 -39 c 1
EndSplineSet
Refer: 415 -1 N 1 0 0 1 0 0 2
Colour: ff00ff
EndChar

StartChar: egrave
Encoding: 232 232 181
Width: 1100
GlyphClass: 2
Flags: MW
LayerCount: 3
Fore
SplineSet
536.7 568.1 m 1
 593.8 466.9 l 2
 597.1 460.3 600.5 451.5 600.5 444.9 c 0
 600.5 437.2 593.8 431.7 587.2 431.7 c 0
 580.6 431.7 571.8 436.1 557.5 448.2 c 2
 458.5 535.1 l 1
 459.7 543.9 l 1
 466.3 551.6 490.5 570.3 520.2 570.3 c 0
 524.6 570.3 533.4 569.2 536.7 568.1 c 1
463 259 m 1
 570 259 l 2
 578 259 581 263 581 269 c 0
 581 323 562 336 534 336 c 0
 517 336 474 326 463 259 c 1
666 129 m 1
 677 123 682 114 682 103 c 1
 653 64 597 36 543 36 c 0
 431 36 366 107 366 193 c 0
 366 307 463 373 534 373 c 0
 634 373 676 302 676 239 c 0
 676 230 671 226 663 226 c 2
 461 226 l 1
 461 120 515 87 558 87 c 0
 599 87 640 101 666 129 c 1
EndSplineSet
Refer: 415 -1 N 1 0 0 1 0 0 2
Colour: ff00ff
EndChar

StartChar: eacute
Encoding: 233 233 182
Width: 1100
GlyphClass: 2
Flags: MW
LayerCount: 3
Fore
SplineSet
535.3 568.2 m 1
 537.5 569.3 544.1 570.5 548.5 570.5 c 0
 573.8 570.5 589.2 558.4 595.8 550.7 c 1
 603.5 530.8 l 1
 504.5 441.8 l 2
 493.5 431.9 481.4 428.5 473.7 428.5 c 0
 467.1 428.5 460.5 435.2 460.5 440.7 c 0
 460.5 445.1 461.6 452.8 467.1 460.5 c 2
 535.3 568.2 l 1
463 259 m 1
 570 259 l 2
 578 259 581 263 581 269 c 0
 581 323 562 336 534 336 c 0
 517 336 474 326 463 259 c 1
666 129 m 1
 677 123 682 114 682 103 c 1
 653 64 597 36 543 36 c 0
 431 36 366 107 366 193 c 0
 366 307 463 373 534 373 c 0
 634 373 676 302 676 239 c 0
 676 230 671 226 663 226 c 2
 461 226 l 1
 461 120 515 87 558 87 c 0
 599 87 640 101 666 129 c 1
EndSplineSet
Refer: 415 -1 N 1 0 0 1 0 0 2
Colour: ff00ff
EndChar

StartChar: ecircumflex
Encoding: 234 234 183
Width: 1100
GlyphClass: 2
Flags: MW
LayerCount: 3
Fore
SplineSet
554 548.8 m 1
 579.3 508.1 610 471.8 640.8 437.7 c 1
 620 422.2 l 1
 584.8 444.2 560.6 460.8 532 490.5 c 1
 501.2 458.6 478 444.2 445 422.2 c 1
 424.2 437.7 l 1
 453.9 471.8 486.8 509.2 511 548.8 c 1
 554 548.8 l 1
463 259 m 1
 570 259 l 2
 578 259 581 263 581 269 c 0
 581 323 562 336 534 336 c 0
 517 336 474 326 463 259 c 1
666 129 m 1
 677 123 682 114 682 103 c 1
 653 64 597 36 543 36 c 0
 431 36 366 107 366 193 c 0
 366 307 463 373 534 373 c 0
 634 373 676 302 676 239 c 0
 676 230 671 226 663 226 c 2
 461 226 l 1
 461 120 515 87 558 87 c 0
 599 87 640 101 666 129 c 1
EndSplineSet
Refer: 415 -1 N 1 0 0 1 0 0 2
Colour: ff00ff
EndChar

StartChar: edieresis
Encoding: 235 235 184
Width: 1100
GlyphClass: 2
Flags: MW
LayerCount: 3
Fore
SplineSet
565.8 501 m 0
 565.8 526.3 585.6 546.1 609.8 546.1 c 0
 634 546.1 654.9 526.3 654.9 501 c 0
 654.9 476.8 634 457 609.8 457 c 0
 585.6 457 565.8 476.8 565.8 501 c 0
416.2 501 m 0
 416.2 526.3 437 546.1 461.2 546.1 c 0
 485.4 546.1 505.3 526.3 505.3 501 c 0
 505.3 476.8 485.4 457 461.2 457 c 0
 437 457 416.2 476.8 416.2 501 c 0
463 259 m 1
 570 259 l 2
 578 259 581 263 581 269 c 0
 581 323 562 336 534 336 c 0
 517 336 474 326 463 259 c 1
666 129 m 1
 677 123 682 114 682 103 c 1
 653 64 597 36 543 36 c 0
 431 36 366 107 366 193 c 0
 366 307 463 373 534 373 c 0
 634 373 676 302 676 239 c 0
 676 230 671 226 663 226 c 2
 461 226 l 1
 461 120 515 87 558 87 c 0
 599 87 640 101 666 129 c 1
EndSplineSet
Refer: 415 -1 N 1 0 0 1 0 0 2
Colour: ff00ff
EndChar

StartChar: igrave
Encoding: 236 236 185
Width: 1120
GlyphClass: 2
Flags: MW
LayerCount: 3
Fore
SplineSet
512.7 588.1 m 1
 569.8 486.9 l 2
 573.1 480.3 576.5 471.5 576.5 464.9 c 0
 576.5 457.2 569.8 451.7 563.2 451.7 c 0
 556.6 451.7 547.8 456.1 533.5 468.2 c 2
 434.5 555.1 l 1
 435.7 563.9 l 1
 442.3 571.6 466.5 590.3 496.2 590.3 c 0
 500.6 590.3 509.4 589.2 512.7 588.1 c 1
489 214 m 2
 489 270 487 313 481 346 c 1
 483 348 l 1
 513 350 559 359 578 367 c 1
 582 367 585 365 585 359 c 0
 579 313 577 282 577 226 c 2
 577 173 l 2
 577 115 579 80 585 37 c 1
 583 35 l 1
 583 35 558 37 533 37 c 0
 507 37 482 35 482 35 c 1
 481 37 l 1
 487 78 489 116 489 173 c 2
 489 214 l 2
EndSplineSet
Refer: 415 -1 N 1 0 0 1 0 0 2
Colour: ff00ff
EndChar

StartChar: iacute
Encoding: 237 237 186
Width: 1120
GlyphClass: 2
Flags: MW
LayerCount: 3
Fore
SplineSet
563.3 578.2 m 1
 565.5 579.3 572.1 580.5 576.5 580.5 c 0
 601.8 580.5 617.2 568.4 623.8 560.7 c 1
 631.5 540.8 l 1
 532.5 451.8 l 2
 521.5 441.9 509.4 438.5 501.7 438.5 c 0
 495.1 438.5 488.5 445.2 488.5 450.7 c 0
 488.5 455.1 489.6 462.8 495.1 470.5 c 2
 563.3 578.2 l 1
489 214 m 2
 489 270 487 313 481 346 c 1
 483 348 l 1
 513 350 559 359 578 367 c 1
 582 367 585 365 585 359 c 0
 579 313 577 282 577 226 c 2
 577 173 l 2
 577 115 579 80 585 37 c 1
 583 35 l 1
 583 35 558 37 533 37 c 0
 507 37 482 35 482 35 c 1
 481 37 l 1
 487 78 489 116 489 173 c 2
 489 214 l 2
EndSplineSet
Refer: 415 -1 N 1 0 0 1 0 0 2
Colour: ff00ff
EndChar

StartChar: icircumflex
Encoding: 238 238 187
Width: 1120
GlyphClass: 2
Flags: MW
LayerCount: 3
Fore
SplineSet
552 548.8 m 1
 577.3 508.1 608 471.8 638.8 437.7 c 1
 618 422.2 l 1
 582.8 444.2 558.6 460.8 530 490.5 c 1
 499.2 458.6 476 444.2 443 422.2 c 1
 422.2 437.7 l 1
 451.9 471.8 484.8 509.2 509 548.8 c 1
 552 548.8 l 1
489 214 m 2
 489 270 487 313 481 346 c 1
 483 348 l 1
 513 350 559 359 578 367 c 1
 582 367 585 365 585 359 c 0
 579 313 577 282 577 226 c 2
 577 173 l 2
 577 115 579 80 585 37 c 1
 583 35 l 1
 583 35 558 37 533 37 c 0
 507 37 482 35 482 35 c 1
 481 37 l 1
 487 78 489 116 489 173 c 2
 489 214 l 2
EndSplineSet
Refer: 415 -1 N 1 0 0 1 0 0 2
Colour: ff00ff
EndChar

StartChar: idieresis
Encoding: 239 239 188
Width: 1120
GlyphClass: 2
Flags: MW
LayerCount: 3
Fore
SplineSet
570.8 501 m 0
 570.8 526.3 590.6 546.1 614.8 546.1 c 0
 639 546.1 659.9 526.3 659.9 501 c 0
 659.9 476.8 639 457 614.8 457 c 0
 590.6 457 570.8 476.8 570.8 501 c 0
421.2 501 m 0
 421.2 526.3 442 546.1 466.2 546.1 c 0
 490.4 546.1 510.3 526.3 510.3 501 c 0
 510.3 476.8 490.4 457 466.2 457 c 0
 442 457 421.2 476.8 421.2 501 c 0
489 214 m 2
 489 270 487 313 481 346 c 1
 483 348 l 1
 513 350 559 359 578 367 c 1
 582 367 585 365 585 359 c 0
 579 313 577 282 577 226 c 2
 577 173 l 2
 577 115 579 80 585 37 c 1
 583 35 l 1
 583 35 558 37 533 37 c 0
 507 37 482 35 482 35 c 1
 481 37 l 1
 487 78 489 116 489 173 c 2
 489 214 l 2
EndSplineSet
Refer: 415 -1 N 1 0 0 1 0 0 2
Colour: ff00ff
EndChar

StartChar: eth
Encoding: 240 240 189
Width: 1100
GlyphClass: 2
Flags: MW
LayerCount: 3
Fore
SplineSet
565.4 76 m 0
 599.2 76 649.9 95.9 649.9 213 c 0
 649.9 247.1 646.9 279 637.9 309.8 c 1
 621.7 328.8 596.3 337 564.3 337 c 0
 489.9 337 471.3 269.9 471.3 215 c 0
 471.3 130.3 515.7 76 565.4 76 c 0
387 202 m 0
 387 336.4 497.5 382 565.4 382 c 0
 581.8 382 597.6 380.2 613.3 376.3 c 1
 597.9 407.4 577.2 436.8 553.3 465.6 c 1
 467.4 410.4 l 1
 440.9 445.8 l 1
 523.2 499 l 1
 516.8 505 l 2
 500.4 520.5 480.7 534.3 461.7 547.3 c 2
 455.3 551.7 l 1
 479.1 579 l 1
 484.5 576.1 l 2
 510.9 561.7 538.2 544.5 565.6 524.6 c 1
 650.7 579.7 l 1
 676.9 544.2 l 1
 601 495.8 l 1
 608.8 487.9 l 1
 685.2 414.8 731 329.6 731 224 c 0
 731 92.7 645 31 552.7 31 c 0
 448.3 31 387 121 387 202 c 0
EndSplineSet
Refer: 415 -1 N 1 0 0 1 0 0 2
EndChar

StartChar: ntilde
Encoding: 241 241 190
Width: 1100
GlyphClass: 2
Flags: MW
LayerCount: 3
Fore
SplineSet
579 486.1 m 0
 597.7 486.1 607.7 492.7 619.8 533.4 c 1
 642.8 525.7 l 1
 631.8 469.6 607.6 436.6 568 436.6 c 0
 548.2 436.6 530.7 448.7 514.2 460.8 c 0
 497.7 471.8 481.2 482.8 465.8 482.8 c 0
 443.8 482.8 435 470.7 426.2 438.8 c 1
 404.2 445.4 l 1
 416.3 501.5 436 532.3 472.3 532.3 c 0
 498.7 532.3 517.5 519.1 534 505.9 c 0
 548.3 494.9 562.5 486.1 579 486.1 c 0
693 180 m 2
 693 122 694 84 700 41 c 1
 699 39 l 1
 699 39 674 41 648 41 c 0
 622 41 598 39 598 39 c 1
 597 41 l 1
 604 82 604 123 604 180 c 2
 604 246 l 2
 604 299 597 324 557 324 c 0
 524 324 512 313 474 268 c 1
 474 180 l 2
 474 122 475 84 481 41 c 1
 480 39 l 1
 480 39 455 41 430 41 c 0
 403 41 378 39 378 39 c 1
 378 41 l 1
 384 82 385 123 385 180 c 2
 385 221 l 2
 385 277 384 321 378 353 c 1
 379 355 l 1
 410 357 453 366 472 374 c 1
 477 374 479 372 479 366 c 1
 475 344 472 312 472 312 c 1
 474 312 l 1
 522 368 541 374 580 374 c 0
 647 374 693 322 693 255 c 2
 693 180 l 2
EndSplineSet
Refer: 415 -1 N 1 0 0 1 0 0 2
Colour: ff00ff
EndChar

StartChar: oslash
Encoding: 248 248 191
Width: 1100
GlyphClass: 2
Flags: MW
LayerCount: 3
Fore
SplineSet
651 394 m 1
 674 376 l 1
 644.6 340.3 l 1
 688.1 306.8 705 252.8 705 204 c 0
 705 124 649 36 534 36 c 0
 487.9 36 450.7 49.4 423 70.9 c 1
 391 32 l 1
 369 52 l 1
 401.4 91.3 l 1
 376 120.6 363 158.5 363 197 c 0
 363 300 428 373 536 373 c 0
 569.4 373 597 366.6 619.5 355.7 c 1
 651 394 l 1
530 335 m 0
 466 335 459 280 459 215 c 0
 459 199.3 459.5 181.8 461.8 164.6 c 1
 584.4 313.2 l 1
 572.3 327.9 554.8 335 530 335 c 0
598.8 284.7 m 1
 470.2 128.2 l 1
 481.1 97.5 502.5 74 544 74 c 0
 578 74 609 98 609 184 c 0
 609 227.1 606.4 260.5 598.8 284.7 c 1
EndSplineSet
Refer: 415 -1 N 1 0 0 1 0 0 2
Colour: ff80cc
EndChar

StartChar: udieresis
Encoding: 252 252 192
Width: 1100
GlyphClass: 2
Flags: MW
LayerCount: 3
Fore
SplineSet
556.8 501 m 0
 556.8 526.3 576.6 546.1 600.8 546.1 c 0
 625 546.1 645.9 526.3 645.9 501 c 0
 645.9 476.8 625 457 600.8 457 c 0
 576.6 457 556.8 476.8 556.8 501 c 0
407.2 501 m 0
 407.2 526.3 428 546.1 452.2 546.1 c 0
 476.4 546.1 496.3 526.3 496.3 501 c 0
 496.3 476.8 476.4 457 452.2 457 c 0
 428 457 407.2 476.8 407.2 501 c 0
588 91 m 1
 546 46 523 35 492 35 c 0
 418 35 375 86 375 137 c 2
 375 230 l 2
 375 286 374 322 368 364 c 1
 369 367 l 1
 369 367 394 364 419 364 c 0
 446 364 470 367 470 367 c 1
 471 364 l 1
 464 325 464 286 464 230 c 2
 464 162 l 2
 464 95 489 83 512 83 c 0
 545 83 569 116 588 139 c 1
 588 230 l 2
 588 286 587 322 581 364 c 1
 582 367 l 1
 582 367 607 364 632 364 c 0
 659 364 683 367 683 367 c 1
 684 364 l 1
 677 325 677 286 677 230 c 2
 677 187 l 2
 677 130 683 75 689 43 c 1
 688 40 l 1
 678 42 650 43 640 43 c 0
 629 43 610 42 600 40 c 0
 596 40 593 41 593 43 c 2
 590 91 l 1
 588 91 l 1
EndSplineSet
Refer: 415 -1 N 1 0 0 1 0 0 2
LCarets2: 1 72
Colour: ff00ff
EndChar

StartChar: yacute
Encoding: 253 253 193
Width: 1100
GlyphClass: 2
Flags: MW
LayerCount: 3
Fore
SplineSet
558.3 578.2 m 1
 560.5 579.3 567.1 580.5 571.5 580.5 c 0
 596.8 580.5 612.2 568.4 618.8 560.7 c 1
 626.5 540.8 l 1
 527.5 451.8 l 2
 516.5 441.9 504.4 438.5 496.7 438.5 c 0
 490.1 438.5 483.5 445.2 483.5 450.7 c 0
 483.5 455.1 484.6 462.8 490.1 470.5 c 2
 558.3 578.2 l 1
356 388 m 1
 366 386 399 386 409 386 c 0
 419 386 450 386 460 388 c 1
 484.3 313.2 515.2 239.2 547.4 161.6 c 1
 578.3 233 607.9 314.9 632 388 c 1
 639 386 668 386 675 386 c 0
 683 386 700 386 707 388 c 1
 683 338 518 -20 490 -113 c 1
 482 -111 461 -110 453 -110 c 0
 446 -110 420 -111 413 -113 c 1
 447 -57 473 -6 497 50 c 1
 494 55 l 1
 466 131 385 323 356 388 c 1
EndSplineSet
Refer: 415 -1 N 1 0 0 1 0 0 2
Colour: ff00ff
EndChar

StartChar: thorn
Encoding: 254 254 194
Width: 515
GlyphClass: 2
Flags: MW
LayerCount: 3
Fore
SplineSet
207 287 m 1
 207 112 l 1
 226 92 258 90 270 90 c 0
 350 90 359 149 359 214 c 0
 359 323 319 339 286 339 c 0
 260 339 223 327 207 287 c 1
207 34 m 2
 207 -23 208 -73 214 -116 c 1
 213 -118 l 1
 213 -118 186 -116 161 -116 c 0
 134 -116 113 -118 113 -118 c 1
 112 -116 l 1
 119 -76 120 -22 120 34 c 2
 120 419 l 2
 120 476 118 528 112 560 c 1
 114 563 l 1
 144 565 189 574 208 581 c 1
 212 581 214 579 214 574 c 0
 208 528 207 489 207 433 c 2
 207 352 l 1
 206 327 l 1
 220 351 254 387 306 387 c 0
 378 387 451 313 451 234 c 0
 451 122 361 50 274 50 c 0
 247 50 226 56 207 67 c 1
 207 34 l 2
EndSplineSet
Refer: 415 -1 N 1 0 0 1 -260 0 2
EndChar

StartChar: ydieresis
Encoding: 255 255 195
Width: 1100
GlyphClass: 2
Flags: MW
LayerCount: 3
Fore
SplineSet
568.8 501 m 0
 568.8 526.3 588.6 546.1 612.8 546.1 c 0
 637 546.1 657.9 526.3 657.9 501 c 0
 657.9 476.8 637 457 612.8 457 c 0
 588.6 457 568.8 476.8 568.8 501 c 0
419.2 501 m 0
 419.2 526.3 440 546.1 464.2 546.1 c 0
 488.4 546.1 508.3 526.3 508.3 501 c 0
 508.3 476.8 488.4 457 464.2 457 c 0
 440 457 419.2 476.8 419.2 501 c 0
356 388 m 1
 366 386 399 386 409 386 c 0
 419 386 450 386 460 388 c 1
 484.3 313.2 515.2 239.2 547.4 161.6 c 1
 578.3 233 607.9 314.9 632 388 c 1
 639 386 668 386 675 386 c 0
 683 386 700 386 707 388 c 1
 683 338 518 -20 490 -113 c 1
 482 -111 461 -110 453 -110 c 0
 446 -110 420 -111 413 -113 c 1
 447 -57 473 -6 497 50 c 1
 494 55 l 1
 466 131 385 323 356 388 c 1
EndSplineSet
Refer: 415 -1 N 1 0 0 1 0 0 2
Colour: ff00ff
EndChar

StartChar: Amacron
Encoding: 256 256 196
Width: 1100
GlyphClass: 2
Flags: MW
LayerCount: 3
Fore
SplineSet
628 614 m 2
 423 614 l 2
 414 614 411 621 411 628 c 0
 411 637 420 652 430 652 c 2
 637 652 l 2
 645 652 648 645 648 639 c 0
 648 629 639 614 628 614 c 2
512.5 414.7 m 1
 490.1 363 464.7 304.9 440.9 248 c 1
 464.7 247.7 497.2 246 519 246 c 0
 536.3 246 560 246.5 581.5 247.1 c 1
 562.9 295.1 540.1 351 512.5 414.7 c 1
423.2 205.1 m 1
 397.7 142.2 375.7 83.3 364 39 c 1
 355 41 338 41 330 41 c 0
 322 41 297 41 288 39 c 1
 364 204 437 368 509 534 c 1
 562 534 l 1
 631 370 730 114 767 39 c 1
 754 41 719 41 706 41 c 0
 694 41 666 41 653 39 c 1
 648.7 54.9 632.5 111.1 597.2 205.6 c 1
 572.6 206.3 546.6 207 523 207 c 0
 496 207 452.3 206.1 423.2 205.1 c 1
EndSplineSet
Refer: 415 -1 N 1 0 0 1 0 0 2
Colour: ff00ff
EndChar

StartChar: amacron
Encoding: 257 257 197
Width: 1100
GlyphClass: 2
Flags: MW
LayerCount: 3
Fore
SplineSet
634 473 m 2
 429 473 l 2
 420 473 417 480 417 487 c 0
 417 496 426 511 436 511 c 2
 643 511 l 2
 651 511 654 504 654 498 c 0
 654 488 645 473 634 473 c 2
576 208 m 1
 516 192 l 2
 474 181 464 155 464 124 c 0
 464 104 476 81 499 81 c 0
 520 81 544 98 563 113 c 0
 569 118 576 123 576 133 c 2
 576 208 l 1
656 107 m 0
 656 92 665 84 674 84 c 0
 684 84 694 95 701 100 c 1
 703 98 l 1
 711 94 715 86 719 78 c 1
 695 48 664 36 635 36 c 0
 602 36 581 56 575 80 c 1
 574 80 l 1
 536 46 499 36 470 36 c 0
 417 36 374 62 374 117 c 0
 374 168 434 212 506 229 c 2
 572 245 l 2
 574 245 576 248 576 254 c 0
 576 311 557 332 517 332 c 0
 483 332 452 307 432 273 c 1
 415 274 l 1
 395 323 l 1
 398 326 l 1
 416 342 470 373 524 373 c 0
 591 373 659 348 659 251 c 0
 659 243 656 129 656 107 c 0
EndSplineSet
Refer: 415 -1 N 1 0 0 1 0 0 2
Colour: ff00ff
EndChar

StartChar: Abreve
Encoding: 258 258 198
Width: 1100
GlyphClass: 2
Flags: MW
LayerCount: 3
Fore
SplineSet
638 673 m 1
 627 604 586 578 537 578 c 0
 482 578 438 611 435 673 c 1
 460 673 l 1
 466 644 497 627 537 627 c 0
 574 627 609 644 614 673 c 1
 638 673 l 1
512.5 414.7 m 1
 490.1 363 464.7 304.9 440.9 248 c 1
 464.7 247.7 497.2 246 519 246 c 0
 536.3 246 560 246.5 581.5 247.1 c 1
 562.9 295.1 540.1 351 512.5 414.7 c 1
423.2 205.1 m 1
 397.7 142.2 375.7 83.3 364 39 c 1
 355 41 338 41 330 41 c 0
 322 41 297 41 288 39 c 1
 364 204 437 368 509 534 c 1
 562 534 l 1
 631 370 730 114 767 39 c 1
 754 41 719 41 706 41 c 0
 694 41 666 41 653 39 c 1
 648.7 54.9 632.5 111.1 597.2 205.6 c 1
 572.6 206.3 546.6 207 523 207 c 0
 496 207 452.3 206.1 423.2 205.1 c 1
EndSplineSet
Refer: 415 -1 N 1 0 0 1 0 0 2
Colour: ff00ff
EndChar

StartChar: abreve
Encoding: 259 259 199
Width: 1100
GlyphClass: 2
Flags: MW
LayerCount: 3
Fore
SplineSet
439 539 m 1
 440 499 472 469 520 469 c 0
 555 469 598 491 600 539 c 1
 624 518 l 1
 616 439 558 411 520 411 c 0
 459 411 419 457 414 518 c 1
 439 539 l 1
576 208 m 1
 516 192 l 2
 474 181 464 155 464 124 c 0
 464 104 476 81 499 81 c 0
 520 81 544 98 563 113 c 0
 569 118 576 123 576 133 c 2
 576 208 l 1
656 107 m 0
 656 92 665 84 674 84 c 0
 684 84 694 95 701 100 c 1
 703 98 l 1
 711 94 715 86 719 78 c 1
 695 48 664 36 635 36 c 0
 602 36 581 56 575 80 c 1
 574 80 l 1
 536 46 499 36 470 36 c 0
 417 36 374 62 374 117 c 0
 374 168 434 212 506 229 c 2
 572 245 l 2
 574 245 576 248 576 254 c 0
 576 311 557 332 517 332 c 0
 483 332 452 307 432 273 c 1
 415 274 l 1
 395 323 l 1
 398 326 l 1
 416 342 470 373 524 373 c 0
 591 373 659 348 659 251 c 0
 659 243 656 129 656 107 c 0
EndSplineSet
Refer: 415 -1 N 1 0 0 1 0 0 2
Colour: ff00ff
EndChar

StartChar: Aogonek
Encoding: 260 260 200
Width: 1100
GlyphClass: 2
Flags: MW
LayerCount: 3
Fore
SplineSet
703 -78 m 1
 683 -102 654 -120 629 -120 c 0
 592 -120 570 -98 570 -63 c 0
 570 -17 608.4 22.3 649.3 52.1 c 1
 642 77.2 625.9 128.7 597.2 205.6 c 1
 572.6 206.3 546.6 207 523 207 c 0
 496 207 452.3 206.1 423.2 205.1 c 1
 397.7 142.2 375.7 83.3 364 39 c 1
 355 41 338 41 330 41 c 0
 322 41 297 41 288 39 c 1
 364 204 437 368 509 534 c 1
 562 534 l 1
 631 370 730 114 767 39 c 1
 754 41 719 41 706 41 c 0
 698.3 41 684.1 40.5 671.4 40.5 c 1
 637.4 6.2 619 -19.1 619 -54 c 0
 619 -70 631 -87 651 -87 c 0
 663 -87 680 -76 690 -64 c 1
 693 -65 l 1
 703 -78 l 1
512.5 414.7 m 1
 490.1 363 464.7 304.9 440.9 248 c 1
 464.7 247.7 497.2 246 519 246 c 0
 536.3 246 560 246.5 581.5 247.1 c 1
 562.9 295.1 540.1 351 512.5 414.7 c 1
EndSplineSet
Refer: 415 -1 N 1 0 0 1 0 0 2
Colour: ff80cc
EndChar

StartChar: aogonek
Encoding: 261 261 201
Width: 1100
GlyphClass: 2
Flags: MW
LayerCount: 3
Fore
SplineSet
677 -79 m 1
 657 -104 628 -121 603 -121 c 0
 566 -121 543 -99 543 -64 c 0
 543 -23.9 574 12.1 609.3 40.7 c 1
 591 48 579.3 63 575 80 c 1
 574 80 l 1
 536 46 499 36 470 36 c 0
 417 36 374 62 374 117 c 0
 374 168 434 212 506 229 c 2
 572 245 l 2
 574 245 576 248 576 254 c 0
 576 311 557 332 517 332 c 0
 483 332 452 307 432 273 c 1
 415 274 l 1
 395 323 l 1
 398 326 l 1
 416 342 470 373 524 373 c 0
 591 373 659 348 659 251 c 0
 659 243 656 129 656 107 c 0
 656 92 665 84 674 84 c 0
 684 84 694 95 701 100 c 1
 703 98 l 1
 711 94 715 86 719 78 c 1
 696.8 50.2 668.6 37.9 641.5 36.2 c 1
 610.3 3.5 593 -21.4 593 -56 c 0
 593 -72 605 -88 624 -88 c 0
 637 -88 653 -77 664 -66 c 1
 666 -66 l 1
 677 -79 l 1
576 208 m 1
 516 192 l 2
 474 181 464 155 464 124 c 0
 464 104 476 81 499 81 c 0
 520 81 544 98 563 113 c 0
 569 118 576 123 576 133 c 2
 576 208 l 1
EndSplineSet
Refer: 415 -1 N 1 0 0 1 0 0 2
Colour: ff80cc
EndChar

StartChar: Cacute
Encoding: 262 262 202
Width: 1100
GlyphClass: 2
Flags: MW
LayerCount: 3
Fore
SplineSet
587.8 676.6 m 1
 639.5 633.7 l 1
 520.8 585.3 l 2
 503.2 577.6 492.1 575.4 485.5 575.4 c 0
 477.8 575.4 473.5 579.8 473.5 588.6 c 0
 473.5 594.1 475.6 597.4 485.5 605.1 c 2
 587.8 676.6 l 1
551 534 m 0
 642 534 722 501 722 501 c 1
 724 498 l 1
 715 462 711 439 709 401 c 1
 691 400 l 1
 660 462 608 490 540 490 c 0
 479 490 401 444 401 292 c 0
 401 182 443.9 88 550 88 c 0
 620 88 671 104 724 163 c 1
 741 135 l 1
 690 68 608 34 536 34 c 0
 374 34 292 144 292 286 c 0
 292 439 409 534 551 534 c 0
EndSplineSet
Refer: 415 -1 N 1 0 0 1 0 0 2
Colour: ff00ff
EndChar

StartChar: cacute
Encoding: 263 263 203
Width: 1100
GlyphClass: 2
Flags: MW
LayerCount: 3
Fore
SplineSet
534.3 560.2 m 1
 536.5 561.3 543.1 562.5 547.5 562.5 c 0
 572.8 562.5 588.2 550.4 594.8 542.7 c 1
 602.5 522.8 l 1
 503.5 433.8 l 2
 492.5 423.9 480.4 420.5 472.7 420.5 c 0
 466.1 420.5 459.5 427.2 459.5 432.7 c 0
 459.5 437.1 460.6 444.8 466.1 452.5 c 2
 534.3 560.2 l 1
538 332 m 0
 488 332 448 296 448 219 c 0
 448 140 491 85 548 85 c 0
 578 85 607 95 636 131 c 1
 638 131 l 1
 648 125 653 119 654 112 c 1
 635 71 587 36 530 36 c 0
 420 36 356 103 356 200 c 0
 356 306 438 373 539 373 c 0
 576 373 624 361 647 349 c 1
 648 347 l 1
 631 271 l 1
 618 270 l 1
 598 304 567 332 538 332 c 0
EndSplineSet
Refer: 415 -1 N 1 0 0 1 0 0 2
Colour: ff00ff
EndChar

StartChar: Ccircumflex
Encoding: 264 264 204
Width: 1100
GlyphClass: 2
Flags: MW
LayerCount: 3
Fore
SplineSet
660 579 m 1
 647 558 l 1
 610 572 576 591 542 607 c 1
 508 591 474 572 437 558 c 1
 424 579 l 1
 460 608 499 646 530 677 c 1
 554 677 l 1
 585 644 625 609 660 579 c 1
551 534 m 0
 642 534 722 501 722 501 c 1
 724 498 l 1
 715 462 711 439 709 401 c 1
 691 400 l 1
 660 462 608 490 540 490 c 0
 479 490 401 444 401 292 c 0
 401 182 443.9 88 550 88 c 0
 620 88 671 104 724 163 c 1
 741 135 l 1
 690 68 608 34 536 34 c 0
 374 34 292 144 292 286 c 0
 292 439 409 534 551 534 c 0
EndSplineSet
Refer: 415 -1 N 1 0 0 1 0 0 2
Colour: ff00ff
EndChar

StartChar: ccircumflex
Encoding: 265 265 205
Width: 1100
GlyphClass: 2
Flags: MW
LayerCount: 3
Fore
SplineSet
536 548.8 m 1
 561.3 508.1 592 471.8 622.8 437.7 c 1
 602 422.2 l 1
 566.8 444.2 542.6 460.8 514 490.5 c 1
 483.2 458.6 460 444.2 427 422.2 c 1
 406.2 437.7 l 1
 435.9 471.8 468.8 509.2 493 548.8 c 1
 536 548.8 l 1
537 332 m 0
 487 332 447 296 447 219 c 0
 447 140 490 85 547 85 c 0
 577 85 606 95 635 131 c 1
 637 131 l 1
 647 125 652 119 653 112 c 1
 634 71 586 36 529 36 c 0
 419 36 355 103 355 200 c 0
 355 306 437 373 538 373 c 0
 575 373 623 361 646 349 c 1
 647 347 l 1
 630 271 l 1
 617 270 l 1
 597 304 566 332 537 332 c 0
EndSplineSet
Refer: 415 -1 N 1 0 0 1 -1 0 2
Colour: ff00ff
EndChar

StartChar: Cdotaccent
Encoding: 266 266 206
Width: 1100
GlyphClass: 2
Flags: MW
LayerCount: 3
Fore
SplineSet
469 643 m 0
 469 671 492 695 521 695 c 0
 550 695 573 671 573 643 c 0
 573 615 550 591 521 591 c 0
 492 591 469 615 469 643 c 0
551 534 m 0
 642 534 722 501 722 501 c 1
 724 498 l 1
 715 462 711 439 709 401 c 1
 691 400 l 1
 660 462 608 490 540 490 c 0
 479 490 401 444 401 292 c 0
 401 182 443.9 88 550 88 c 0
 620 88 671 104 724 163 c 1
 741 135 l 1
 690 68 608 34 536 34 c 0
 374 34 292 144 292 286 c 0
 292 439 409 534 551 534 c 0
EndSplineSet
Refer: 415 -1 N 1 0 0 1 0 0 2
Colour: ff00ff
EndChar

StartChar: cdotaccent
Encoding: 267 267 207
Width: 1100
GlyphClass: 2
Flags: MW
LayerCount: 3
Fore
SplineSet
474 509 m 0
 474 537 497 561 526 561 c 0
 555 561 578 537 578 509 c 0
 578 481 555 457 526 457 c 0
 497 457 474 481 474 509 c 0
538 332 m 0
 488 332 448 296 448 219 c 0
 448 140 491 85 548 85 c 0
 578 85 607 95 636 131 c 1
 638 131 l 1
 648 125 653 119 654 112 c 1
 635 71 587 36 530 36 c 0
 420 36 356 103 356 200 c 0
 356 306 438 373 539 373 c 0
 576 373 624 361 647 349 c 1
 648 347 l 1
 631 271 l 1
 618 270 l 1
 598 304 567 332 538 332 c 0
EndSplineSet
Refer: 415 -1 N 1 0 0 1 0 0 2
Colour: ff00ff
EndChar

StartChar: Ccaron
Encoding: 268 268 208
Width: 1100
GlyphClass: 2
Flags: MW
LayerCount: 3
Fore
SplineSet
514 588 m 1
 492 616 466 639 438 660 c 1
 450 675 l 1
 480 662 505 648 530 629 c 1
 558 648 582 663 610 675 c 1
 622 660 l 1
 593 638 569 614 546 588 c 1
 514 588 l 1
551 534 m 0
 642 534 722 501 722 501 c 1
 724 498 l 1
 715 462 711 439 709 401 c 1
 691 400 l 1
 660 462 608 490 540 490 c 0
 479 490 401 444 401 292 c 0
 401 182 443.9 88 550 88 c 0
 620 88 671 104 724 163 c 1
 741 135 l 1
 690 68 608 34 536 34 c 0
 374 34 292 144 292 286 c 0
 292 439 409 534 551 534 c 0
EndSplineSet
Refer: 415 -1 N 1 0 0 1 0 0 2
Colour: ff00ff
EndChar

StartChar: ccaron
Encoding: 269 269 209
Width: 1100
GlyphClass: 2
Flags: MW
LayerCount: 3
Fore
SplineSet
540 416 m 1
 502 416 l 1
 480 451 452 483 426 513 c 1
 444 527 l 1
 473 506 492 492 520 464 c 1
 546 491 568 506 597 527 c 1
 615 513 l 1
 588 483 561 452 540 416 c 1
538 332 m 0
 488 332 448 296 448 219 c 0
 448 140 491 85 548 85 c 0
 578 85 607 95 636 131 c 1
 638 131 l 1
 648 125 653 119 654 112 c 1
 635 71 587 36 530 36 c 0
 420 36 356 103 356 200 c 0
 356 306 438 373 539 373 c 0
 576 373 624 361 647 349 c 1
 648 347 l 1
 631 271 l 1
 618 270 l 1
 598 304 567 332 538 332 c 0
EndSplineSet
Refer: 415 -1 N 1 0 0 1 0 0 2
Colour: ff00ff
EndChar

StartChar: Dcaron
Encoding: 270 270 210
Width: 1100
GlyphClass: 2
Flags: MW
LayerCount: 3
Fore
SplineSet
504 584 m 1
 482 612 456 635 428 656 c 1
 440 671 l 1
 470 658 495 644 520 625 c 1
 548 644 572 659 600 671 c 1
 612 656 l 1
 583 634 559 610 536 584 c 1
 504 584 l 1
413 109 m 2
 413 85 421 79 495 79 c 0
 600 79 671 102 671 254 c 0
 671 369 638 487 476 487 c 0
 439 487 413 483 413 457 c 2
 413 109 l 2
365 524 m 0
 420 524 450 527 504 527 c 0
 648 527 780 411 780 272 c 0
 780 87 624 39 518 39 c 0
 441 39 425 41 365 41 c 0
 339 41 310 38 310 38 c 1
 309 41 l 1
 315 81 317 134 317 191 c 2
 317 374 l 2
 317 431 315 482 309 524 c 1
 311 527 l 1
 311 527 339 524 365 524 c 0
EndSplineSet
Refer: 415 -1 N 1 0 0 1 0 0 2
Colour: ff00ff
EndChar

StartChar: dcaron
Encoding: 271 271 211
Width: 1100
GlyphClass: 2
Flags: MW
LayerCount: 3
Fore
SplineSet
739 664 m 0
 767 664 784 636 784 609 c 0
 784 582 760 535 707 529 c 1
 703 542 l 1
 735 549 751 577 751 594 c 0
 751 604 746 610 740 610 c 0
 709 610 706 626 706 638 c 0
 706 650 716 664 739 664 c 0
566 129 m 1
 566 287 l 1
 548 316 537 332 502 332 c 0
 466 332 410 321 410 209 c 0
 410 115 445 83 485 83 c 0
 516 83 538 95 566 129 c 1
566 89 m 1
 539 54 502 33 466 33 c 0
 385 33 318 103 318 195 c 0
 318 297 412 372 510 372 c 0
 525 372 548 365 566 356 c 1
 566 405 l 2
 566 461 564 513 558 545 c 1
 560 548 l 1
 590 550 636 559 655 567 c 1
 660 567 662 564 662 559 c 0
 656 513 654 473 654 418 c 2
 654 187 l 2
 654 131 661 73 667 41 c 1
 665 39 l 1
 656 40 627 41 618 41 c 0
 607 41 588 40 578 39 c 0
 573 39 571 39 571 41 c 2
 567 89 l 1
 566 89 l 1
EndSplineSet
Refer: 415 -1 N 1 0 0 1 0 0 2
Colour: ff00ff
EndChar

StartChar: Dcroat
Encoding: 272 272 212
Width: 1100
GlyphClass: 2
Flags: MW
LayerCount: 3
Fore
SplineSet
413 109 m 2
 413 85 421 79 495 79 c 0
 600 79 671 102 671 254 c 0
 671 369 638 487 476 487 c 0
 439 487 413 483 413 457 c 2
 413 297 l 1
 480 297 l 1
 480 267 l 1
 413 267 l 1
 413 109 l 2
365 524 m 0
 420 524 450 527 504 527 c 0
 648 527 780 411 780 272 c 0
 780 87 624 39 518 39 c 0
 441 39 425 41 365 41 c 0
 339 41 310 38 310 38 c 1
 309 41 l 1
 315 81 317 134 317 191 c 2
 317 267 l 1
 235 267 l 1
 235 297 l 1
 317 297 l 1
 317 374 l 2
 317 431 315 482 309 524 c 1
 311 527 l 1
 311 527 339 524 365 524 c 0
EndSplineSet
Refer: 415 -1 N 1 0 0 1 0 0 2
Colour: ff80cc
EndChar

StartChar: dcroat
Encoding: 273 273 213
Width: 1100
GlyphClass: 2
Flags: MW
LayerCount: 3
Fore
SplineSet
725 518 m 1
 725 482 l 1
 655.3 482 l 1
 654.4 462.3 654 441.5 654 418 c 2
 654 187 l 2
 654 131 661 73 667 41 c 1
 665 39 l 1
 656 40 627 41 618 41 c 0
 607 41 588 40 578 39 c 0
 573 39 571 39 571 41 c 2
 567 89 l 1
 566 89 l 1
 539 54 502 33 466 33 c 0
 385 33 318 103 318 195 c 0
 318 297 412 372 510 372 c 0
 525 372 548 365 566 356 c 1
 566 405 l 2
 566 432.2 565.6 458.5 564.4 482 c 1
 502 482 l 1
 502 518 l 1
 561.7 518 l 1
 560.7 528.1 559.5 537.1 558 545 c 1
 560 548 l 1
 590 550 636 559 655 567 c 1
 660 567 662 564 662 559 c 0
 660.2 545 658.7 531.5 657.6 518 c 1
 725 518 l 1
566 129 m 1
 566 287 l 1
 548 316 537 332 502 332 c 0
 466 332 410 321 410 209 c 0
 410 115 445 83 485 83 c 0
 516 83 538 95 566 129 c 1
EndSplineSet
Refer: 415 -1 N 1 0 0 1 0 0 2
Colour: ff80cc
EndChar

StartChar: Emacron
Encoding: 274 274 214
Width: 1100
GlyphClass: 2
Flags: MW
LayerCount: 3
Fore
SplineSet
621 589 m 2
 416 589 l 2
 407 589 404 596 404 603 c 0
 404 612 413 627 423 627 c 2
 630 627 l 2
 638 627 641 620 641 614 c 0
 641 604 632 589 621 589 c 2
453 191 m 2
 453 178 454 106 459 88 c 1
 560 88 671 97 671 97 c 1
 672 94 l 1
 672 88 671 75 671 68 c 0
 671 60 672 51 672 41 c 1
 671 38 l 1
 659 40 642 41 626 41 c 2
 405 41 l 2
 379 41 350 38 350 38 c 1
 350 41 l 1
 356 81 357 134 357 191 c 2
 357 374 l 2
 357 431 356 482 350 524 c 1
 351 527 l 1
 351 527 380 524 405 524 c 0
 618 524 l 2
 634 524 651 525 663 527 c 1
 665 524 l 1
 664 514 663 504 663 498 c 0
 663 491 664 481 665 475 c 1
 663 472 l 1
 663 472 560 481 459 481 c 1
 454 463 453 387 453 374 c 2
 453 316 l 1
 542 316 576 320 620 323 c 1
 623 321 l 1
 621 314 620 304 620 297 c 0
 620 290 621 279 623 272 c 1
 620 270 l 1
 569 275 489 278 453 278 c 1
 453 191 l 2
EndSplineSet
Refer: 415 -1 N 1 0 0 1 0 0 2
Colour: ff00ff
EndChar

StartChar: emacron
Encoding: 275 275 215
Width: 1100
GlyphClass: 2
Flags: MW
LayerCount: 3
Fore
SplineSet
631 433 m 2
 426 433 l 2
 417 433 414 440 414 447 c 0
 414 456 423 471 433 471 c 2
 640 471 l 2
 648 471 651 464 651 458 c 0
 651 448 642 433 631 433 c 2
463 259 m 1
 570 259 l 2
 578 259 581 263 581 269 c 0
 581 323 562 336 534 336 c 0
 517 336 474 326 463 259 c 1
666 129 m 1
 677 123 682 114 682 103 c 1
 653 64 597 36 543 36 c 0
 431 36 366 107 366 193 c 0
 366 307 463 373 534 373 c 0
 634 373 676 302 676 239 c 0
 676 230 671 226 663 226 c 2
 461 226 l 1
 461 120 515 87 558 87 c 0
 599 87 640 101 666 129 c 1
EndSplineSet
Refer: 415 -1 N 1 0 0 1 0 0 2
Colour: ff00ff
EndChar

StartChar: Ebreve
Encoding: 276 276 216
Width: 1100
GlyphClass: 2
Flags: MW
LayerCount: 3
Fore
SplineSet
631 673 m 1
 620 604 579 578 530 578 c 0
 475 578 431 611 428 673 c 1
 453 673 l 1
 459 644 490 627 530 627 c 0
 567 627 602 644 607 673 c 1
 631 673 l 1
453 191 m 2
 453 178 454 106 459 88 c 1
 560 88 671 97 671 97 c 1
 672 94 l 1
 672 88 671 75 671 68 c 0
 671 60 672 51 672 41 c 1
 671 38 l 1
 659 40 642 41 626 41 c 2
 405 41 l 2
 379 41 350 38 350 38 c 1
 350 41 l 1
 356 81 357 134 357 191 c 2
 357 374 l 2
 357 431 356 482 350 524 c 1
 351 527 l 1
 351 527 380 524 405 524 c 0
 618 524 l 2
 634 524 651 525 663 527 c 1
 665 524 l 1
 664 514 663 504 663 498 c 0
 663 491 664 481 665 475 c 1
 663 472 l 1
 663 472 560 481 459 481 c 1
 454 463 453 387 453 374 c 2
 453 316 l 1
 542 316 576 320 620 323 c 1
 623 321 l 1
 621 314 620 304 620 297 c 0
 620 290 621 279 623 272 c 1
 620 270 l 1
 569 275 489 278 453 278 c 1
 453 191 l 2
EndSplineSet
Refer: 415 -1 N 1 0 0 1 0 0 2
Colour: ff00ff
EndChar

StartChar: dotlessi
Encoding: 305 305 217
Width: 1120
GlyphClass: 2
Flags: MW
LayerCount: 3
Fore
SplineSet
489 214 m 2
 489 270 487 313 481 346 c 1
 483 348 l 1
 513 350 559 359 578 367 c 1
 582 367 585 365 585 359 c 0
 579 313 577 282 577 226 c 2
 577 173 l 2
 577 115 579 80 585 37 c 1
 583 35 l 1
 583 35 558 37 533 37 c 0
 507 37 482 35 482 35 c 1
 481 37 l 1
 487 78 489 116 489 173 c 2
 489 214 l 2
EndSplineSet
Refer: 415 -1 N 1 0 0 1 0 0 2
EndChar

StartChar: IJ
Encoding: 306 306 218
Width: 1100
GlyphClass: 2
Flags: MW
LayerCount: 3
Fore
SplineSet
618 112 m 2
 618 374 l 2
 618 430 617 481 611 524 c 1
 612 526 l 1
 612 526 641 524 666 524 c 0
 693 524 721 526 721 526 c 1
 722 524 l 1
 716 484 714 430 714 374 c 2
 714 128 l 2
 714 42 712 12 667 -38 c 1
 626 -86 564 -95 517 -95 c 0
 503 -95 482 -92 476 -89 c 1
 475 -86 l 1
 483 -72 491 -31 496 -11 c 1
 512 -10 l 1
 520 -25 534 -44 555 -44 c 0
 615 -44 618 46 618 112 c 2
382 374 m 2
 382 431 380 482 374 524 c 1
 376 527 l 1
 376 527 404 524 430 524 c 0
 456 524 485 527 485 527 c 1
 486 524 l 1
 480 485 478 431 478 374 c 2
 478 191 l 2
 478 134 480 83 486 41 c 1
 484 38 l 1
 484 38 456 41 430 41 c 0
 404 41 375 38 375 38 c 1
 374 41 l 1
 380 81 382 134 382 191 c 2
 382 374 l 2
EndSplineSet
Refer: 415 -1 N 1 0 0 1 0 0 2
Colour: ff00ff
EndChar

StartChar: ij
Encoding: 307 307 219
Width: 1100
GlyphClass: 2
Flags: MW
LayerCount: 3
Fore
SplineSet
588 528 m 0
 588 556 611 580 640 580 c 0
 669 580 692 556 692 528 c 0
 692 500 669 476 640 476 c 0
 611 476 588 500 588 528 c 0
596 18 m 0
 596 30 594 48 594 130 c 2
 594 234 l 2
 594 291 592 334 586 366 c 1
 588 369 l 1
 618 371 664 380 683 388 c 1
 687 388 690 385 690 380 c 0
 684 334 682 303 682 246 c 2
 682 57 l 2
 682 3 669 -18 644 -54 c 0
 619 -89 567 -102 523 -102 c 0
 510 -102 489 -98 484 -96 c 1
 483 -93 l 1
 491 -80 490 -35 495 -16 c 1
 510 -15 l 1
 518 -29 523 -47 543 -47 c 0
 583 -47 596 -21 596 18 c 0
373 518 m 0
 373 546 396 570 425 570 c 0
 454 570 477 546 477 518 c 0
 477 490 454 466 425 466 c 0
 396 466 373 490 373 518 c 0
379 221 m 2
 379 277 377 320 371 353 c 1
 373 355 l 1
 403 357 449 366 468 374 c 1
 472 374 475 372 475 366 c 0
 469 320 467 289 467 233 c 2
 467 180 l 2
 467 122 469 87 475 44 c 1
 473 42 l 1
 473 42 448 44 423 44 c 0
 397 44 372 42 372 42 c 1
 371 44 l 1
 377 85 379 123 379 180 c 2
 379 221 l 2
EndSplineSet
Refer: 415 -1 N 1 0 0 1 0 0 2
Colour: ff00ff
EndChar

StartChar: Jcircumflex
Encoding: 308 308 220
Width: 1100
GlyphClass: 2
Flags: MW
LayerCount: 3
Fore
SplineSet
573.5 653.3 m 1
 597.7 623.6 627.5 597.2 657.2 575.2 c 1
 644 557.7 l 1
 611 573.1 583.5 588.4 556 609.3 c 1
 525.2 587.3 498.8 572 468 557.7 c 1
 455.8 575.2 l 1
 486.6 598.3 511.9 624.7 538.3 653.3 c 1
 573.5 653.3 l 1
513 221 m 2
 513 374 l 2
 513 430 512 481 506 524 c 1
 507 526 l 1
 507 526 536 524 561 524 c 0
 588 524 616 526 616 526 c 1
 617 524 l 1
 611 484 609 430 609 374 c 2
 609 237 l 2
 609 151 609 119 562 71 c 0
 529 37.3 484 34 444 34 c 0
 426.8 34 385.1 39 371 46 c 1
 370 49 l 1
 378 63 382 98 385 118 c 1
 407 119 l 1
 415 104 429 85 450 85 c 0
 510 85 513 155 513 221 c 2
EndSplineSet
Refer: 415 -1 N 1 0 0 1 0 0 2
Colour: ff00ff
EndChar

StartChar: jcircumflex
Encoding: 309 309 221
Width: 1100
GlyphClass: 2
Flags: MW
LayerCount: 3
Fore
SplineSet
560 611 m 1
 583 574 611 541 639 510 c 1
 620 496 l 1
 588 516 566 531 540 558 c 1
 512 529 491 516 461 496 c 1
 442 510 l 1
 469 541 499 575 521 611 c 1
 560 611 l 1
502 48 m 0
 502 60 500 78 500 160 c 2
 500 264 l 2
 500 321 498 364 492 396 c 1
 494 399 l 1
 524 401 570 410 589 418 c 1
 593 418 596 415 596 410 c 0
 590 364 588 333 588 276 c 2
 588 87 l 2
 588 33 575 12 550 -24 c 0
 525 -59 473 -72 429 -72 c 0
 416 -72 395 -68 390 -66 c 1
 389 -63 l 1
 397 -50 396 -5 401 14 c 1
 416 15 l 1
 424 1 429 -17 449 -17 c 0
 489 -17 502 9 502 48 c 0
EndSplineSet
Refer: 415 -1 N 1 0 0 1 0 0 2
Colour: ff00ff
EndChar

StartChar: uni0136
Encoding: 310 310 222
Width: 1100
GlyphClass: 2
Flags: MW
LayerCount: 3
Fore
SplineSet
535 18 m 0
 565 18 582 -10 582 -36 c 0
 582 -56 569 -113 502 -116 c 1
 499 -103 l 1
 556 -92 558 -48 558 -44 c 0
 558 -41 557 -38 556 -36 c 1
 548 -41 541 -43 535 -43 c 0
 504 -43 497 -24 497 -12 c 0
 497 0 508 18 535 18 c 0
342 375 m 2
 342 432 340 483 334 525 c 1
 336 528 l 1
 336 528 364 525 390 525 c 0
 416 525 445 528 445 528 c 1
 446 525 l 1
 440 486 438 432 438 375 c 2
 438 304.7 l 1
 441.3 305.8 445 307.5 448 310 c 0
 514 368 580 451 647 528 c 1
 656 525 696 525 706 525 c 0
 717 525 747 525 759 528 c 1
 693 470 582 366 531 307 c 1
 531 306 l 1
 767 39 l 1
 752 42 719 42 705 42 c 0
 692 42 649 42 636 39 c 1
 569 123 476 249 446 279 c 0
 443.9 280.7 440.9 282 438 283 c 1
 438 192 l 2
 438 135 440 84 446 42 c 1
 444 39 l 1
 444 39 416 42 390 42 c 0
 364 42 335 39 335 39 c 1
 334 42 l 1
 340 82 342 135 342 192 c 2
 342 375 l 2
EndSplineSet
Refer: 415 -1 N 1 0 0 1 0 0 2
Colour: ff00ff
EndChar

StartChar: uni0137
Encoding: 311 311 223
Width: 1100
GlyphClass: 2
Flags: MW
LayerCount: 3
Fore
SplineSet
538 20 m 0
 568 20 585 -8 585 -34 c 0
 585 -54 572 -111 505 -114 c 1
 502 -101 l 1
 559 -90 561 -46 561 -42 c 0
 561 -39 560 -36 559 -34 c 1
 551 -39 544 -41 538 -41 c 0
 507 -41 500 -22 500 -10 c 0
 500 2 511 20 538 20 c 0
381 197 m 2
 381 408 l 2
 381 465 379 517 373 549 c 1
 375 552 l 1
 405 554 451 563 470 570 c 1
 475 570 477 568 477 563 c 0
 471 517 469 478 469 422 c 2
 469 228.4 l 1
 475.1 229.5 480.9 232.7 488 239 c 0
 518 262 572 322 605 369 c 1
 625 369 695 369 709 371 c 1
 710 369 l 1
 662 327 600 256 570 225 c 1
 642 139 670 106 726 47 c 1
 725 45 l 1
 718 46 674 47 662 47 c 0
 649 47 613 46 602 45 c 1
 549 119 534 144 486 195 c 0
 480.9 199.4 474.2 201.1 469 201.7 c 1
 469 197 l 2
 469 140 470 90 477 47 c 1
 475 45 l 1
 475 45 451 47 425 47 c 0
 399 47 374 45 374 45 c 1
 373 47 l 1
 380 87 381 141 381 197 c 2
EndSplineSet
Refer: 415 -1 N 1 0 0 1 0 0 2
Colour: ff00ff
EndChar

StartChar: kgreenlandic
Encoding: 312 312 224
Width: 1100
GlyphClass: 2
Flags: MW
LayerCount: 3
Fore
SplineSet
379 214 m 2
 379 270 377 313 371 346 c 1
 373 348 l 1
 403 350 449 359 468 367 c 1
 472 367 475 365 475 359 c 0
 469 313 467 282 467 226 c 2
 467 225.1 l 1
 472.4 226.8 478 230.4 485 236 c 0
 514 258 569 318 601 365 c 1
 621 365 691 365 705 368 c 1
 707 365 l 1
 658 324 596 253 566 222 c 1
 638 136 667 103 722 44 c 1
 721 41 l 1
 714 43 670 44 658 44 c 0
 645 44 610 43 598 41 c 1
 545 115 530 141 482 192 c 0
 477.5 195.8 471.8 197.6 467 198.4 c 1
 467 173 l 2
 467 115 469 80 475 37 c 1
 473 35 l 1
 473 35 448 37 423 37 c 0
 397 37 372 35 372 35 c 1
 371 37 l 1
 377 78 379 116 379 173 c 2
 379 214 l 2
EndSplineSet
Refer: 415 -1 N 1 0 0 1 0 0 2
Comment: "Ist das so richtig?"
EndChar

StartChar: Lacute
Encoding: 313 313 225
Width: 1100
GlyphClass: 2
Flags: MW
LayerCount: 3
Fore
SplineSet
497.8 676.6 m 1
 549.5 633.7 l 1
 430.8 585.3 l 2
 413.2 577.6 402.1 575.4 395.5 575.4 c 0
 387.8 575.4 383.5 579.8 383.5 588.6 c 0
 383.5 594.1 385.6 597.4 395.5 605.1 c 2
 497.8 676.6 l 1
490 191 m 2
 490 178 491 106 496 88 c 1
 597 88 708 97 708 97 c 1
 709 94 l 1
 708 88 708 77 708 69 c 0
 708 62 708 51 709 41 c 1
 708 38 l 1
 696 40 678 41 663 41 c 2
 442 41 l 2
 417 41 387 38 387 38 c 1
 387 41 l 1
 393 81 394 134 394 191 c 2
 394 374 l 2
 394 431 392 482 386 524 c 1
 387 527 l 1
 387 527 417 524 442 524 c 0
 468 524 497 527 497 527 c 1
 498 524 l 1
 492 485 490 431 490 374 c 2
 490 191 l 2
EndSplineSet
Refer: 415 -1 N 1 0 0 1 0 0 2
Colour: ff00ff
EndChar

StartChar: lacute
Encoding: 314 314 226
Width: 1100
GlyphClass: 2
Flags: MW
LayerCount: 3
Fore
SplineSet
485 191 m 2
 485 406 l 2
 485 463 483 515 477 547 c 1
 479 550 l 1
 509 552 555 561 574 568 c 1
 579 568 581 566 581 561 c 0
 575 515 573 476 573 420 c 2
 573 191 l 2
 573 134 574 84 581 41 c 1
 579 39 l 1
 579 39 555 41 529 41 c 0
 503 41 478 39 478 39 c 1
 477 41 l 1
 484 81 485 135 485 191 c 2
565.8 698.6 m 1
 617.5 655.7 l 1
 498.8 607.3 l 2
 481.2 599.6 470.1 597.4 463.5 597.4 c 0
 455.8 597.4 451.5 601.8 451.5 610.6 c 0
 451.5 616.1 453.6 619.4 463.5 627.1 c 2
 565.8 698.6 l 1
EndSplineSet
Refer: 415 -1 N 1 0 0 1 0 0 2
Colour: ff00ff
EndChar

StartChar: uni013B
Encoding: 315 315 227
Width: 1100
GlyphClass: 2
Flags: MW
LayerCount: 3
Fore
SplineSet
519 4 m 0
 549 4 566 -24 566 -50 c 0
 566 -70 553 -127 486 -130 c 1
 483 -117 l 1
 540 -106 542 -62 542 -58 c 0
 542 -55 541 -52 540 -50 c 1
 532 -55 525 -57 519 -57 c 0
 488 -57 481 -38 481 -26 c 0
 481 -14 492 4 519 4 c 0
490 191 m 2
 490 178 491 106 496 88 c 1
 597 88 708 97 708 97 c 1
 709 94 l 1
 708 88 708 77 708 69 c 0
 708 62 708 51 709 41 c 1
 708 38 l 1
 696 40 678 41 663 41 c 2
 442 41 l 2
 417 41 387 38 387 38 c 1
 387 41 l 1
 393 81 394 134 394 191 c 2
 394 374 l 2
 394 431 392 482 386 524 c 1
 387 527 l 1
 387 527 417 524 442 524 c 0
 468 524 497 527 497 527 c 1
 498 524 l 1
 492 485 490 431 490 374 c 2
 490 191 l 2
EndSplineSet
Refer: 415 -1 N 1 0 0 1 0 0 2
Colour: ff00ff
EndChar

StartChar: uni013C
Encoding: 316 316 228
Width: 1100
GlyphClass: 2
Flags: MW
LayerCount: 3
Fore
SplineSet
485 191 m 2
 485 406 l 2
 485 463 483 515 477 547 c 1
 479 550 l 1
 509 552 555 561 574 568 c 1
 579 568 581 566 581 561 c 0
 575 515 573 476 573 420 c 2
 573 191 l 2
 573 134 574 84 581 41 c 1
 579 39 l 1
 579 39 555 41 529 41 c 0
 503 41 478 39 478 39 c 1
 477 41 l 1
 484 81 485 135 485 191 c 2
526 9 m 0
 556 9 573 -19 573 -45 c 0
 573 -65 560 -122 493 -125 c 1
 490 -112 l 1
 547 -101 549 -57 549 -53 c 0
 549 -50 548 -47 547 -45 c 1
 539 -50 532 -52 526 -52 c 0
 495 -52 488 -33 488 -21 c 0
 488 -9 499 9 526 9 c 0
EndSplineSet
Refer: 415 -1 N 1 0 0 1 0 0 2
Colour: ff00ff
EndChar

StartChar: Lcaron
Encoding: 317 317 229
Width: 1100
GlyphClass: 2
Flags: MW
LayerCount: 3
Fore
SplineSet
562 664 m 0
 590 664 607 636 607 609 c 0
 607 582 583 535 530 529 c 1
 526 542 l 1
 558 549 574 577 574 594 c 0
 574 604 569 610 563 610 c 0
 532 610 529 626 529 638 c 0
 529 650 539 664 562 664 c 0
490 191 m 2
 490 178 491 106 496 88 c 1
 597 88 708 97 708 97 c 1
 709 94 l 1
 708 88 708 77 708 69 c 0
 708 62 708 51 709 41 c 1
 708 38 l 1
 696 40 678 41 663 41 c 2
 442 41 l 2
 417 41 387 38 387 38 c 1
 387 41 l 1
 393 81 394 134 394 191 c 2
 394 374 l 2
 394 431 392 482 386 524 c 1
 387 527 l 1
 387 527 417 524 442 524 c 0
 468 524 497 527 497 527 c 1
 498 524 l 1
 492 485 490 431 490 374 c 2
 490 191 l 2
EndSplineSet
Refer: 415 -1 N 1 0 0 1 0 0 2
Colour: ff00ff
EndChar

StartChar: lcaron
Encoding: 318 318 230
Width: 1100
GlyphClass: 2
Flags: MW
LayerCount: 3
Fore
SplineSet
645 664 m 0
 673 664 690 636 690 609 c 0
 690 582 666 535 613 529 c 1
 609 542 l 1
 641 549 657 577 657 594 c 0
 657 604 652 610 646 610 c 0
 615 610 612 626 612 638 c 0
 612 650 622 664 645 664 c 0
485 191 m 2
 485 406 l 2
 485 463 483 515 477 547 c 1
 479 550 l 1
 509 552 555 561 574 568 c 1
 579 568 581 566 581 561 c 0
 575 515 573 476 573 420 c 2
 573 191 l 2
 573 134 574 84 581 41 c 1
 579 39 l 1
 579 39 555 41 529 41 c 0
 503 41 478 39 478 39 c 1
 477 41 l 1
 484 81 485 135 485 191 c 2
EndSplineSet
Refer: 415 -1 N 1 0 0 1 0 0 2
Colour: ff00ff
EndChar

StartChar: Ldot
Encoding: 319 319 231
Width: 1100
GlyphClass: 2
Flags: MW
LayerCount: 3
Fore
SplineSet
603 266 m 0
 572 266 552 290 552 316 c 0
 552 342 575 367 603 367 c 0
 628 367 654 345 654 316 c 0
 654 289 632 266 603 266 c 0
490 191 m 2
 490 178 491 106 496 88 c 1
 597 88 708 97 708 97 c 1
 709 94 l 1
 708 88 708 77 708 69 c 0
 708 62 708 51 709 41 c 1
 708 38 l 1
 696 40 678 41 663 41 c 2
 442 41 l 2
 417 41 387 38 387 38 c 1
 387 41 l 1
 393 81 394 134 394 191 c 2
 394 374 l 2
 394 431 392 482 386 524 c 1
 387 527 l 1
 387 527 417 524 442 524 c 0
 468 524 497 527 497 527 c 1
 498 524 l 1
 492 485 490 431 490 374 c 2
 490 191 l 2
EndSplineSet
Refer: 415 -1 N 1 0 0 1 0 0 2
Colour: ff00ff
EndChar

StartChar: ldot
Encoding: 320 320 232
Width: 1100
GlyphClass: 2
Flags: MW
LayerCount: 3
Fore
SplineSet
655 297 m 0
 655 316 671 334 691 334 c 0
 709 334 727 317 727 297 c 0
 727 278 712 262 691 262 c 0
 669 262 655 279 655 297 c 0
485 191 m 2
 485 406 l 2
 485 463 483 515 477 547 c 1
 479 550 l 1
 509 552 555 561 574 568 c 1
 579 568 581 566 581 561 c 0
 575 515 573 476 573 420 c 2
 573 191 l 2
 573 134 574 84 581 41 c 1
 579 39 l 1
 579 39 555 41 529 41 c 0
 503 41 478 39 478 39 c 1
 477 41 l 1
 484 81 485 135 485 191 c 2
EndSplineSet
Refer: 415 -1 N 1 0 0 1 0 0 2
Colour: ff80cc
EndChar

StartChar: Lslash
Encoding: 321 321 233
Width: 1100
GlyphClass: 2
Flags: MW
LayerCount: 3
Fore
SplineSet
532 417 m 1
 545 395 l 1
 490 363.5 l 1
 490 191 l 2
 490 178 491 106 496 88 c 1
 597 88 708 97 708 97 c 1
 709 94 l 1
 708 88 708 77 708 69 c 0
 708 62 708 51 709 41 c 1
 708 38 l 1
 696 40 678 41 663 41 c 2
 442 41 l 2
 417 41 387 38 387 38 c 1
 387 41 l 1
 393 81 394 134 394 191 c 2
 394 308.6 l 1
 316 264 l 1
 303 287 l 1
 394 338.7 l 1
 394 374 l 2
 394 431 392 482 386 524 c 1
 387 527 l 1
 387 527 417 524 442 524 c 0
 468 524 497 527 497 527 c 1
 498 524 l 1
 492.7 489.4 490.5 443 490.1 393.2 c 1
 532 417 l 1
EndSplineSet
Refer: 415 -1 N 1 0 0 1 0 0 2
Colour: ff80cc
EndChar

StartChar: lslash
Encoding: 322 322 234
Width: 1100
GlyphClass: 2
Flags: MW
LayerCount: 3
Fore
SplineSet
606 415 m 1
 618 393 l 1
 573 366.7 l 1
 573 191 l 2
 573 134 574 84 581 41 c 1
 579 39 l 1
 579 39 555 41 529 41 c 0
 503 41 478 39 478 39 c 1
 477 41 l 1
 484 81 485 135 485 191 c 2
 485 315.3 l 1
 440 289 l 1
 428 311 l 1
 485 344.3 l 1
 485 406 l 2
 485 463 483 515 477 547 c 1
 479 550 l 1
 509 552 555 561 574 568 c 1
 579 568 581 566 581 561 c 0
 575 515 573 476 573 420 c 2
 573 395.7 l 1
 606 415 l 1
EndSplineSet
Refer: 415 -1 N 1 0 0 1 0 0 2
Colour: ff80cc
EndChar

StartChar: Nacute
Encoding: 323 323 235
Width: 1100
GlyphClass: 2
Flags: MW
LayerCount: 3
Fore
SplineSet
550.8 677.6 m 1
 602.5 634.7 l 1
 483.8 586.3 l 2
 466.2 578.6 455.1 576.4 448.5 576.4 c 0
 440.8 576.4 436.5 580.8 436.5 589.6 c 0
 436.5 595.1 438.6 598.4 448.5 606.1 c 2
 550.8 677.6 l 1
322 375 m 2
 322 431 320 482 314 525 c 1
 316 527 l 1
 316 527 344 525 369 525 c 0
 372 525 394 526 394 526 c 1
 652 193 l 2
 684 151 691 133 691 174 c 2
 691 375 l 2
 691 431 689 482 683 525 c 1
 670 527 l 1
 670 527 700 525 718 525 c 0
 735 525 738 527 738 527 c 1
 754 525 l 1
 748 485 746 431 746 375 c 2
 746 57 l 2
 746 42 726 33 716 33 c 0
 679 33 661 39 625 85 c 2
 390 382 l 2
 362 418 376 416 376 370 c 2
 376 191 l 2
 376 135 378 83 384 41 c 1
 382 39 l 1
 382 39 367 41 349 41 c 0
 332 41 315 39 315 39 c 1
 314 41 l 1
 320 81 322 135 322 191 c 2
 322 375 l 2
EndSplineSet
Refer: 415 -1 N 1 0 0 1 0 0 2
Colour: ff00ff
EndChar

StartChar: nacute
Encoding: 324 324 236
Width: 1100
GlyphClass: 2
Flags: MW
LayerCount: 3
Fore
SplineSet
535.3 578.2 m 1
 537.5 579.3 544.1 580.5 548.5 580.5 c 0
 573.8 580.5 589.2 568.4 595.8 560.7 c 1
 603.5 540.8 l 1
 504.5 451.8 l 2
 493.5 441.9 481.4 438.5 473.7 438.5 c 0
 467.1 438.5 460.5 445.2 460.5 450.7 c 0
 460.5 455.1 461.6 462.8 467.1 470.5 c 2
 535.3 578.2 l 1
693 180 m 2
 693 122 694 84 700 41 c 1
 699 39 l 1
 699 39 674 41 648 41 c 0
 622 41 598 39 598 39 c 1
 597 41 l 1
 604 82 604 123 604 180 c 2
 604 246 l 2
 604 299 597 324 557 324 c 0
 524 324 512 313 474 268 c 1
 474 180 l 2
 474 122 475 84 481 41 c 1
 480 39 l 1
 480 39 455 41 430 41 c 0
 403 41 378 39 378 39 c 1
 378 41 l 1
 384 82 385 123 385 180 c 2
 385 221 l 2
 385 277 384 321 378 353 c 1
 379 355 l 1
 410 357 453 366 472 374 c 1
 477 374 479 372 479 366 c 1
 475 344 472 312 472 312 c 1
 474 312 l 1
 522 368 541 374 580 374 c 0
 647 374 693 322 693 255 c 2
 693 180 l 2
EndSplineSet
Refer: 415 -1 N 1 0 0 1 0 0 2
Colour: ff00ff
EndChar

StartChar: uni0145
Encoding: 325 325 237
Width: 1100
GlyphClass: 2
Flags: MW
LayerCount: 3
Fore
SplineSet
517 38 m 0
 547 38 564 10 564 -16 c 0
 564 -36 551 -93 484 -96 c 1
 481 -83 l 1
 538 -72 540 -28 540 -24 c 0
 540 -21 539 -18 538 -16 c 1
 530 -21 523 -23 517 -23 c 0
 486 -23 479 -4 479 8 c 0
 479 20 490 38 517 38 c 0
322 375 m 2
 322 431 320 482 314 525 c 1
 316 527 l 1
 316 527 344 525 369 525 c 0
 372 525 394 526 394 526 c 1
 652 193 l 2
 684 151 691 133 691 174 c 2
 691 375 l 2
 691 431 689 482 683 525 c 1
 670 527 l 1
 670 527 700 525 718 525 c 0
 735 525 738 527 738 527 c 1
 754 525 l 1
 748 485 746 431 746 375 c 2
 746 57 l 2
 746 42 726 33 716 33 c 0
 679 33 661 39 625 85 c 2
 390 382 l 2
 362 418 376 416 376 370 c 2
 376 191 l 2
 376 135 378 83 384 41 c 1
 382 39 l 1
 382 39 367 41 349 41 c 0
 332 41 315 39 315 39 c 1
 314 41 l 1
 320 81 322 135 322 191 c 2
 322 375 l 2
EndSplineSet
Refer: 415 -1 N 1 0 0 1 0 0 2
Colour: ff00ff
EndChar

StartChar: uni0146
Encoding: 326 326 238
Width: 1100
GlyphClass: 2
Flags: MW
LayerCount: 3
Fore
SplineSet
541 6 m 0
 571 6 588 -22 588 -48 c 0
 588 -68 575 -125 508 -128 c 1
 505 -115 l 1
 562 -104 564 -60 564 -56 c 0
 564 -53 563 -50 562 -48 c 1
 554 -53 547 -55 541 -55 c 0
 510 -55 503 -36 503 -24 c 0
 503 -12 514 6 541 6 c 0
693 180 m 2
 693 122 694 84 700 41 c 1
 699 39 l 1
 699 39 674 41 648 41 c 0
 622 41 598 39 598 39 c 1
 597 41 l 1
 604 82 604 123 604 180 c 2
 604 246 l 2
 604 299 597 324 557 324 c 0
 524 324 512 313 474 268 c 1
 474 180 l 2
 474 122 475 84 481 41 c 1
 480 39 l 1
 480 39 455 41 430 41 c 0
 403 41 378 39 378 39 c 1
 378 41 l 1
 384 82 385 123 385 180 c 2
 385 221 l 2
 385 277 384 321 378 353 c 1
 379 355 l 1
 410 357 453 366 472 374 c 1
 477 374 479 372 479 366 c 1
 475 344 472 312 472 312 c 1
 474 312 l 1
 522 368 541 374 580 374 c 0
 647 374 693 322 693 255 c 2
 693 180 l 2
EndSplineSet
Refer: 415 -1 N 1 0 0 1 0 0 2
Colour: ff00ff
EndChar

StartChar: Ncaron
Encoding: 327 327 239
Width: 1100
GlyphClass: 2
Flags: MW
LayerCount: 3
Fore
SplineSet
482 588 m 1
 460 616 434 639 406 660 c 1
 418 675 l 1
 448 662 473 648 498 629 c 1
 526 648 550 663 578 675 c 1
 590 660 l 1
 561 638 537 614 514 588 c 1
 482 588 l 1
322 375 m 2
 322 431 320 482 314 525 c 1
 316 527 l 1
 316 527 344 525 369 525 c 0
 372 525 394 526 394 526 c 1
 652 193 l 2
 684 151 691 133 691 174 c 2
 691 375 l 2
 691 431 689 482 683 525 c 1
 670 527 l 1
 670 527 700 525 718 525 c 0
 735 525 738 527 738 527 c 1
 754 525 l 1
 748 485 746 431 746 375 c 2
 746 57 l 2
 746 42 726 33 716 33 c 0
 679 33 661 39 625 85 c 2
 390 382 l 2
 362 418 376 416 376 370 c 2
 376 191 l 2
 376 135 378 83 384 41 c 1
 382 39 l 1
 382 39 367 41 349 41 c 0
 332 41 315 39 315 39 c 1
 314 41 l 1
 320 81 322 135 322 191 c 2
 322 375 l 2
EndSplineSet
Refer: 415 -1 N 1 0 0 1 0 0 2
Colour: ff00ff
EndChar

StartChar: ncaron
Encoding: 328 328 240
Width: 1100
GlyphClass: 2
Flags: MW
LayerCount: 3
Fore
SplineSet
540 455 m 1
 502 455 l 1
 480 490 452 522 426 552 c 1
 444 566 l 1
 473 545 492 531 520 503 c 1
 546 530 568 545 597 566 c 1
 615 552 l 1
 588 522 561 491 540 455 c 1
693 180 m 2
 693 122 694 84 700 41 c 1
 699 39 l 1
 699 39 674 41 648 41 c 0
 622 41 598 39 598 39 c 1
 597 41 l 1
 604 82 604 123 604 180 c 2
 604 246 l 2
 604 299 597 324 557 324 c 0
 524 324 512 313 474 268 c 1
 474 180 l 2
 474 122 475 84 481 41 c 1
 480 39 l 1
 480 39 455 41 430 41 c 0
 403 41 378 39 378 39 c 1
 378 41 l 1
 384 82 385 123 385 180 c 2
 385 221 l 2
 385 277 384 321 378 353 c 1
 379 355 l 1
 410 357 453 366 472 374 c 1
 477 374 479 372 479 366 c 1
 475 344 472 312 472 312 c 1
 474 312 l 1
 522 368 541 374 580 374 c 0
 647 374 693 322 693 255 c 2
 693 180 l 2
EndSplineSet
Refer: 415 -1 N 1 0 0 1 0 0 2
Colour: ff00ff
EndChar

StartChar: napostrophe
Encoding: 329 329 241
Width: 1100
GlyphClass: 2
Flags: MW
LayerCount: 3
Fore
SplineSet
326 664 m 0
 354 664 371 636 371 609 c 0
 371 582 347 535 294 529 c 1
 290 542 l 1
 322 549 338 577 338 594 c 0
 338 604 333 610 327 610 c 0
 296 610 293 626 293 638 c 0
 293 650 303 664 326 664 c 0
703 180 m 2
 703 122 704 84 710 41 c 1
 709 39 l 1
 709 39 684 41 658 41 c 0
 632 41 608 39 608 39 c 1
 607 41 l 1
 614 82 614 123 614 180 c 2
 614 246 l 2
 614 299 607 324 567 324 c 0
 534 324 522 313 484 268 c 1
 484 180 l 2
 484 122 485 84 491 41 c 1
 490 39 l 1
 490 39 465 41 440 41 c 0
 413 41 388 39 388 39 c 1
 388 41 l 1
 394 82 395 123 395 180 c 2
 395 221 l 2
 395 277 394 321 388 353 c 1
 389 355 l 1
 420 357 463 366 482 374 c 1
 487 374 489 372 489 366 c 1
 485 344 482 312 482 312 c 1
 484 312 l 1
 532 368 551 374 590 374 c 0
 657 374 703 322 703 255 c 2
 703 180 l 2
EndSplineSet
Refer: 415 -1 N 1 0 0 1 10 0 2
Colour: ff00ff
EndChar

StartChar: Omacron
Encoding: 332 332 242
Width: 1100
GlyphClass: 2
Flags: MW
LayerCount: 3
Fore
SplineSet
635 599 m 2
 430 599 l 2
 421 599 418 606 418 613 c 0
 418 622 427 637 437 637 c 2
 644 637 l 2
 652 637 655 630 655 624 c 0
 655 614 646 599 635 599 c 2
528 494 m 0
 456 494 392 444 392 286 c 0
 392 142 463 74 553 74 c 0
 639 74 687 139 687 274 c 0
 687 430 634 494 528 494 c 0
796 288 m 0
 796 138 699 34 538 34 c 0
 390 34 283 132 283 274 c 0
 283 420 385 534 538 534 c 0
 697 534 796 436 796 288 c 0
EndSplineSet
Refer: 415 -1 N 1 0 0 1 0 0 2
Colour: ff00ff
EndChar

StartChar: omacron
Encoding: 333 333 243
Width: 1100
GlyphClass: 2
Flags: MW
LayerCount: 3
Fore
SplineSet
628 473 m 2
 423 473 l 2
 414 473 411 480 411 487 c 0
 411 496 420 511 430 511 c 2
 637 511 l 2
 645 511 648 504 648 498 c 0
 648 488 639 473 628 473 c 2
363 197 m 0
 363 300 428 373 536 373 c 0
 662 373 705 282 705 204 c 0
 705 124 649 36 534 36 c 0
 422 36 363 115 363 197 c 0
530 335 m 0
 466 335 459 280 459 215 c 0
 459 157 466 74 544 74 c 0
 578 74 609 98 609 184 c 0
 609 288 594 335 530 335 c 0
EndSplineSet
Refer: 415 -1 N 1 0 0 1 0 0 2
Colour: ff00ff
EndChar

StartChar: Obreve
Encoding: 334 334 244
Width: 1100
GlyphClass: 2
Flags: MW
LayerCount: 3
Fore
SplineSet
640 664 m 1
 629 595 588 569 539 569 c 0
 484 569 440 602 437 664 c 1
 462 664 l 1
 468 635 499 618 539 618 c 0
 576 618 611 635 616 664 c 1
 640 664 l 1
528 494 m 0
 456 494 392 444 392 286 c 0
 392 142 463 74 553 74 c 0
 639 74 687 139 687 274 c 0
 687 430 634 494 528 494 c 0
796 288 m 0
 796 138 699 34 538 34 c 0
 390 34 283 132 283 274 c 0
 283 420 385 534 538 534 c 0
 697 534 796 436 796 288 c 0
EndSplineSet
Refer: 415 -1 N 1 0 0 1 0 0 2
Colour: ff00ff
EndChar

StartChar: obreve
Encoding: 335 335 245
Width: 1100
GlyphClass: 2
Flags: MW
LayerCount: 3
Fore
SplineSet
449 568 m 1
 450 528 482 498 530 498 c 0
 565 498 608 520 610 568 c 1
 634 547 l 1
 626 468 568 440 530 440 c 0
 469 440 429 486 424 547 c 1
 449 568 l 1
363 197 m 0
 363 300 428 373 536 373 c 0
 662 373 705 282 705 204 c 0
 705 124 649 36 534 36 c 0
 422 36 363 115 363 197 c 0
530 335 m 0
 466 335 459 280 459 215 c 0
 459 157 466 74 544 74 c 0
 578 74 609 98 609 184 c 0
 609 288 594 335 530 335 c 0
EndSplineSet
Refer: 415 -1 N 1 0 0 1 0 0 2
Colour: ff00ff
EndChar

StartChar: Ohungarumlaut
Encoding: 336 336 246
Width: 1100
GlyphClass: 2
Flags: MW
LayerCount: 3
Fore
SplineSet
655 663 m 0
 661 658 664 650 664 642 c 0
 664 635 662 630 659 627 c 2
 585 564 l 2
 583 563 582 563 579 563 c 0
 576 563 569 566 569 572 c 0
 569 574 569 575 570 576 c 2
 616 662 l 2
 620 668 625 671 633 671 c 0
 639 671 646 670 655 663 c 0
555 668 m 0
 562 662 566 654 566 646 c 0
 566 640 565 635 561 632 c 2
 490 567 l 2
 488 566 486 566 484 566 c 0
 482 566 480 567 478 568 c 0
 475 570 474 573 474 576 c 0
 474 577 474 578 475 579 c 2
 517 665 l 2
 521 671 526 674 537 674 c 0
 544 674 551 671 555 668 c 0
528 494 m 0
 456 494 392 444 392 286 c 0
 392 142 463 74 553 74 c 0
 639 74 687 139 687 274 c 0
 687 430 634 494 528 494 c 0
796 288 m 0
 796 138 699 34 538 34 c 0
 390 34 283 132 283 274 c 0
 283 420 385 534 538 534 c 0
 697 534 796 436 796 288 c 0
EndSplineSet
Refer: 415 -1 N 1 0 0 1 0 0 2
Colour: ff00ff
EndChar

StartChar: ohungarumlaut
Encoding: 337 337 247
Width: 1100
GlyphClass: 2
Flags: MW
LayerCount: 3
Fore
SplineSet
646 545 m 0
 646 536 642 532 636 526 c 2
 563 457 l 2
 559 454 555 451 552 451 c 0
 546 451 540 456 540 462 c 0
 540 466 541 469 543 473 c 2
 594 564 l 2
 596 566 601 577 615 577 c 0
 633 577 646 563 646 545 c 0
549 554 m 0
 549 550 549 546 546 542 c 2
 477 460 l 2
 470 452 464 449 459 449 c 0
 453 449 449 454 449 460 c 0
 449 463 450 467 451 471 c 2
 495 571 l 2
 499 580 510 581 518 581 c 0
 534 581 549 568 549 554 c 0
363 197 m 0
 363 300 428 373 536 373 c 0
 662 373 705 282 705 204 c 0
 705 124 649 36 534 36 c 0
 422 36 363 115 363 197 c 0
530 335 m 0
 466 335 459 280 459 215 c 0
 459 157 466 74 544 74 c 0
 578 74 609 98 609 184 c 0
 609 288 594 335 530 335 c 0
EndSplineSet
Refer: 415 -1 N 1 0 0 1 0 0 2
Colour: ff00ff
EndChar

StartChar: Racute
Encoding: 340 340 248
Width: 1100
GlyphClass: 2
Flags: MW
LayerCount: 3
Fore
SplineSet
537.8 677.6 m 1
 589.5 634.7 l 1
 470.8 586.3 l 2
 453.2 578.6 442.1 576.4 435.5 576.4 c 0
 427.8 576.4 423.5 580.8 423.5 589.6 c 0
 423.5 595.1 425.6 598.4 435.5 606.1 c 2
 537.8 677.6 l 1
516 494 m 0
 463 494 454 483 454 461 c 2
 454 295 l 1
 490 295 l 2
 563 295 597 306 597 400 c 0
 597 488 562 494 516 494 c 0
454 256 m 1
 454 191 l 2
 454 135 455 84 461 41 c 1
 460 39 l 1
 460 39 431 41 406 41 c 0
 380 41 351 39 351 39 c 1
 350 41 l 1
 356 82 358 135 358 191 c 2
 358 375 l 2
 358 431 356 482 350 525 c 1
 352 527 l 1
 352 527 380 525 406 525 c 0
 428 525 497 530 515 530 c 0
 608 530 701 504 701 400 c 0
 701 321.3 650.6 285.4 588.1 269.1 c 1
 636.1 206.2 716.7 84.1 755 41 c 1
 753 39 l 1
 738 41 713 41 698 41 c 0
 684 41 662 41 647 39 c 1
 639 64 605 119 567 173 c 0
 546.5 202.4 524.5 232.5 502.3 257.1 c 1
 485.7 256.2 469.4 256 454 256 c 1
EndSplineSet
Refer: 415 -1 N 1 0 0 1 0 0 2
Colour: ff00ff
EndChar

StartChar: racute
Encoding: 341 341 249
Width: 1100
GlyphClass: 2
Flags: MW
LayerCount: 3
Fore
SplineSet
534.3 578.2 m 1
 536.5 579.3 543.1 580.5 547.5 580.5 c 0
 572.8 580.5 588.2 568.4 594.8 560.7 c 1
 602.5 540.8 l 1
 503.5 451.8 l 2
 492.5 441.9 480.4 438.5 472.7 438.5 c 0
 466.1 438.5 459.5 445.2 459.5 450.7 c 0
 459.5 455.1 460.6 462.8 466.1 470.5 c 2
 534.3 578.2 l 1
517 310 m 1
 536 339 575 374 610 374 c 0
 624 374 628 372 641 368 c 1
 644 366 l 1
 629 296 l 1
 623 294 l 1
 610 305 594 305 580 305 c 0
 568 305 517 300 517 242 c 2
 517 177 l 2
 517 119 518 84 524 41 c 1
 523 39 l 1
 523 39 494 41 469 41 c 0
 442 41 421 39 421 39 c 1
 421 41 l 1
 427 82 428 120 428 177 c 2
 428 221 l 2
 428 277 423 320 417 353 c 1
 418 355 l 1
 449 357 491 366 510 374 c 1
 514 374 517 372 517 366 c 0
 516 344 515 310 515 310 c 1
 517 310 l 1
EndSplineSet
Refer: 415 -1 N 1 0 0 1 0 0 2
Colour: ff00ff
EndChar

StartChar: uni0156
Encoding: 342 342 250
Width: 1100
GlyphClass: 2
Flags: MW
LayerCount: 3
Fore
SplineSet
536 14 m 0
 566 14 583 -14 583 -40 c 0
 583 -60 570 -117 503 -120 c 1
 500 -107 l 1
 557 -96 559 -52 559 -48 c 0
 559 -45 558 -42 557 -40 c 1
 549 -45 542 -47 536 -47 c 0
 505 -47 498 -28 498 -16 c 0
 498 -4 509 14 536 14 c 0
516 494 m 0
 463 494 454 483 454 461 c 2
 454 295 l 1
 490 295 l 2
 563 295 597 306 597 400 c 0
 597 488 562 494 516 494 c 0
454 256 m 1
 454 191 l 2
 454 135 455 84 461 41 c 1
 460 39 l 1
 460 39 431 41 406 41 c 0
 380 41 351 39 351 39 c 1
 350 41 l 1
 356 82 358 135 358 191 c 2
 358 375 l 2
 358 431 356 482 350 525 c 1
 352 527 l 1
 352 527 380 525 406 525 c 0
 428 525 497 530 515 530 c 0
 608 530 701 504 701 400 c 0
 701 321.3 650.6 285.4 588.1 269.1 c 1
 636.1 206.2 716.7 84.1 755 41 c 1
 753 39 l 1
 738 41 713 41 698 41 c 0
 684 41 662 41 647 39 c 1
 639 64 605 119 567 173 c 0
 546.5 202.4 524.5 232.5 502.3 257.1 c 1
 485.7 256.2 469.4 256 454 256 c 1
EndSplineSet
Refer: 415 -1 N 1 0 0 1 0 0 2
Colour: ff00ff
EndChar

StartChar: uni0157
Encoding: 343 343 251
Width: 1100
GlyphClass: 2
Flags: MW
LayerCount: 3
Fore
SplineSet
474 6 m 0
 504 6 521 -22 521 -48 c 0
 521 -68 508 -125 441 -128 c 1
 438 -115 l 1
 495 -104 497 -60 497 -56 c 0
 497 -53 496 -50 495 -48 c 1
 487 -53 480 -55 474 -55 c 0
 443 -55 436 -36 436 -24 c 0
 436 -12 447 6 474 6 c 0
517 310 m 1
 536 339 575 374 610 374 c 0
 624 374 628 372 641 368 c 1
 644 366 l 1
 629 296 l 1
 623 294 l 1
 610 305 594 305 580 305 c 0
 568 305 517 300 517 242 c 2
 517 177 l 2
 517 119 518 84 524 41 c 1
 523 39 l 1
 523 39 494 41 469 41 c 0
 442 41 421 39 421 39 c 1
 421 41 l 1
 427 82 428 120 428 177 c 2
 428 221 l 2
 428 277 423 320 417 353 c 1
 418 355 l 1
 449 357 491 366 510 374 c 1
 514 374 517 372 517 366 c 0
 516 344 515 310 515 310 c 1
 517 310 l 1
EndSplineSet
Refer: 415 -1 N 1 0 0 1 0 0 2
Colour: ff00ff
EndChar

StartChar: Rcaron
Encoding: 344 344 252
Width: 1100
GlyphClass: 2
Flags: MW
LayerCount: 3
Fore
SplineSet
517 588 m 1
 495 616 469 639 441 660 c 1
 453 675 l 1
 483 662 508 648 533 629 c 1
 561 648 585 663 613 675 c 1
 625 660 l 1
 596 638 572 614 549 588 c 1
 517 588 l 1
516 494 m 0
 463 494 454 483 454 461 c 2
 454 295 l 1
 490 295 l 2
 563 295 597 306 597 400 c 0
 597 488 562 494 516 494 c 0
454 256 m 1
 454 191 l 2
 454 135 455 84 461 41 c 1
 460 39 l 1
 460 39 431 41 406 41 c 0
 380 41 351 39 351 39 c 1
 350 41 l 1
 356 82 358 135 358 191 c 2
 358 375 l 2
 358 431 356 482 350 525 c 1
 352 527 l 1
 352 527 380 525 406 525 c 0
 428 525 497 530 515 530 c 0
 608 530 701 504 701 400 c 0
 701 321.3 650.6 285.4 588.1 269.1 c 1
 636.1 206.2 716.7 84.1 755 41 c 1
 753 39 l 1
 738 41 713 41 698 41 c 0
 684 41 662 41 647 39 c 1
 639 64 605 119 567 173 c 0
 546.5 202.4 524.5 232.5 502.3 257.1 c 1
 485.7 256.2 469.4 256 454 256 c 1
EndSplineSet
Refer: 415 -1 N 1 0 0 1 0 0 2
Colour: ff00ff
EndChar

StartChar: rcaron
Encoding: 345 345 253
Width: 1100
GlyphClass: 2
Flags: MW
LayerCount: 3
Fore
SplineSet
540 455 m 1
 502 455 l 1
 480 490 452 522 426 552 c 1
 444 566 l 1
 473 545 492 531 520 503 c 1
 546 530 568 545 597 566 c 1
 615 552 l 1
 588 522 561 491 540 455 c 1
517 310 m 1
 536 339 575 374 610 374 c 0
 624 374 628 372 641 368 c 1
 644 366 l 1
 629 296 l 1
 623 294 l 1
 610 305 594 305 580 305 c 0
 568 305 517 300 517 242 c 2
 517 177 l 2
 517 119 518 84 524 41 c 1
 523 39 l 1
 523 39 494 41 469 41 c 0
 442 41 421 39 421 39 c 1
 421 41 l 1
 427 82 428 120 428 177 c 2
 428 221 l 2
 428 277 423 320 417 353 c 1
 418 355 l 1
 449 357 491 366 510 374 c 1
 514 374 517 372 517 366 c 0
 516 344 515 310 515 310 c 1
 517 310 l 1
EndSplineSet
Refer: 415 -1 N 1 0 0 1 0 0 2
Colour: ff00ff
EndChar

StartChar: Sacute
Encoding: 346 346 254
Width: 1100
GlyphClass: 2
Flags: MW
LayerCount: 3
Fore
SplineSet
584.8 677.6 m 1
 636.5 634.7 l 1
 517.8 586.3 l 2
 500.2 578.6 489.1 576.4 482.5 576.4 c 0
 474.8 576.4 470.5 580.8 470.5 589.6 c 0
 470.5 595.1 472.6 598.4 482.5 606.1 c 2
 584.8 677.6 l 1
511 72 m 0
 567 72 597 101 597 154 c 0
 597 214 577 237 526 255 c 0
 451 281 350 321 350 405 c 0
 350 484 430 534 524 534 c 0
 624 534 672 501 672 501 c 1
 673 498 l 1
 665 476 659 439 656 412 c 1
 649 412 l 1
 626 458 576 498 517 498 c 0
 472 498 445 471 445 425 c 0
 445 363 504 340 538 329 c 0
 607 306 703 268 703 180 c 0
 703 104 637 34 505 34 c 0
 404 34 338 67 338 67 c 1
 335 70 l 1
 342 92 349 130 353 157 c 1
 361 158 l 1
 384 112 452 72 511 72 c 0
EndSplineSet
Refer: 415 -1 N 1 0 0 1 0 0 2
Colour: ff00ff
EndChar

StartChar: sacute
Encoding: 347 347 255
Width: 1100
GlyphClass: 2
Flags: MW
LayerCount: 3
Fore
SplineSet
400 130 m 1
 410 131 l 1
 427 98 475 71 508 71 c 0
 538 71 557 92 557 128 c 0
 557 160 543 173 502 189 c 0
 465 203 403 228 403 281 c 0
 403 350 458 373 541 373 c 0
 577 373 613 360 634 349 c 1
 635 347 l 1
 621 275 l 1
 611 274 l 1
 601 295 569 339 532 339 c 0
 502 339 484 323 484 296 c 0
 484 261 507 246 533 237 c 0
 584 219 643 194 643 135 c 0
 643 94 601 36 503 36 c 0
 476 36 428 41 388 56 c 1
 400 130 l 1
537.3 578.2 m 1
 539.5 579.3 546.1 580.5 550.5 580.5 c 0
 575.8 580.5 591.2 568.4 597.8 560.7 c 1
 605.5 540.8 l 1
 506.5 451.8 l 2
 495.5 441.9 483.4 438.5 475.7 438.5 c 0
 469.1 438.5 462.5 445.2 462.5 450.7 c 0
 462.5 455.1 463.6 462.8 469.1 470.5 c 2
 537.3 578.2 l 1
EndSplineSet
Refer: 415 -1 N 1 0 0 1 0 0 2
Colour: ff00ff
EndChar

StartChar: Scircumflex
Encoding: 348 348 256
Width: 1100
GlyphClass: 2
Flags: MW
LayerCount: 3
Fore
SplineSet
546.5 689.3 m 1
 570.7 659.6 600.5 633.2 630.2 611.2 c 1
 617 593.7 l 1
 584 609.1 556.5 624.4 529 645.3 c 1
 498.2 623.3 471.8 608 441 593.7 c 1
 428.8 611.2 l 1
 459.6 634.3 484.9 660.7 511.3 689.3 c 1
 546.5 689.3 l 1
511 72 m 0
 567 72 597 101 597 154 c 0
 597 214 577 237 526 255 c 0
 451 281 350 321 350 405 c 0
 350 484 430 534 524 534 c 0
 624 534 672 501 672 501 c 1
 673 498 l 1
 665 476 659 439 656 412 c 1
 649 412 l 1
 626 458 576 498 517 498 c 0
 472 498 445 471 445 425 c 0
 445 363 504 340 538 329 c 0
 607 306 703 268 703 180 c 0
 703 104 637 34 505 34 c 0
 404 34 338 67 338 67 c 1
 335 70 l 1
 342 92 349 130 353 157 c 1
 361 158 l 1
 384 112 452 72 511 72 c 0
EndSplineSet
Refer: 415 -1 N 1 0 0 1 0 0 2
Colour: ff00ff
EndChar

StartChar: scircumflex
Encoding: 349 349 257
Width: 1100
GlyphClass: 2
Flags: MW
LayerCount: 3
Fore
SplineSet
400 130 m 1
 410 131 l 1
 427 98 475 71 508 71 c 0
 538 71 557 92 557 128 c 0
 557 160 543 173 502 189 c 0
 465 203 403 228 403 281 c 0
 403 350 458 373 541 373 c 0
 577 373 613 360 634 349 c 1
 635 347 l 1
 621 275 l 1
 611 274 l 1
 601 295 569 339 532 339 c 0
 502 339 484 323 484 296 c 0
 484 261 507 246 533 237 c 0
 584 219 643 194 643 135 c 0
 643 94 601 36 503 36 c 0
 476 36 428 41 388 56 c 1
 400 130 l 1
549 548.8 m 1
 574.3 508.1 605 471.8 635.8 437.7 c 1
 615 422.2 l 1
 579.8 444.2 555.6 460.8 527 490.5 c 1
 496.2 458.6 473 444.2 440 422.2 c 1
 419.2 437.7 l 1
 448.9 471.8 481.8 509.2 506 548.8 c 1
 549 548.8 l 1
EndSplineSet
Refer: 415 -1 N 1 0 0 1 0 0 2
Colour: ff00ff
EndChar

StartChar: Scedilla
Encoding: 350 350 258
Width: 1100
GlyphClass: 2
Flags: MW
LayerCount: 3
Fore
SplineSet
496 -26 m 0
 482 -26 474 -26 462 -30 c 1
 458 -26 l 1
 484.6 34.5 l 1
 395.2 38.5 338 67 338 67 c 1
 335 70 l 1
 342 92 349 130 353 157 c 1
 361 158 l 1
 384 112 452 72 511 72 c 0
 567 72 597 101 597 154 c 0
 597 214 577 237 526 255 c 0
 451 281 350 321 350 405 c 0
 350 484 430 534 524 534 c 0
 624 534 672 501 672 501 c 1
 673 498 l 1
 665 476 659 439 656 412 c 1
 649 412 l 1
 626 458 576 498 517 498 c 0
 472 498 445 471 445 425 c 0
 445 363 504 340 538 329 c 0
 607 306 703 268 703 180 c 0
 703 105.1 638.9 35.9 510.6 34 c 1
 495 -4 l 1
 501 -2 507 -2 514 -2 c 0
 544 -2 567 -20 567 -48 c 0
 567 -80 533 -102 487 -102 c 0
 463 -102 450 -97 432 -89 c 1
 439 -72 l 1
 459 -80 468 -83 483 -83 c 0
 505 -83 528 -72 528 -52 c 0
 528 -36 513 -26 496 -26 c 0
EndSplineSet
Refer: 415 -1 N 1 0 0 1 0 0 2
Colour: ff00ff
EndChar

StartChar: scedilla
Encoding: 351 351 259
Width: 1100
GlyphClass: 2
Flags: MW
LayerCount: 3
Fore
SplineSet
501 -18 m 0
 487 -18 479 -18 467 -22 c 1
 463 -18 l 1
 486.9 36.5 l 1
 459.3 38.1 421 43.6 388 56 c 1
 400 130 l 1
 410 131 l 1
 427 98 475 71 508 71 c 0
 538 71 557 92 557 128 c 0
 557 160 543 173 502 189 c 0
 465 203 403 228 403 281 c 0
 403 350 458 373 541 373 c 0
 577 373 613 360 634 349 c 1
 635 347 l 1
 621 275 l 1
 611 274 l 1
 601 295 569 339 532 339 c 0
 502 339 484 323 484 296 c 0
 484 261 507 246 533 237 c 0
 584 219 643 194 643 135 c 0
 643 95.4 603.9 40.1 513.2 36.2 c 1
 500 4 l 1
 506 6 512 6 519 6 c 0
 549 6 572 -12 572 -40 c 0
 572 -72 538 -94 492 -94 c 0
 468 -94 455 -89 437 -81 c 1
 444 -64 l 1
 464 -72 473 -75 488 -75 c 0
 510 -75 533 -64 533 -44 c 0
 533 -28 518 -18 501 -18 c 0
EndSplineSet
Refer: 415 -1 N 1 0 0 1 0 0 2
Colour: ff00ff
EndChar

StartChar: Scaron
Encoding: 352 352 260
Width: 1100
GlyphClass: 2
Flags: MW
LayerCount: 3
Fore
SplineSet
505 588 m 1
 483 616 457 639 429 660 c 1
 441 675 l 1
 471 662 496 648 521 629 c 1
 549 648 573 663 601 675 c 1
 613 660 l 1
 584 638 560 614 537 588 c 1
 505 588 l 1
511 72 m 0
 567 72 597 101 597 154 c 0
 597 214 577 237 526 255 c 0
 451 281 350 321 350 405 c 0
 350 484 430 534 524 534 c 0
 624 534 672 501 672 501 c 1
 673 498 l 1
 665 476 659 439 656 412 c 1
 649 412 l 1
 626 458 576 498 517 498 c 0
 472 498 445 471 445 425 c 0
 445 363 504 340 538 329 c 0
 607 306 703 268 703 180 c 0
 703 104 637 34 505 34 c 0
 404 34 338 67 338 67 c 1
 335 70 l 1
 342 92 349 130 353 157 c 1
 361 158 l 1
 384 112 452 72 511 72 c 0
EndSplineSet
Refer: 415 -1 N 1 0 0 1 0 0 2
Colour: ff00ff
EndChar

StartChar: scaron
Encoding: 353 353 261
Width: 1100
GlyphClass: 2
Flags: MW
LayerCount: 3
Fore
SplineSet
400 130 m 1
 410 131 l 1
 427 98 475 71 508 71 c 0
 538 71 557 92 557 128 c 0
 557 160 543 173 502 189 c 0
 465 203 403 228 403 281 c 0
 403 350 458 373 541 373 c 0
 577 373 613 360 634 349 c 1
 635 347 l 1
 621 275 l 1
 611 274 l 1
 601 295 569 339 532 339 c 0
 502 339 484 323 484 296 c 0
 484 261 507 246 533 237 c 0
 584 219 643 194 643 135 c 0
 643 94 601 36 503 36 c 0
 476 36 428 41 388 56 c 1
 400 130 l 1
549 454 m 1
 511 454 l 1
 489 489 461 521 435 551 c 1
 453 565 l 1
 482 544 501 530 529 502 c 1
 555 529 577 544 606 565 c 1
 624 551 l 1
 597 521 570 490 549 454 c 1
EndSplineSet
Refer: 415 -1 N 1 0 0 1 0 0 2
Colour: ff00ff
EndChar

StartChar: uni0162
Encoding: 354 354 262
Width: 1100
GlyphClass: 2
Flags: MW
LayerCount: 3
Fore
SplineSet
530 -19 m 0
 516 -19 508 -19 496 -23 c 1
 492 -19 l 1
 518.4 41 l 1
 493.1 40.8 466 38 466 38 c 2
 466 41 l 1
 472 81 473 134 473 191 c 2
 473 368 l 2
 473 380 472 455 467 473 c 1
 366 473 316 464 316 464 c 1
 314 467 l 1
 316 479 316 503 314 524 c 1
 316 527 l 1
 328 525 345 524 360 524 c 2
 682 524 l 2
 697 524 714 525 726 527 c 1
 728 524 l 1
 726 503 726 479 728 467 c 1
 726 464 l 1
 726 464 676 473 575 473 c 1
 570 455 569 380 569 368 c 2
 569 191 l 2
 569 134 570 83 576 41 c 1
 575 38 l 1
 575 38 561.1 39.4 544.3 40.3 c 1
 529 3 l 1
 535 5 541 5 548 5 c 0
 578 5 601 -13 601 -41 c 0
 601 -73 567 -95 521 -95 c 0
 497 -95 484 -90 466 -82 c 1
 473 -65 l 1
 493 -73 502 -76 517 -76 c 0
 539 -76 562 -65 562 -45 c 0
 562 -29 547 -19 530 -19 c 0
EndSplineSet
Refer: 415 -1 N 1 0 0 1 0 0 2
Colour: ff00ff
EndChar

StartChar: uni0163
Encoding: 355 355 263
Width: 1100
GlyphClass: 2
Flags: MW
LayerCount: 3
Fore
SplineSet
496 -22 m 0
 482 -22 474 -22 462 -26 c 1
 458 -22 l 1
 484 37.3 l 1
 451.3 47.2 435 78.1 435 107 c 0
 435 130 437 192 437 237 c 2
 437 323 l 1
 390 323 l 2
 384 323 380 328 380 334 c 0
 380 344 388 363 396 363 c 2
 437 363 l 1
 437 406 437 414 432 446 c 1
 433 448 l 1
 463 450 504 467 522 474 c 1
 527 474 529 472 529 467 c 0
 526 424 525 419 525 363 c 1
 606 363 l 2
 609 363 612 361 612 358 c 2
 612 333 l 2
 612 326 601 323 594 323 c 2
 525 323 l 1
 525 245 l 2
 525 200 523 162 523 139 c 0
 523 108 528 85 548 85 c 0
 567 85 579 87 599 99 c 1
 607 94 613 84 613 72 c 1
 584.6 46.5 540.8 34.5 508.9 34 c 1
 495 0 l 1
 501 2 507 2 514 2 c 0
 544 2 567 -16 567 -44 c 0
 567 -76 533 -98 487 -98 c 0
 463 -98 450 -93 432 -85 c 1
 439 -68 l 1
 459 -76 468 -79 483 -79 c 0
 505 -79 528 -68 528 -48 c 0
 528 -32 513 -22 496 -22 c 0
EndSplineSet
Refer: 415 -1 N 1 0 0 1 0 0 2
Colour: ff00ff
EndChar

StartChar: Tcaron
Encoding: 356 356 264
Width: 1100
GlyphClass: 2
Flags: MW
LayerCount: 3
Fore
SplineSet
514 588 m 1
 492 616 466 639 438 660 c 1
 450 675 l 1
 480 662 505 648 530 629 c 1
 558 648 582 663 610 675 c 1
 622 660 l 1
 593 638 569 614 546 588 c 1
 514 588 l 1
473 368 m 2
 473 380 472 455 467 473 c 1
 366 473 316 464 316 464 c 1
 314 467 l 1
 316 479 316 503 314 524 c 1
 316 527 l 1
 328 525 345 524 360 524 c 2
 682 524 l 2
 697 524 714 525 726 527 c 1
 728 524 l 1
 726 503 726 479 728 467 c 1
 726 464 l 1
 726 464 676 473 575 473 c 1
 570 455 569 380 569 368 c 2
 569 191 l 2
 569 134 570 83 576 41 c 1
 575 38 l 1
 575 38 546 41 521 41 c 0
 495 41 466 38 466 38 c 1
 466 41 l 1
 472 81 473 134 473 191 c 2
 473 368 l 2
EndSplineSet
Refer: 415 -1 N 1 0 0 1 0 0 2
Colour: ff00ff
EndChar

StartChar: tcaron
Encoding: 357 357 265
Width: 1100
GlyphClass: 2
Flags: MW
LayerCount: 3
Fore
SplineSet
651 664 m 0
 679 664 696 636 696 609 c 0
 696 582 672 535 619 529 c 1
 615 542 l 1
 647 549 663 577 663 594 c 0
 663 604 658 610 652 610 c 0
 621 610 618 626 618 638 c 0
 618 650 628 664 651 664 c 0
390 323 m 2
 384 323 380 328 380 334 c 0
 380 344 388 363 396 363 c 2
 437 363 l 1
 437 406 437 414 432 446 c 1
 433 448 l 1
 463 450 504 467 522 474 c 1
 527 474 529 472 529 467 c 0
 526 424 525 419 525 363 c 1
 606 363 l 2
 609 363 612 361 612 358 c 2
 612 333 l 2
 612 326 601 323 594 323 c 2
 525 323 l 1
 525 245 l 2
 525 200 523 162 523 139 c 0
 523 108 528 85 548 85 c 0
 567 85 579 87 599 99 c 1
 607 94 613 84 613 72 c 1
 584 46 539 34 507 34 c 0
 459 34 435 72 435 107 c 0
 435 130 437 192 437 237 c 2
 437 323 l 1
 390 323 l 2
EndSplineSet
Refer: 415 -1 N 1 0 0 1 0 0 2
Colour: ff00ff
EndChar

StartChar: Tbar
Encoding: 358 358 266
Width: 1100
GlyphClass: 2
Flags: MW
LayerCount: 3
Fore
SplineSet
388 327 m 1
 388 357 l 1
 473 357 l 1
 473 368 l 2
 473 380 472 455 467 473 c 1
 366 473 316 464 316 464 c 1
 314 467 l 1
 316 479 316 503 314 524 c 1
 316 527 l 1
 328 525 345 524 360 524 c 2
 682 524 l 2
 697 524 714 525 726 527 c 1
 728 524 l 1
 726 503 726 479 728 467 c 1
 726 464 l 1
 726 464 676 473 575 473 c 1
 570 455 569 380 569 368 c 2
 569 357 l 1
 649 357 l 1
 649 327 l 1
 569 327 l 1
 569 191 l 2
 569 134 570 83 576 41 c 1
 575 38 l 1
 575 38 546 41 521 41 c 0
 495 41 466 38 466 38 c 1
 466 41 l 1
 472 81 473 134 473 191 c 2
 473 327 l 1
 388 327 l 1
EndSplineSet
Refer: 415 -1 N 1 0 0 1 0 0 2
Colour: ff80cc
EndChar

